<?xml version="1.0" standalone="no"?>
<!DOCTYPE svg PUBLIC "-//W3C//DTD SVG 20010904//EN"
 "http://www.w3.org/TR/2001/REC-SVG-20010904/DTD/svg10.dtd">
<svg version="1.0" xmlns="http://www.w3.org/2000/svg"
 width="60.000000pt" height="60.000000pt" viewBox="0 0 60.000000 60.000000"
 preserveAspectRatio="xMidYMid meet">

<g transform="translate(0.000000,60.000000) scale(0.100000,-0.100000)"
fill="#000000" stroke="none">
<path d="M235 591 c-88 -23 -166 -87 -206 -169 -32 -66 -32 -178 0 -244 29
-61 88 -120 149 -149 36 -17 64 -23 122 -23 88 0 152 26 210 84 58 58 84 122
84 210 0 58 -6 86 -23 122 -30 62 -86 119 -144 146 -52 24 -145 36 -192 23z
m175 -32 c181 -82 228 -311 92 -453 -111 -115 -293 -115 -404 0 -136 142 -89
371 92 453 61 28 159 28 220 0z"/>
<path d="M254 486 c-77 -35 -99 -127 -45 -188 16 -19 31 -47 33 -63 3 -29 4
-30 58 -30 54 0 55 1 58 30 2 17 14 41 28 55 40 43 49 83 27 127 -33 66 -100
96 -159 69z m119 -46 c37 -42 37 -88 -3 -133 -17 -20 -30 -46 -30 -61 0 -24
-4 -26 -40 -26 -36 0 -40 2 -40 26 0 15 -13 41 -30 61 -36 41 -40 88 -9 127
43 54 105 57 152 6z"/>
<path d="M273 173 c15 -2 39 -2 55 0 15 2 2 4 -28 4 -30 0 -43 -2 -27 -4z"/>
<path d="M257 143 c-10 -10 23 -43 43 -43 20 0 53 33 43 43 -8 9 -78 9 -86 0z"/>
</g>
</svg>
