<svg width="273" height="273" viewBox="0 0 273 273" fill="none" xmlns="http://www.w3.org/2000/svg">
<rect width="273" height="273" fill="#101114"/>
<path fill-rule="evenodd" clip-rule="evenodd" d="M199.352 168.483C195.382 170.036 190.789 172.366 190.363 176.607C195.756 172.458 202.418 169.982 209.212 169.601C204.519 175.515 198.592 180.445 191.923 183.984C185.934 187.162 178.351 190.552 177.838 197.312C184.27 189.653 194.159 185.016 204.161 184.97C197.762 194.342 187.502 200.989 176.333 202.999C176.716 205.879 189.099 212.047 192.706 213.234C195.275 224.27 196.388 238.581 198.956 249.616C199.589 252.332 200.145 255.452 198.482 257.69C196.833 259.91 193.717 260.293 190.958 260.489C180.084 261.262 165.206 262.035 154.332 262.808C153.03 256.909 151.728 251.011 150.426 245.113C132.084 246.816 53.4504 264.835 39.0199 255.382C-16.6864 218.89 54.3488 206.458 55.8754 162.029C56.2254 151.842 25.5962 134.034 26.0825 123.625C26.4 116.827 27.4522 110.187 30.8153 104.351C34.1783 98.5143 39.5074 94.0183 45.2994 90.5791C37.3252 88.5294 31.2851 80.5805 31.4467 72.3486C31.6083 64.1168 37.9557 56.411 46.0042 54.6759C42.2095 50.1538 36.2343 48.0812 31.8697 44.1063C26.7854 39.4759 24.2304 32.0065 26.0825 25.3837C27.9345 18.7609 34.4553 13.5502 41.3259 13.8438C46.9695 14.085 51.936 17.6544 55.8754 21.7028C61.9849 27.9815 66.5287 35.7723 68.9853 44.1814C70.6227 49.7864 76.6236 52.6378 81.6914 55.5384C86.7593 58.439 92.0221 63.4916 90.5943 69.1536C88.7066 61.4058 116.763 70.6343 142.208 72.8934C145.586 73.1934 149.222 73.6301 151.72 75.925C155.309 79.2229 160.697 80.4257 165.348 78.9672C166.827 82.6353 167.916 86.7554 166.658 90.5052C165.4 94.2551 160.945 97.1173 157.383 95.3971C158.313 100.18 159.243 104.963 160.172 109.745C169.278 109.855 178.383 110.041 187.486 110.303C192.31 110.442 197.353 110.662 201.546 113.052C205.739 115.442 211.351 112.056 215.495 103.356C212.813 117.552 215.99 123.224 221.469 124.766C221.48 124.659 221.906 124.71 221.919 124.603C223.55 110.575 233.069 98.1187 246.317 93.1912C245.145 95.8908 236.763 101.223 230.943 108.032C225.257 114.683 222.535 123.588 222.254 125.187C231.281 122.82 234.291 129.546 249.608 123.625C242.609 132.039 229.122 134.111 219.92 128.185C215.579 133.027 215.821 138.388 212.746 144.117C217.97 137.625 224.907 143.381 219.404 147.589C222.325 147.87 225.483 148.255 227.601 150.285C229.72 152.314 229.773 156.587 227.04 157.656C217.811 161.265 208.581 164.874 199.352 168.483Z" fill="#64FCD9"/>
<path fill-rule="evenodd" clip-rule="evenodd" d="M184.371 136.489C184.705 135.854 185.068 135.188 185.683 134.817C186.297 134.447 187.241 134.524 187.572 135.161C187.924 135.838 187.4 136.655 186.784 137.107C186.169 137.56 185.412 137.878 185.012 138.529C187.173 139.953 189.335 141.377 191.496 142.801C193.188 143.917 195.103 145.51 194.757 147.507C194.554 148.678 193.561 149.588 192.456 150.025C191.351 150.462 190.135 150.508 188.947 150.542C180.963 150.772 172.971 150.731 164.989 150.42C164.435 150.399 163.817 150.347 163.449 149.934C163.163 149.613 163.104 149.156 163.058 148.729C162.598 144.481 162.139 140.233 161.679 135.984C161.662 135.827 161.646 135.664 161.702 135.516C161.939 134.896 162.867 135.278 163.385 135.692C167.06 138.625 172.934 138.28 176.24 134.938C177.039 134.13 178.399 134.235 179.425 134.722C180.452 135.209 181.31 136.001 182.34 136.481C182.23 135.885 182.755 135.257 183.36 135.26C183.966 135.262 184.485 135.894 184.371 136.489Z" fill="white"/>
<path fill-rule="evenodd" clip-rule="evenodd" d="M55.7931 89.6003C55.7931 89.6003 54.9012 78.917 57.1462 75.4827C59.3912 72.0484 67.9428 71.0145 67.9428 71.0145C67.9428 71.0145 91.3811 70.7082 104.045 71.1922C116.709 71.6763 142.035 73.8467 142.035 73.8467C142.035 73.8467 145.326 74.5645 146.806 75.4827C148.285 76.4009 150.348 79.0063 150.348 79.0063C150.348 79.0063 154.839 79.6609 157.073 79.7499C159.306 79.8389 161.353 79.4448 161.353 79.4448C161.353 79.4448 164.2 87.7471 162.187 91.7043C160.174 95.6614 153.417 95.0478 153.417 95.0478L155.809 109.857C155.809 109.857 152.965 111.201 151.411 112.886C149.857 114.572 149.233 116.988 149.233 116.988L153.852 162.029C153.852 162.029 155.211 164.37 158.13 165.26C161.049 166.149 167.625 166.224 167.625 166.224C167.625 166.224 167.391 170.766 167.625 172.721C167.86 174.675 168.069 175.746 168.069 175.746L173.02 211.191C173.02 211.191 168.208 212.067 163.446 213.222C158.684 214.377 149.233 216.962 149.233 216.962C149.233 216.962 145.901 218.481 145.47 220.934C145.038 223.386 146.806 230.756 146.806 230.756L93.7498 234.8C93.7498 234.8 88.5868 234.897 86.811 233.779C85.0351 232.66 84.5484 229.003 84.5484 229.003L77.3721 164.458C77.3721 164.458 65.9044 164.739 62.5551 162.826C59.2059 160.914 58.8008 153.854 58.8008 153.854C58.8008 153.854 59.3573 149.853 58.8008 147.076C58.6152 146.149 56.1897 136.106 55.3749 126.549C54.9139 121.141 61.2773 116.988 61.2773 116.988L55.7931 89.6003Z" fill="white"/>
<path fill-rule="evenodd" clip-rule="evenodd" d="M93.2299 74.7415C92.8173 75.3231 93.1627 76.1907 93.7589 76.582C94.3551 76.9732 95.1063 77.0173 95.8186 77.0493C103.559 77.3976 111.299 77.746 119.039 78.0943C119.793 78.1282 120.628 78.1357 121.199 77.6423C121.771 77.1489 121.695 75.9723 120.95 75.8537C112.343 74.4853 103.609 73.917 94.8977 74.1586C94.2861 74.1755 93.5841 74.2425 93.2299 74.7415" fill="#E7EAEE"/>
<path fill-rule="evenodd" clip-rule="evenodd" d="M127.666 130.218L125.655 120.779C125.655 120.779 125.561 122.725 124.496 123.517C123.431 124.308 121.326 123.997 121.326 123.997C121.326 123.997 120.992 117.406 122.474 115.399C123.956 113.392 125.416 115.287 128.231 114.645C131.044 114.004 130.461 111.891 133.73 112.832C136.998 113.773 139.413 120.767 139.413 120.767C139.413 120.767 136.85 121.626 135.76 121.406C134.669 121.186 134.935 119.863 134.935 119.863C134.935 119.863 134.163 119.534 134.36 121.853C134.455 122.98 135.308 124.674 135.76 126.89C135.928 127.715 135.76 129.57 135.76 129.57C135.76 129.57 132.852 129.867 130.338 130.405C127.825 130.943 127.666 130.218 127.666 130.218Z" fill="#E7EAEE"/>
<path fill-rule="evenodd" clip-rule="evenodd" d="M56.0258 106.739C55.0578 106.218 54.2706 105.423 53.4991 104.639C51.5088 102.619 49.4936 100.566 48.1127 98.0893C47.9812 97.8534 47.8519 97.5827 47.9278 97.3235C48.0036 97.0644 48.3993 96.9172 48.5472 97.143C50.9476 100.808 53.9788 104.058 57.4674 106.707C57.1537 107.129 56.4887 106.988 56.0258 106.739Z" fill="#00160A"/>
<path fill-rule="evenodd" clip-rule="evenodd" d="M58.9255 60.3589C59.4974 59.7697 59.8023 58.9771 60.0657 58.1994C60.8868 55.7743 61.4463 53.2608 61.7315 50.7165C61.7828 50.2582 61.867 49.7305 62.2646 49.4969C62.7118 51.6786 62.1579 53.9269 61.6072 56.0847C61.123 57.9817 60.5869 59.9736 59.2136 61.3691C59.0747 61.5103 58.8973 61.6542 58.7019 61.6215C58.4385 61.5775 58.333 61.2274 58.427 60.9774C58.521 60.7275 58.7395 60.5505 58.9255 60.3589L58.9255 60.3589Z" fill="#00160A"/>
<path fill-rule="evenodd" clip-rule="evenodd" d="M196.955 79.3875C197.227 79.3147 197.504 79.5294 197.623 79.7848C197.741 80.0403 197.75 80.3307 197.803 80.6074C198.009 81.6888 198.984 82.5761 200.08 82.6802C200.217 82.9978 199.914 83.3157 199.676 83.5656C199.132 84.1345 198.788 84.8914 198.719 85.6753C198.673 86.1839 198.566 86.8918 198.056 86.8851C197.645 86.8798 197.465 86.3834 197.317 86.0006C196.956 85.0654 196.142 84.3175 195.179 84.0372C194.977 83.9784 194.892 83.7201 194.948 83.5171C195.004 83.3142 195.158 83.1555 195.305 83.0048C195.937 82.356 196.579 81.5879 196.572 80.682C196.568 80.192 196.481 79.514 196.955 79.3875Z" fill="#FFB61D"/>
<path fill-rule="evenodd" clip-rule="evenodd" d="M216.122 164.492C215.273 165.364 214.972 166.73 215.376 167.878C214.929 168.079 214.594 167.462 214.373 167.025C214.041 166.368 213.413 165.869 212.698 165.693C213.733 165.041 214.377 163.812 214.325 162.59C214.741 162.319 215.207 162.884 215.326 163.366C215.446 163.848 215.626 164.475 216.122 164.492Z" fill="#E7EAEE"/>
<path fill-rule="evenodd" clip-rule="evenodd" d="M208.875 166.128C209.368 166.909 210.068 167.559 210.885 167.99C211.178 168.145 210.912 168.577 210.67 168.804C210.059 169.374 209.673 170.178 209.609 171.011C209.075 170.476 208.541 169.941 208.007 169.406C207.794 169.193 207.569 168.862 207.753 168.622C208.313 167.892 208.701 167.031 208.875 166.128Z" fill="#E7EAEE"/>
<path fill-rule="evenodd" clip-rule="evenodd" d="M173.223 72.0508C173.708 68.9575 174.882 65.9175 176.945 63.5617C179.008 61.2059 182.019 59.5978 185.15 59.6003C188.282 59.6029 191.444 61.3762 192.745 64.2243C193.418 65.6979 193.583 67.3568 193.538 68.9763C193.451 72.0564 192.623 75.1131 191.145 77.8165C189.812 80.2544 187.895 82.4473 185.407 83.684C182.919 84.9207 179.818 85.0869 177.399 83.7196C175.484 82.637 174.144 80.694 173.506 78.5886C172.867 76.4833 172.881 74.2242 173.223 72.0508M192.361 69.7101C192.417 67.7921 192.101 65.8116 191.092 64.1793C190.479 63.1869 189.62 62.3476 188.614 61.7575C185.369 59.8544 180.952 60.8767 178.257 63.5011C175.561 66.1255 174.393 70.0042 174.273 73.7642C174.208 75.7698 174.424 77.8264 175.277 79.6428C176.13 81.4593 177.69 83.0129 179.633 83.512C182.176 84.1651 184.86 82.9356 186.854 81.2275C190.181 78.3774 192.232 74.0891 192.361 69.7101Z" fill="#FFB61D"/>
<path fill-rule="evenodd" clip-rule="evenodd" d="M205.264 69.903C204.747 70.5799 204.205 71.4691 204.603 72.223C204.745 72.4927 204.377 72.8067 204.084 72.7216C203.791 72.6365 203.625 72.3272 203.547 72.0324C203.469 71.7377 203.444 71.4214 203.287 71.1597C203.131 70.898 202.776 70.7161 202.517 70.8774C202.149 70.8337 202.111 70.2789 202.325 69.9761C202.539 69.6732 202.891 69.465 203.022 69.1184C203.126 68.8438 203.07 68.5358 203.12 68.2464C203.169 67.957 203.415 67.6479 203.7 67.7218C203.69 68.2305 203.749 68.7583 204.007 69.1968C204.265 69.6353 204.759 69.9634 205.264 69.903Z" fill="#FFB61D"/>
<path fill-rule="evenodd" clip-rule="evenodd" d="M158.947 68.9008C159.352 68.4301 159.86 68.0272 160.457 67.8558C161.053 67.6844 161.746 67.7747 162.212 68.185C162.719 68.6314 162.878 69.3772 162.77 70.0441C162.662 70.7109 162.326 71.3168 161.972 71.8922C161.513 72.6388 161.014 73.3612 160.479 74.0552C160.311 74.272 160.128 74.4956 159.872 74.5921C159.533 74.7197 159.156 74.5955 158.823 74.4561C157.651 73.9661 156.561 73.2787 155.614 72.4316C154.747 71.6558 153.947 70.519 154.298 69.4098C154.522 68.7031 155.206 68.192 155.939 68.0829C156.672 67.9738 157.432 68.2321 158.015 68.6899C158.294 68.9089 158.716 69.1696 158.947 68.9008M155.243 69.3113C154.69 70.0729 155.291 71.1399 155.988 71.7723C156.859 72.5614 157.892 73.1444 158.916 73.7205C159.048 73.7945 159.195 73.8712 159.342 73.8393C159.474 73.8109 159.571 73.7032 159.658 73.6003C160.352 72.7785 160.973 71.8958 161.512 70.9655C161.927 70.2499 162.232 69.1985 161.563 68.7114C161.034 68.326 160.263 68.6366 159.815 69.1132C159.366 69.5898 159.084 70.2122 158.594 70.6459C158.211 70.0427 157.805 69.416 157.184 69.062C156.563 68.708 155.663 68.7334 155.243 69.3113H155.243Z" fill="#FFB61D"/>
<path fill-rule="evenodd" clip-rule="evenodd" d="M151.017 48.0855C152.287 47.0959 153.698 46.2886 155.194 45.6961C156.112 45.3328 157.158 45.0532 158.065 45.4422C159.518 46.0656 159.801 48.1518 159.037 49.5356C158.272 50.9194 156.822 51.7583 155.442 52.5292C152.736 54.041 150.029 55.5528 147.322 57.0646C147.855 56.0008 147.254 54.752 146.761 53.6688C145.652 51.2293 145.072 48.551 145.071 45.8711C145.071 45.0245 145.135 44.1525 145.506 43.3917C145.877 42.631 146.618 42.0001 147.465 41.9801C148.819 41.9483 149.719 43.3586 150.176 44.6339C150.576 45.7508 150.859 46.9098 151.017 48.0855ZM156.754 46.1459C154.565 46.5907 152.525 47.7423 151.014 49.3871C150.865 49.549 150.576 49.4776 150.44 49.3047C150.304 49.1317 150.278 48.8997 150.252 48.6813C150.081 47.2345 149.703 45.8123 149.132 44.472C148.814 43.7248 148.281 42.8997 147.469 42.8865C146.867 42.8768 146.343 43.3587 146.121 43.9182C145.899 44.4777 145.918 45.1006 145.96 45.701C146.198 49.0497 147.079 52.3516 148.541 55.3734C150.936 54.0316 153.33 52.6898 155.724 51.3481C156.472 50.9294 157.232 50.5004 157.813 49.8711C158.394 49.2419 158.776 48.3675 158.607 47.5279C158.438 46.6883 157.593 45.9754 156.754 46.1459Z" fill="#FFB61D"/>
<path fill-rule="evenodd" clip-rule="evenodd" d="M134.263 213.947C141.252 213.151 148.285 212.75 155.319 212.747C156.609 212.746 157.732 211.744 158.256 210.565C158.781 209.386 158.822 208.056 158.823 206.766C158.826 201.972 158.375 197.19 157.924 192.418C157.742 190.482 157.559 188.547 157.376 186.611C157.266 185.437 157.148 184.236 156.653 183.165C155.795 181.306 153.895 180.098 151.915 179.577C149.935 179.057 147.854 179.128 145.809 179.203C139.016 179.452 132.224 179.7 125.432 179.949C129.347 178.513 133.611 178.446 137.782 178.395C140.979 178.356 144.176 178.317 147.373 178.278C150.64 178.238 154.374 178.402 156.459 180.919C157.806 182.545 158.103 184.771 158.328 186.87C159.037 193.48 159.556 200.11 159.885 206.749C159.994 208.949 159.905 211.535 158.114 212.817C157.112 213.534 155.812 213.642 154.583 213.725C147.098 214.232 139.612 214.739 132.127 215.246C130.37 215.365 128.517 215.467 126.936 214.69C126.387 214.42 125.823 213.81 126.118 213.274C128.551 214.599 131.51 214.261 134.263 213.947Z" fill="#00160A"/>
<path fill-rule="evenodd" clip-rule="evenodd" d="M104.66 107.92C104.8 108.13 104.832 108.391 104.86 108.642C104.926 109.225 104.991 109.808 105.057 110.392C105.134 111.084 105.15 111.921 104.577 112.316C104.271 112.526 103.876 112.544 103.505 112.554C95.6969 112.765 87.8887 112.976 80.0805 113.186C79.5781 113.2 78.9967 113.178 78.6888 112.781C78.4956 112.532 78.4658 112.197 78.4477 111.882C78.3908 110.893 78.375 109.901 78.4002 108.911C78.4041 108.76 78.4129 108.598 78.5064 108.48C78.6187 108.338 78.8162 108.303 78.9955 108.279C87.0633 107.186 95.2399 106.897 103.365 107.419C103.844 107.449 104.393 107.521 104.66 107.92M104.339 111.715C103.546 111.287 104.345 110.031 104.057 109.177C103.809 108.444 102.868 108.27 102.095 108.226C94.7321 107.807 87.3312 108.068 80.0168 109.006C79.7473 109.041 79.4486 109.092 79.285 109.309C79.1233 109.523 79.1525 109.821 79.1893 110.087C79.2463 110.498 79.3032 110.91 79.3602 111.321C79.4051 111.645 79.4736 112.009 79.7459 112.19C79.9434 112.322 80.1978 112.321 80.4351 112.315C88.403 112.115 96.371 111.915 104.339 111.715Z" fill="#00160A"/>
<path fill-rule="evenodd" clip-rule="evenodd" d="M119.348 121.744C119.386 120.877 119.423 120.011 119.46 119.144C119.532 117.454 119.621 115.701 120.406 114.203C121.192 112.705 122.887 111.541 124.533 111.93C125.563 112.174 126.512 112.983 127.548 112.766C128.45 112.577 129.003 111.685 129.765 111.167C131.58 109.931 134.112 111.079 135.613 112.682C137.232 114.409 138.284 116.659 138.572 119.008C138.596 119.208 138.609 119.432 138.48 119.586C138.374 119.714 138.2 119.759 138.038 119.796C137.413 119.939 136.787 120.082 136.162 120.225C135.63 120.347 135.078 120.47 134.543 120.359C134.008 120.248 133.495 119.836 133.452 119.291C133.292 122.334 135.57 125.24 134.935 128.22C134.699 128.091 134.463 127.962 134.227 127.833C134.784 124.845 132.121 121.952 132.677 118.964C132.751 118.568 132.91 118.147 133.263 117.955C133.617 117.764 134.176 117.982 134.162 118.384C134.14 119.028 134.835 119.509 135.479 119.503C136.124 119.498 136.71 119.152 137.26 118.817C137.456 118.698 137.403 118.403 137.321 118.189C136.712 116.59 135.911 115.065 134.941 113.656C134.285 112.704 133.495 111.763 132.405 111.376C131.316 110.989 129.877 111.384 129.476 112.468C129.006 113.737 127.232 113.823 125.929 113.457C124.627 113.091 123.164 112.52 122.002 113.213C121.03 113.792 120.705 115.026 120.523 116.143C120.21 118.059 120.066 120.003 120.092 121.944C120.145 122.24 120.523 122.336 120.823 122.328C122.408 122.287 123.88 121.037 124.176 119.48C124.604 119.971 124.756 120.636 124.894 121.272C125.372 123.475 125.851 125.677 126.329 127.88C126.476 128.558 126.305 129.6 125.622 129.477C125.312 127.074 124.854 124.691 124.25 122.346C123.109 122.605 121.968 122.865 120.826 123.124C120.476 123.204 120.084 123.277 119.778 123.09C119.355 122.832 119.327 122.239 119.348 121.744Z" fill="#00160A"/>
<path fill-rule="evenodd" clip-rule="evenodd" d="M152.738 181.564C153.32 182.195 152.415 183.36 152.949 184.033C153.226 184.382 153.028 184.936 152.662 185.189C152.295 185.442 151.825 185.476 151.38 185.502C143.734 185.947 136.087 186.391 128.441 186.835C127.921 186.865 127.3 186.848 127.016 186.411C126.892 186.221 126.862 185.986 126.835 185.76C126.765 185.173 126.695 184.585 126.626 183.998C126.604 183.813 126.584 183.615 126.671 183.451C126.814 183.18 127.169 183.122 127.474 183.095C135.51 182.385 143.556 181.786 151.608 181.296C152.008 181.272 152.466 181.269 152.738 181.564ZM151.86 182.557C151.836 182.412 151.803 182.253 151.687 182.162C151.571 182.072 151.41 182.078 151.264 182.089C144.134 182.609 137.004 183.129 129.874 183.648C129.297 183.69 128.699 183.739 128.196 184.022C127.693 184.306 127.313 184.898 127.464 185.456C127.511 185.628 127.611 185.793 127.764 185.885C127.952 185.999 128.186 185.991 128.405 185.979C135.933 185.571 143.461 185.162 150.988 184.754C151.883 184.705 152.012 183.44 151.86 182.557Z" fill="#00160A"/>
<path fill-rule="evenodd" clip-rule="evenodd" d="M158.771 174.717C160.124 178.279 160.556 182.113 160.976 185.899C161.953 194.697 162.93 203.494 163.907 212.291C163.18 212.351 162.845 211.418 162.755 210.695C161.275 198.858 160.799 186.868 158.296 175.204C158.454 175.042 158.613 174.88 158.771 174.717Z" fill="#00160A"/>
<path fill-rule="evenodd" clip-rule="evenodd" d="M115.113 113.436C114.903 113.346 114.907 113.018 115.068 112.855C115.23 112.693 115.474 112.654 115.701 112.625C117.402 112.409 119.116 112.304 120.83 112.31C120.739 113.041 119.795 113.255 119.058 113.289C117.822 113.346 116.585 113.404 115.348 113.461C115.269 113.464 115.186 113.467 115.113 113.436L115.113 113.436Z" fill="#00160A"/>
<path fill-rule="evenodd" clip-rule="evenodd" d="M124.706 202.901C124.564 200.283 124.423 197.664 124.282 195.046C123.902 187.998 123.51 180.878 121.548 174.098C121.298 173.233 121.011 172.354 120.456 171.644C119.067 169.867 116.496 169.663 114.24 169.663C105.543 169.663 96.8457 170.49 88.3042 172.129C87.4362 172.296 86.5339 172.487 85.8413 173.036C84.7409 173.908 84.4508 175.442 84.3486 176.842C84.162 179.399 84.3467 181.983 84.8952 184.488C84.5813 184.435 84.2674 184.383 83.9535 184.331C82.8026 181.934 82.2782 179.239 82.4463 176.585C82.5193 175.433 82.7313 174.259 83.3251 173.269C84.802 170.806 88.053 170.215 90.9086 169.909C98.154 169.133 105.426 168.61 112.708 168.342C115.639 168.234 118.951 168.317 120.963 170.451C121.975 171.525 122.487 172.968 122.889 174.387C124.287 179.318 124.672 184.471 125.051 189.582C125.421 194.576 125.79 199.57 126.16 204.564C126.247 205.738 126.333 206.93 126.096 208.082C125.322 211.839 121.321 214.124 117.513 214.578C113.705 215.032 109.871 214.162 106.037 214.098C100.88 214.012 95.6928 215.383 90.6069 214.527C89.1422 214.28 87.5845 213.761 86.7793 212.513C86.2207 211.647 86.1199 210.573 86.0344 209.547C85.4313 202.303 84.8281 195.06 84.2249 187.816C84.1845 187.332 84.5452 186.608 84.9178 186.922C85.5828 193.899 86.2479 200.876 86.9129 207.853C87.0029 208.797 87.1007 209.769 87.5398 210.61C88.1771 211.831 89.463 212.607 90.7962 212.953C92.1295 213.299 93.5269 213.271 94.9041 213.253C100.731 213.176 106.56 213.321 112.376 213.687C114.321 213.81 116.287 213.956 118.208 213.629C120.129 213.303 122.035 212.447 123.228 210.906C124.926 208.711 124.855 205.672 124.706 202.901Z" fill="#00160A"/>
<path fill-rule="evenodd" clip-rule="evenodd" d="M114.818 110.605C115.36 110.181 114.904 109.315 115.011 108.635C115.162 107.674 116.358 107.344 117.325 107.232C123.533 106.515 129.785 106.176 136.034 106.217C136.554 106.22 137.169 106.278 137.431 106.728C137.745 107.267 137.452 108.209 138.048 108.398C138.327 108.486 138.685 108.322 138.897 108.525C139.247 108.86 138.595 109.313 138.112 109.356C130.799 110.013 123.47 110.493 116.133 110.797C115.684 110.815 115.208 110.827 114.818 110.605M136.664 107.576C136.493 107.147 135.921 107.084 135.459 107.091C129.567 107.18 123.678 107.471 117.806 107.964C117.117 108.021 116.305 108.165 116.018 108.793C115.88 109.151 116.143 109.562 116.49 109.724C116.837 109.886 117.238 109.865 117.62 109.841C123.486 109.469 129.352 109.097 135.218 108.724C135.579 108.702 135.955 108.674 136.266 108.49C136.578 108.305 136.797 107.912 136.664 107.576Z" fill="#00160A"/>
<path fill-rule="evenodd" clip-rule="evenodd" d="M144.57 193.653C145.475 194.371 145.088 195.946 145.875 196.792C146.241 197.186 146.789 197.339 147.304 197.49C147.636 197.587 148.046 197.831 147.941 198.159C147.833 198.496 147.342 198.442 147.013 198.313C145.938 197.892 144.725 197.191 144.666 196.038C144.623 195.197 144.373 194.366 143.944 193.641C144.065 193.437 144.384 193.505 144.57 193.653V193.653Z" fill="#00160A"/>
<path fill-rule="evenodd" clip-rule="evenodd" d="M148.848 205.577C148.554 201.782 148.259 197.988 147.965 194.193C147.921 193.635 147.872 193.057 147.596 192.57C147.319 192.084 146.747 191.717 146.207 191.862C143.763 192.518 141.224 192.822 138.694 192.762C136.482 192.71 134.218 192.387 132.09 192.992C132.129 194.046 132.169 195.1 132.208 196.154C132.22 196.462 132.237 196.788 132.413 197.042C132.903 197.752 134.122 197.211 134.399 196.393C134.675 195.575 134.426 194.681 134.473 193.819C134.481 193.666 134.512 193.492 134.642 193.412C134.918 193.24 135.183 193.65 135.254 193.967C135.457 194.877 135.66 195.828 135.42 196.729C135.181 197.629 134.345 198.445 133.421 198.326C132.464 198.203 132.072 199.511 132.049 200.477C132.002 202.403 131.956 204.329 131.91 206.255C131.895 206.861 132.114 207.699 132.716 207.631C134.272 207.454 135.827 207.278 137.383 207.102C137.759 207.059 138.163 207.022 138.494 207.206C138.825 207.389 138.999 207.89 138.728 208.154C136.901 208.314 135.074 208.474 133.247 208.635C132.713 208.681 132.16 208.726 131.656 208.543C131.153 208.36 130.714 207.881 130.76 207.347C131.21 202.107 131.31 196.837 131.061 191.584C131.008 190.466 132.369 189.899 133.469 189.693C136.959 189.038 140.519 188.754 144.069 188.848C145.26 188.879 146.557 188.997 147.42 189.817C148.299 190.652 148.471 191.967 148.592 193.173C149.047 197.694 149.501 202.214 149.955 206.734C149.979 206.978 149.985 207.268 149.79 207.416C149.674 207.505 149.518 207.514 149.372 207.52C147.856 207.583 146.341 207.646 144.826 207.709C144.023 207.743 143.16 207.76 142.491 207.314C142.033 207.008 141.73 206.522 141.464 206.04C140.825 204.883 140.315 203.655 139.945 202.385C139.365 203.836 138.998 205.372 138.86 206.928C138.127 207.007 137.991 205.908 138.161 205.192C138.513 203.713 138.864 202.235 139.215 200.756C139.269 200.531 139.354 200.27 139.575 200.201C139.899 200.099 140.149 200.488 140.267 200.807C140.762 202.137 141.257 203.466 141.752 204.796C142.178 205.94 143.406 206.628 144.619 206.769C145.832 206.91 147.048 206.605 148.231 206.302C148.465 206.242 148.73 206.156 148.821 205.932C148.866 205.821 148.858 205.696 148.848 205.577ZM132.366 191.683C133.463 191.697 134.56 191.712 135.657 191.726C136.482 191.736 137.306 191.747 138.13 191.732C141.106 191.676 144.075 191.276 146.959 190.545C146.316 189.884 145.284 189.847 144.362 189.863C141.062 189.923 137.765 190.115 134.48 190.439C133.601 190.525 132.509 190.812 132.366 191.683L132.366 191.683Z" fill="#00160A"/>
<path fill-rule="evenodd" clip-rule="evenodd" d="M127.455 188.842C127.392 188.499 127.837 188.311 128.182 188.258C132.162 187.641 136.196 187.368 140.223 187.444C140.281 187.445 140.341 187.446 140.394 187.469C140.583 187.548 140.574 187.845 140.424 187.984C140.274 188.124 140.053 188.147 139.849 188.163C136.014 188.45 132.123 188.303 128.365 189.123C128.017 189.199 127.519 189.193 127.455 188.842L127.455 188.842Z" fill="#00160A"/>
<path fill-rule="evenodd" clip-rule="evenodd" d="M216.473 180.6C216.693 180.082 216.935 179.534 217.402 179.219C217.796 178.953 218.289 178.894 218.761 178.843C220.162 178.691 221.564 178.539 222.965 178.387C223.658 178.311 224.553 178.019 224.527 177.323C224.442 175.073 224.616 172.482 226.403 171.112C228.038 169.86 230.486 170.203 232.164 171.398C233.841 172.593 234.904 174.454 235.821 176.299C236.227 177.115 237.338 177.264 238.237 177.107C239.135 176.949 240.046 176.596 240.932 176.811C242.297 177.143 242.987 178.633 243.456 179.957C245.809 186.6 247.407 193.525 250.334 199.936C251.429 202.333 251.082 205.325 249.468 207.409C249.269 205.755 249.547 204.045 250.259 202.538C250.594 201.828 249.478 201.361 248.692 201.363C240.689 201.384 232.652 201.407 224.738 202.594C224.496 202.63 224.24 202.674 224.059 202.84C223.884 203 223.816 203.243 223.756 203.473C223.51 204.405 223.265 205.337 223.019 206.269C222.866 206.853 222.962 207.76 223.563 207.699C231.396 206.906 239.27 206.527 247.143 206.566C247.971 206.57 249.101 206.899 248.994 207.72C240.607 207.818 232.19 207.92 223.894 209.154C222.573 209.351 221.661 207.715 221.81 206.388C221.96 205.061 222.721 203.871 222.936 202.552C223.121 201.416 222.889 200.257 222.64 199.133C222.245 197.347 221.803 195.571 221.315 193.807C220.839 192.086 220.319 190.377 219.799 188.669C219.013 186.084 218.227 183.5 217.441 180.916C216.36 182.499 215.878 184.481 216.113 186.383C216.276 187.708 216.767 188.966 217.135 190.248C217.661 192.082 217.937 193.977 218.211 195.865C218.752 199.584 219.294 203.303 219.835 207.021C219.914 207.569 219.757 208.375 219.21 208.294C216.778 200.77 217.446 192.451 214.575 185.083C215.208 183.589 215.84 182.094 216.473 180.6ZM234.588 181.965C235.381 181.524 235.791 180.495 235.519 179.63C235.248 178.764 234.323 178.155 233.42 178.246C231.207 178.47 228.994 178.695 226.782 178.919C226.577 178.94 226.349 178.973 226.226 179.138C226.129 179.268 226.127 179.443 226.137 179.605C226.195 180.616 226.546 181.609 227.136 182.432C227.594 183.072 228.228 183.838 227.87 184.539C227.423 185.415 225.954 184.924 225.589 184.01C225.225 183.097 225.484 182.066 225.416 181.085C225.349 180.104 224.643 178.975 223.674 179.138C222.083 179.406 220.493 179.673 218.902 179.941C218.674 179.98 218.376 180.121 218.443 180.342C220.38 186.753 222.316 193.163 224.253 199.574C224.494 200.373 225.038 201.362 225.851 201.172C233.311 199.43 241.176 201.077 248.75 199.933C246.482 192.818 244.134 185.728 241.708 178.666C241.637 178.457 241.555 178.236 241.378 178.105C241.181 177.961 240.916 177.966 240.672 177.976C239.536 178.024 238.4 178.072 237.263 178.121C236.814 178.14 236.201 178.354 236.3 178.793C236.608 180.169 236.917 181.546 237.226 182.922C237.279 183.159 237.331 183.412 237.243 183.638C237.003 184.254 236.097 184.098 235.492 183.832C235.096 183.658 234.679 183.466 234.434 183.109C234.189 182.752 234.209 182.176 234.588 181.965ZM231.66 171.979C230.788 171.34 229.643 170.879 228.637 171.275C228.286 171.413 227.982 171.645 227.683 171.874C227.15 172.282 226.601 172.708 226.287 173.301C225.995 173.852 225.935 174.493 225.88 175.115C225.832 175.659 225.784 176.202 225.736 176.746C225.707 177.083 225.695 177.47 225.939 177.704C226.174 177.929 226.542 177.912 226.865 177.882C229.179 177.661 231.494 177.441 233.808 177.221C234.138 177.19 234.541 177.1 234.628 176.78C234.662 176.654 234.634 176.52 234.603 176.393C234.177 174.639 233.115 173.047 231.66 171.979M230.793 177.729C230.56 177.795 230.819 178.231 230.989 178.059C231.205 177.97 230.965 177.563 230.782 177.71L230.793 177.729Z" fill="#FFB61D"/>
<path fill-rule="evenodd" clip-rule="evenodd" d="M157.415 125.701C157.375 125.565 157.455 125.423 157.55 125.319C158.017 124.805 158.797 124.767 159.491 124.765C163.696 124.756 167.901 124.746 172.107 124.736C172.403 124.735 172.72 124.741 172.961 124.912C173.203 125.083 173.297 125.486 173.065 125.67C172.942 125.768 172.772 125.774 172.614 125.776C167.729 125.83 162.843 125.884 157.958 125.938C157.745 125.941 157.476 125.905 157.415 125.701Z" fill="#00160A"/>
<path fill-rule="evenodd" clip-rule="evenodd" d="M158.974 130.042C158.72 129.896 158.755 129.488 158.968 129.288C159.181 129.088 159.492 129.041 159.782 129.006C161.523 128.796 163.274 128.68 165.023 128.565C165.987 128.502 166.951 128.438 167.915 128.375C169.168 128.292 170.421 128.21 171.675 128.127C172.073 128.101 172.517 128.089 172.817 128.353C173.117 128.616 173.044 129.249 172.645 129.274C168.222 129.548 163.799 129.822 159.376 130.096C159.239 130.104 159.093 130.111 158.974 130.042L158.974 130.042Z" fill="#00160A"/>
<path fill-rule="evenodd" clip-rule="evenodd" d="M182.683 135.761C183.017 135.126 183.38 134.46 183.994 134.089C184.609 133.719 185.552 133.796 185.883 134.433C186.236 135.11 185.712 135.927 185.096 136.379C184.481 136.832 183.724 137.151 183.324 137.801C185.485 139.225 187.646 140.649 189.807 142.073C191.5 143.189 193.415 144.782 193.069 146.779C192.866 147.95 191.873 148.86 190.768 149.297C189.662 149.734 188.447 149.78 187.259 149.814C179.275 150.044 171.282 150.003 163.301 149.692C162.747 149.671 162.129 149.619 161.76 149.206C161.475 148.885 161.416 148.428 161.369 148.001C160.91 143.753 160.451 139.505 159.991 135.256C159.974 135.1 159.958 134.936 160.014 134.788C160.251 134.168 161.178 134.55 161.697 134.964C165.372 137.897 171.246 137.552 174.552 134.21C175.351 133.403 176.711 133.507 177.737 133.994C178.763 134.481 179.622 135.273 180.652 135.753C180.542 135.157 181.067 134.529 181.672 134.532C182.277 134.534 182.797 135.166 182.683 135.761ZM183.135 138.498C182.872 137.534 181.447 137.332 180.661 137.949C179.875 138.566 179.621 139.64 179.552 140.637C179.527 141.009 178.915 141.046 178.706 140.738C178.497 140.43 178.581 140.014 178.698 139.66C179.005 138.726 179.477 137.846 180.087 137.074C180.389 136.692 179.946 136.175 179.548 135.895C178.142 134.907 176.151 133.931 174.862 135.067C171.328 138.18 165.692 138.594 161.74 136.033C161.788 139.222 162.023 142.408 162.444 145.569C162.486 145.888 162.541 146.228 162.761 146.462C163.052 146.772 163.528 146.794 163.954 146.794C170.818 146.803 177.682 146.812 184.545 146.82C185.213 146.821 186.121 146.583 186.069 145.917C185.948 144.367 186.634 142.776 187.844 141.801C186.892 141.109 185.941 140.418 184.989 139.726C184.698 139.515 184.394 139.299 184.04 139.238C182.972 139.055 182.259 140.279 181.881 141.295C181.302 140.26 181.977 138.755 183.135 138.498ZM165.195 149.079C172.343 149.135 179.491 149.123 186.639 149.044C188.668 149.021 191.037 148.815 192.137 147.11C182.267 147.543 172.383 147.651 162.506 147.431C162.383 148.617 164.003 149.07 165.195 149.079M189.657 142.708C189.444 142.573 189.224 142.436 188.976 142.393C188.228 142.265 187.637 143.012 187.312 143.698C187.124 144.095 186.961 144.504 186.823 144.921C186.719 145.238 186.628 145.576 186.694 145.904C186.76 146.232 187.029 146.543 187.363 146.546C188.579 146.56 189.794 146.547 191.009 146.508C191.296 146.498 191.607 146.478 191.822 146.288C192.074 146.064 192.105 145.678 192.042 145.346C191.813 144.147 190.689 143.362 189.657 142.708ZM185.363 134.949C185.35 134.579 184.856 134.391 184.514 134.533C184.172 134.676 183.962 135.016 183.775 135.335C183.548 135.721 183.321 136.107 183.094 136.493C182.976 136.696 182.911 137.04 183.14 137.091C183.743 136.589 184.347 136.088 184.95 135.586C185.152 135.418 185.373 135.211 185.363 134.949ZM181.453 135.552C181.35 136.051 181.606 136.603 182.054 136.847C182.209 136.332 182.118 135.75 181.813 135.308C181.795 135.182 181.625 135.11 181.522 135.183C181.442 135.284 181.414 135.423 181.447 135.547L181.453 135.552Z" fill="#00160A"/>
<path fill-rule="evenodd" clip-rule="evenodd" d="M156.877 120.834C156.696 119.955 156.515 119.077 156.333 118.199C156.263 117.858 156.198 117.479 156.377 117.18C156.621 116.772 157.179 116.718 157.655 116.709C169.322 116.506 180.993 116.551 192.658 116.843C193.454 116.863 194.107 117.55 194.349 118.308C194.591 119.067 194.512 119.885 194.43 120.677C194.385 121.105 194.314 121.582 193.973 121.844C193.694 122.058 193.312 122.064 192.96 122.06C181.243 121.932 169.527 121.804 157.81 121.676C157.617 121.674 157.413 121.669 157.25 121.566C157.011 121.416 156.934 121.11 156.877 120.834ZM158.489 117.48C157.626 117.474 157.015 118.498 157.23 119.333C157.446 120.168 158.253 120.743 159.091 120.946C159.929 121.149 160.807 121.051 161.665 120.971C172.246 119.982 182.946 121.872 193.519 120.805C193.574 120.162 193.627 119.497 193.42 118.885C193.213 118.274 192.673 117.726 192.027 117.721C180.848 117.641 169.668 117.56 158.489 117.48Z" fill="#00160A"/>
<path fill-rule="evenodd" clip-rule="evenodd" d="M86.5264 146.27C86.1359 147.011 85.5974 147.762 84.7901 147.983C83.2523 148.402 81.9808 146.695 81.5611 145.157C80.906 142.757 81.0717 140.14 82.0245 137.841C82.5342 136.612 82.1094 135.158 81.3102 134.093C79.8029 132.085 76.9912 131.206 74.5753 131.889C72.1593 132.572 70.2529 134.721 69.7475 137.18C69.6683 137.565 69.7242 138.106 70.1135 138.161C72.0552 138.433 72.9466 140.711 73.2422 142.65C73.4679 144.13 73.566 145.68 73.064 147.091C72.562 148.501 71.3334 149.74 69.8406 149.853C68.501 148.951 67.4925 147.569 67.0426 146.017C66.206 143.133 67.2929 140.075 68.415 137.289C69.0998 135.588 69.835 133.847 71.136 132.556C73.9168 129.795 79.1095 130.123 81.5213 133.211C82.449 134.399 82.9813 135.875 84.0094 136.977C84.7844 137.808 85.809 138.389 86.516 139.279C88.0515 141.211 87.6781 144.088 86.5264 146.27ZM67.8934 140.937C67.1893 142.878 67.3854 145.125 68.4151 146.914C68.5843 147.208 68.7855 147.5 69.0811 147.667C69.3767 147.833 69.7887 147.835 70.0224 147.59C70.7226 146.853 70.8102 145.74 70.8079 144.724C70.8051 143.522 70.731 142.321 70.5861 141.128C70.5268 140.64 70.4256 140.1 70.0307 139.807C69.6359 139.514 68.8946 139.759 68.9566 140.247C69.1371 141.667 69.3175 143.087 69.4979 144.506C69.539 144.829 69.5751 145.179 69.4133 145.461C69.2514 145.743 68.8044 145.875 68.5996 145.622C68.0685 144.539 67.9084 143.278 68.1518 142.096C68.2393 141.671 68.2997 141.089 67.8934 140.937M84.1474 146.568C84.3268 146.428 84.4106 146.2 84.4776 145.983C85.004 144.273 85.0096 142.407 84.4935 140.695C84.2973 140.044 83.7656 139.282 83.1216 139.5C82.7494 139.626 82.5607 140.034 82.4422 140.408C81.9037 142.111 81.9753 143.999 82.6412 145.656C82.7688 145.973 82.9266 146.294 83.1969 146.504C83.4672 146.714 83.8777 146.778 84.1474 146.568ZM71.5097 140.424C71.9789 142.802 71.8791 145.29 71.2211 147.622C71.1605 147.837 71.4039 148.004 71.6079 148.095C72.595 145.701 72.72 142.961 71.955 140.487C71.8282 140.397 71.6567 140.372 71.5097 140.424ZM85.2047 139.782C85.0589 140.015 84.9131 140.248 84.7672 140.48C85.2479 140.399 85.4679 141.055 85.4936 141.542C85.5531 142.667 85.6125 143.792 85.672 144.918C86.1197 144.75 86.2008 144.162 86.2091 143.684C86.2279 142.607 86.2466 141.531 86.2654 140.454C86.1042 140.435 85.943 140.416 85.7818 140.397C85.7652 140.092 85.508 139.818 85.2047 139.782Z" fill="#00160A"/>
<path fill-rule="evenodd" clip-rule="evenodd" d="M137.986 141.824C134.778 141.671 131.556 141.81 128.374 142.239C128.092 142.277 127.777 142.31 127.551 142.138C127.324 141.966 127.349 141.51 127.632 141.479C130.814 141.129 134.011 140.904 137.211 140.805C137.559 140.794 137.949 140.8 138.197 141.044C138.445 141.289 138.333 141.841 137.986 141.824Z" fill="#00160A"/>
<path fill-rule="evenodd" clip-rule="evenodd" d="M63.4749 129.016C64.3855 128.931 65.2961 128.845 66.2067 128.76C66.6654 128.717 67.1241 128.674 67.5828 128.631C70.5006 128.356 73.4185 128.082 76.3389 127.839C76.4536 127.829 76.5734 127.82 76.6797 127.864C76.9957 127.996 76.9471 128.506 76.6717 128.709C76.3963 128.912 76.0238 128.901 75.6818 128.889C71.3808 128.746 67.0945 130.039 62.8134 129.602C62.5352 129.573 62.1713 129.43 62.2204 129.155C62.6369 129.095 63.056 129.056 63.4749 129.016Z" fill="#00160A"/>
<path fill-rule="evenodd" clip-rule="evenodd" d="M161.554 223.533C161.411 222.28 161.308 220.917 160.466 219.979C159.82 219.259 160.154 217.921 161.063 217.59C161.972 217.258 163.089 218.067 163.057 219.034C163.046 219.366 162.925 219.683 162.831 220.002C162.189 222.177 162.785 224.518 163.571 226.646C164.366 228.801 165.584 231.094 167.769 231.803C170.297 232.622 173.094 230.809 174.214 228.399C175.335 225.99 175.164 223.192 174.773 220.564C174.734 220.3 174.663 219.996 174.421 219.884C173.438 219.43 173.288 217.835 174.17 217.206C175.053 216.578 176.511 217.24 176.619 218.317C176.656 218.683 176.563 219.047 176.493 219.408C176.01 221.911 176.649 224.535 176.12 227.029C175.788 228.59 174.993 230.05 173.862 231.176C172.663 232.37 171.043 233.193 169.351 233.222C167.072 233.261 164.941 231.848 163.653 229.967C162.365 228.087 161.813 225.797 161.554 223.533Z" fill="#00160A"/>
<path fill-rule="evenodd" clip-rule="evenodd" d="M95.1045 120.697C95.1678 121.555 95.2283 122.439 94.9609 123.256C94.6936 124.074 94.0142 124.819 93.1571 124.893C88.7385 125.273 84.3192 125.653 79.8921 125.915C73.8553 126.272 67.808 126.409 61.7623 126.547C61.5467 126.552 61.3158 126.553 61.1358 126.434C60.8657 126.255 60.8151 125.887 60.7901 125.564C60.7248 124.719 60.6594 123.874 60.594 123.029C60.5742 122.772 60.5591 122.494 60.6976 122.277C60.9004 121.958 61.3348 121.903 61.7118 121.881C72.8312 121.222 83.9663 120.827 95.1045 120.697ZM93.2442 123.661C93.9546 123.614 94.0984 122.496 93.5775 122.011C93.0566 121.525 92.2656 121.515 91.5538 121.532C82.4027 121.76 73.2481 121.987 64.1152 122.608C63.4575 122.653 62.7733 122.708 62.2047 123.041C61.6361 123.375 61.2256 124.077 61.4428 124.699C61.7514 125.583 62.9444 125.681 63.8788 125.618C73.6673 124.966 83.4557 124.314 93.2442 123.661Z" fill="#00160A"/>
<path fill-rule="evenodd" clip-rule="evenodd" d="M83.7427 142.053C83.7514 142.285 83.7602 142.518 83.769 142.75C83.7872 143.234 83.8053 143.721 83.7354 144.2C83.1287 144.136 82.9406 143.355 82.9052 142.746C82.8883 142.457 82.8827 142.133 83.0768 141.917C83.2708 141.701 83.7317 141.763 83.7427 142.053L83.7427 142.053Z" fill="#00160A"/>
<path fill-rule="evenodd" clip-rule="evenodd" d="M127.435 144.034C128.03 143.484 128.935 143.502 129.745 143.525C132.307 143.597 134.877 143.399 137.398 142.935C137.695 142.88 137.855 143.342 137.67 143.581C137.485 143.82 137.15 143.87 136.849 143.9C134.008 144.189 131.155 144.361 128.3 144.414C127.96 144.42 127.528 144.361 127.435 144.034Z" fill="#00160A"/>
<path fill-rule="evenodd" clip-rule="evenodd" d="M223.085 153.64C222.804 154.59 221.871 155.178 220.98 155.613C216.525 157.792 211.287 158.326 206.484 157.09C204.871 156.674 203.033 155.714 202.964 154.05C202.913 152.826 203.89 151.801 204.924 151.145C206.511 150.139 208.36 149.631 210.204 149.273C213.762 148.581 217.619 148.439 220.839 150.101C222.188 150.797 223.515 152.184 223.085 153.64ZM204.064 153.865C204.067 155.209 205.566 155.996 206.867 156.337C211.382 157.521 216.321 157.01 220.498 154.926C221.169 154.592 221.876 154.151 222.089 153.433C222.375 152.468 221.628 151.497 220.798 150.927C218.302 149.212 215.001 149.446 211.989 149.769C209.566 150.028 206.984 150.367 205.136 151.957C204.566 152.448 204.062 153.111 204.064 153.865L204.064 153.865Z" fill="#00160A"/>
<path fill-rule="evenodd" clip-rule="evenodd" d="M91.9954 74.9019C91.8434 74.0377 92.4394 73.179 93.2073 72.7545C93.9753 72.3301 94.8804 72.2482 95.7563 72.1967C103.566 71.7372 111.363 72.9914 119.175 73.4037C120.18 73.4567 121.24 73.5123 122.086 74.0585C122.932 74.6048 123.428 75.8306 122.843 76.6501C122.56 77.0463 122.092 77.2665 121.628 77.4131C120.289 77.8362 118.852 77.7801 117.448 77.7198C110.145 77.4058 102.842 77.0918 95.5389 76.7779C94.0889 76.7155 92.2467 76.3312 91.9954 74.9019M92.9977 73.6496C92.585 74.2311 92.9304 75.0988 93.5266 75.49C94.1228 75.8812 94.874 75.9253 95.5864 75.9574C103.326 76.3057 111.066 76.654 118.806 77.0023C119.56 77.0363 120.396 77.0437 120.967 76.5504C121.538 76.057 121.463 74.8803 120.717 74.7618C112.111 73.3934 103.377 72.8251 94.6655 73.0666C94.0538 73.0836 93.3518 73.1506 92.9977 73.6496" fill="#00160A"/>
<path fill-rule="evenodd" clip-rule="evenodd" d="M177.631 67.4023C178.819 64.927 180.745 62.3754 183.483 62.1644C185.307 62.0238 187.241 62.3427 188.685 63.4663C191.302 65.504 191.485 69.4554 190.549 72.6381C189.447 76.3894 186.986 79.8639 183.457 81.5464C182.615 81.9477 181.699 82.2477 180.767 82.2111C178.291 82.1139 176.488 79.6812 175.955 77.261C175.224 73.9441 176.162 70.4644 177.631 67.4023M180.711 81.305C182.541 81.5543 184.266 80.3884 185.557 79.0674C187.977 76.5914 189.602 73.3496 190.137 69.9289C190.292 68.9431 190.356 67.9202 190.088 66.9592C189.56 65.0688 187.768 63.7027 185.845 63.3096C183.996 62.9317 181.964 63.3826 180.539 64.6198C179.854 65.2143 179.322 65.9652 178.857 66.7443C177.342 69.2856 176.481 72.2428 176.586 75.1997C176.634 76.5355 176.887 77.8933 177.563 79.0463C178.239 80.1992 179.386 81.1247 180.711 81.305Z" fill="#FFB61D"/>
<path fill-rule="evenodd" clip-rule="evenodd" d="M117.604 172.459C117.847 172.446 118.108 172.438 118.314 172.568C118.569 172.729 118.662 173.049 118.735 173.341C118.896 173.981 119.058 174.646 118.928 175.293C118.799 175.94 118.289 176.561 117.63 176.589C115.949 176.663 114.269 176.736 112.588 176.81C111.929 176.839 111.157 176.933 110.829 177.505C110.607 177.893 110.673 178.375 110.746 178.816C110.952 180.067 111.534 181.647 112.801 181.602C113.643 181.571 114.394 182.21 114.756 182.971C115.119 183.732 115.173 184.598 115.221 185.44C115.267 186.232 115.065 187.315 114.272 187.334C113.632 187.35 113.455 188.215 113.476 188.854C113.617 193.302 113.758 197.751 113.9 202.199C113.922 202.916 113.004 203.217 112.29 203.289C106.312 203.892 100.27 203.877 94.2948 203.242C94.0805 203.219 93.8069 203.135 93.8021 202.919C93.6915 197.893 93.5809 192.867 93.4703 187.841C93.4639 187.548 93.3201 187.143 93.0375 187.22C92.147 187.464 91.2516 186.637 91.0672 185.733C90.8828 184.828 91.1991 183.905 91.5108 183.036C91.6549 182.634 91.8166 182.208 92.1613 181.956C92.8973 181.419 94.2577 181.802 94.5873 180.952C94.6418 180.811 94.6523 180.658 94.6471 180.507C94.601 179.195 93.3788 178.159 92.0913 177.899C90.8038 177.64 89.4767 177.981 88.2229 178.372C87.9356 177.288 87.8619 176.147 88.0074 175.035C88.0418 174.773 88.0952 174.497 88.2715 174.299C88.523 174.018 88.9419 173.979 89.3188 173.959C98.7472 173.459 108.176 172.959 117.604 172.459ZM92.466 182.642C92.2847 182.853 92.2445 183.146 92.2119 183.422C92.1268 184.141 92.0417 184.86 91.9565 185.579C91.9386 185.731 91.9219 185.89 91.9828 186.03C92.1134 186.329 92.5081 186.38 92.8342 186.388C94.565 186.431 96.2958 186.474 98.0267 186.517C98.3185 186.525 98.6248 186.529 98.884 186.394C99.3009 186.178 99.4722 185.591 99.2369 185.185C99.4487 185.163 99.6605 185.142 99.8724 185.12C99.779 185.747 100.418 186.272 101.045 186.364C101.673 186.457 102.303 186.265 102.935 186.215C104.26 186.11 105.584 186.63 106.904 186.474C107.043 186.458 107.191 186.429 107.288 186.328C107.415 186.197 107.413 185.991 107.402 185.808C107.352 184.932 107.302 184.055 107.252 183.179C107.237 182.903 107.213 182.606 107.036 182.394C106.782 182.092 106.329 182.082 105.934 182.097C104.029 182.171 102.123 182.245 100.218 182.319C100.085 182.324 99.9374 182.335 99.8452 182.431C99.7418 182.539 99.7491 182.708 99.763 182.856C99.8271 183.538 99.8911 184.22 99.9551 184.902C99.7023 184.926 99.4543 185 99.2294 185.119C99.1731 184.581 99.1169 184.044 99.0606 183.506C99.0093 183.016 98.8173 182.389 98.3248 182.382C96.7521 182.361 95.1794 182.34 93.6067 182.319C93.1979 182.314 92.7328 182.332 92.466 182.642ZM101.527 187.929C101.501 187.567 101.344 187.088 100.983 187.127C98.7407 187.368 96.4708 187.354 94.2314 187.086C94.2866 191.966 94.3775 196.845 94.5041 201.724C94.5204 202.352 95.3129 202.603 95.9376 202.667C97.7937 202.857 99.6627 202.922 101.527 202.861C101.68 202.856 101.846 202.846 101.962 202.746C102.115 202.616 102.125 202.388 102.123 202.187C102.07 197.429 101.871 192.674 101.527 187.929ZM112.742 187.66C112.681 187.555 112.541 187.533 112.42 187.523C110.49 187.359 108.551 187.313 106.616 187.385C106.441 187.392 106.253 187.404 106.115 187.511C105.904 187.674 105.891 187.982 105.897 188.249C106.003 193.119 106.11 197.99 106.217 202.86C108.347 203.066 110.515 202.865 112.571 202.271C112.699 202.234 112.835 202.19 112.917 202.085C113.006 201.973 113.012 201.818 113.014 201.674C113.055 198.541 112.974 195.407 112.893 192.274C112.855 190.798 112.816 189.322 112.778 187.847C112.777 187.782 112.774 187.715 112.742 187.66ZM88.8208 175.313C88.4509 175.895 88.8485 176.716 89.4564 177.041C90.0643 177.366 90.7928 177.334 91.481 177.294C95.6441 177.053 99.8072 176.812 103.97 176.57C107.941 176.34 111.911 176.11 115.875 175.788C116.455 175.74 117.065 175.681 117.545 175.351C118.025 175.02 118.303 174.322 117.982 173.836C117.659 173.349 116.965 173.327 116.381 173.357C107.731 173.803 99.0804 174.249 90.4299 174.695C89.8323 174.726 89.1419 174.808 88.8208 175.313M105.461 202.746C105.168 197.992 105.11 193.223 105.287 188.463C105.297 188.19 105.306 187.905 105.197 187.654C104.879 186.922 103.854 186.924 103.064 187.046C102.703 187.102 102.242 187.274 102.269 187.639C102.608 192.192 102.946 196.753 102.87 201.318C102.86 201.922 103.206 202.52 103.736 202.811C104.265 203.103 104.955 203.077 105.461 202.746ZM114.395 185.195C114.292 184.566 114.185 183.924 113.878 183.366C113.572 182.808 113.023 182.341 112.388 182.309C111.18 182.249 109.972 182.189 108.764 182.128C108.449 182.113 108.015 182.208 108.03 182.522C108.076 183.478 108.122 184.434 108.168 185.39C108.188 185.807 108.266 186.311 108.652 186.469C108.777 186.52 108.915 186.524 109.05 186.527C110.625 186.563 112.2 186.599 113.775 186.635C114.075 186.642 114.327 186.378 114.409 186.089C114.492 185.799 114.444 185.491 114.395 185.195ZM106.769 180.484C106.612 179.82 106.447 179.141 106.07 178.572C105.693 178.004 105.052 177.56 104.372 177.61C103.323 177.687 102.275 177.764 101.226 177.841C100.573 177.889 99.8327 177.983 99.4497 178.515C98.9866 179.157 99.3042 180.054 99.1791 180.837C99.1352 181.111 99.3499 181.375 99.6069 181.481C99.864 181.588 100.153 181.576 100.431 181.561C102.308 181.465 104.185 181.368 106.063 181.272C106.338 181.257 106.669 181.207 106.779 180.954C106.842 180.807 106.806 180.639 106.769 180.484ZM110.059 179.281C109.702 178.792 109.711 178.067 110.08 177.587C109.422 177.178 108.5 177.254 107.918 177.764C107.335 178.275 107.139 179.178 107.457 179.884C107.569 180.133 107.505 180.428 107.584 180.689C107.696 181.061 108.085 181.294 108.47 181.341C108.855 181.389 109.241 181.288 109.616 181.188C110.107 181.056 110.705 180.794 110.701 180.285C110.697 179.879 110.298 179.609 110.059 179.281ZM98.3277 181.023C98.5457 180.31 98.2525 179.497 97.6927 179.004C97.133 178.512 96.349 178.32 95.6063 178.386C95.3079 178.413 94.9966 178.487 94.7807 178.695C94.5648 178.903 94.4874 179.276 94.6821 179.504C94.8259 179.672 95.072 179.722 95.2224 179.884C95.4521 180.132 95.3746 180.528 95.4798 180.849C95.7174 181.574 96.702 181.642 97.4619 181.573C97.722 181.549 98.0091 181.512 98.1802 181.315C98.2522 181.232 98.2956 181.128 98.3277 181.023ZM98.4508 178.624C98.627 178.454 98.6589 178.154 98.5226 177.951C98.2193 177.86 97.88 178.041 97.7204 178.314C97.8391 178.586 98.1725 178.743 98.4575 178.661M107.108 177.867C107.153 177.748 107.126 177.606 107.043 177.51C106.755 177.419 106.42 177.501 106.206 177.714C106.426 177.963 106.826 178.031 107.116 177.867L107.108 177.867Z" fill="#00160A"/>
<path fill-rule="evenodd" clip-rule="evenodd" d="M223.168 157.656C213.938 161.265 204.709 164.874 195.48 168.483C191.51 170.036 186.917 172.366 186.491 176.607C191.884 172.458 198.546 169.982 205.34 169.601C200.646 175.515 194.72 180.445 188.051 183.984C182.062 187.162 174.479 190.552 173.965 197.312C180.398 189.653 190.287 185.016 200.289 184.97C193.89 194.342 183.629 200.989 172.461 202.999C172.844 205.879 173.227 208.759 173.611 211.639C177.405 211.505 181.223 212.047 184.83 213.234C187.399 224.27 189.968 235.305 192.536 246.34C193.168 249.056 193.725 252.176 192.062 254.414C190.412 256.635 187.297 257.017 184.538 257.213C173.664 257.986 162.79 258.759 151.916 259.532C150.614 253.633 149.312 247.735 148.01 241.837C129.668 243.54 111.326 245.243 92.9838 246.946C89.1211 247.305 85.0359 247.626 81.5406 245.944C68.8628 239.84 53.4905 251.654 40.1002 247.332C51.865 247.11 63.5935 245.058 74.7347 241.272C78.7752 239.899 83.613 236.138 81.5019 232.429C71.1699 239.638 57.913 242.516 45.5217 240.24C46.2493 228.207 45.7814 216.101 44.1272 204.16C52.944 202.898 61.633 200.746 70.0189 197.745C72.3516 196.91 74.7513 195.95 76.4124 194.112C78.0735 192.274 78.7451 189.304 77.2856 187.302C64.5308 194.099 49.804 197.141 35.4002 195.954C36.1518 212.251 36.9034 228.549 37.655 244.847C35.526 228.561 34.3969 212.144 34.2762 195.72C41.6907 195.062 49.1051 194.405 56.5195 193.748C55.3274 188.455 54.1277 183.042 54.7401 177.651C55.3525 172.261 58.1268 166.802 63.0032 164.425C59.314 156.556 53.7384 149.58 46.8767 144.247C38.8328 137.995 28.4908 133.281 24.8175 123.779C22.3887 117.496 23.58 110.187 26.9431 104.351C30.3061 98.5143 35.6351 94.0184 41.4272 90.5792C33.4529 88.5295 27.4128 80.5806 27.5744 72.3487C27.736 64.1168 34.0835 56.4111 42.132 54.6759C38.3373 50.1539 32.362 48.0812 27.9975 44.1064C22.9131 39.4759 20.3582 32.0066 22.2102 25.3838C24.0623 18.761 30.5831 13.5502 37.4537 13.8439C43.0973 14.085 48.0638 17.6545 52.0032 21.7029C58.1127 27.9815 62.6565 35.7724 65.1131 44.1815C66.7505 49.7864 72.7514 52.6378 77.8192 55.5385C82.8871 58.4391 88.1499 63.4917 86.7221 69.1537C84.8344 61.4059 78.4956 54.9115 70.7958 52.8366C66.7837 51.7554 65.3215 46.981 64.031 43.0313C61.5196 35.3453 57.2325 28.2456 51.5998 22.4444C47.3667 18.0847 41.8323 14.2804 35.7644 14.6079C29.518 14.9451 24.0116 20.0262 22.5835 26.1166C21.1554 32.2069 23.5498 38.8804 28.1076 43.165C32.75 47.5292 39.3915 49.667 43.1343 54.8235C35.0167 56.4732 28.5991 64.2852 28.5564 72.5686C28.5138 80.852 34.8507 88.7296 42.9509 90.4628C37.2425 93.8042 31.9011 98.0488 28.3793 103.648C24.8574 109.246 23.3477 116.353 25.455 122.622C30.3291 137.124 50.6444 140.585 57.8136 154.1C59.7553 147.723 56.9091 141.017 55.4462 134.513C53.9833 128.009 54.8102 119.657 60.8742 116.887C59.102 108.345 57.3297 99.8032 55.5575 91.2614C54.2369 84.8964 53.5743 76.8323 59.0499 73.3285C55.1919 72.132 51.7678 69.5834 49.5144 66.2311C51.9479 69.956 56.6348 72.0695 61.0376 71.4273C55.4738 59.3665 49.3048 47.5848 42.5614 36.1416C49.8275 47.0977 56.2582 58.6076 61.7793 70.5386C87.3151 69.8477 112.891 70.6344 138.336 72.8935C141.714 73.1935 145.35 73.6301 147.848 75.925C151.436 79.223 156.825 80.4258 161.475 78.9672C162.955 82.6353 164.044 86.7554 162.786 90.5053C161.528 94.2552 157.073 97.1174 153.511 95.3972C154.441 100.18 155.37 104.963 156.3 109.745C165.406 109.855 174.511 110.041 183.614 110.303C188.438 110.442 193.481 110.662 197.674 113.052C201.867 115.442 204.826 120.737 202.958 125.187C204.149 121.509 205.341 117.831 206.532 114.153C210.731 120.818 212.793 128.807 212.344 136.671C213.799 134.458 215.254 132.245 216.708 130.032C211.54 121.898 210.883 111.089 215.026 102.389C219.09 109.118 221.378 116.908 221.601 124.766C223.116 110.604 233.15 97.6935 246.499 92.7283C244.183 98.065 241.867 103.402 239.551 108.738C237.568 113.308 235.049 118.376 230.285 119.827C227.141 120.785 222.59 120.727 222.02 123.963C231.048 121.595 240.657 121.478 249.739 123.625C242.741 132.039 229.253 134.111 220.052 128.185C215.71 133.027 211.949 138.388 208.874 144.118C214.098 137.625 222.228 133.565 230.557 133.289C226.082 138.577 221.035 143.381 215.532 147.589C218.452 147.87 221.61 148.255 223.729 150.285C225.848 152.315 225.9 156.587 223.168 157.656ZM101.34 104.36C103.761 104.332 106.472 104.418 108.162 106.151C109.451 107.474 109.796 109.424 110.077 111.249C111.362 119.596 112.566 127.956 113.687 136.327C113.968 138.426 112.208 140.364 110.197 141.03C108.186 141.695 105.999 141.403 103.902 141.104C105.651 139.595 108.603 140.677 110.485 139.338C112.172 138.137 112.163 135.67 111.961 133.609C111.203 125.879 110.171 118.176 108.868 110.52C108.637 109.166 108.355 107.727 107.396 106.744C106.12 105.435 104.08 105.348 102.251 105.346C94.747 105.337 87.2425 105.327 79.738 105.318C78.4445 105.316 77.0836 105.332 75.9607 105.974C72.7294 107.821 73.9206 112.699 75.5269 116.056C80.0774 115.133 84.727 114.701 89.3696 114.768C93.4825 114.828 98.6114 116.164 99.3049 120.218C100.829 129.125 102.352 138.033 103.876 146.94C104.675 151.61 105.115 157.284 101.383 160.203C99.5178 161.661 97.0428 162.009 94.6939 162.306C88.9185 163.036 83.1431 163.766 77.3677 164.497C79.7731 185.558 82.1786 206.62 84.584 227.681C84.8523 230.031 85.3435 232.731 87.4091 233.882C88.6311 234.562 90.1135 234.507 91.5101 234.43C109.912 233.427 128.296 232.098 146.651 230.444C145.917 228.772 145.903 226.797 146.612 225.113C148.471 235.997 150.33 246.881 152.189 257.765C155.444 255.521 154.944 250.651 154.08 246.793C151.892 237.026 149.704 227.259 147.516 217.492C146.63 219.117 145.745 220.742 144.859 222.367C144.424 220.338 145.641 218.239 147.33 217.033C149.018 215.826 151.099 215.332 153.128 214.897C159.365 213.56 165.67 212.538 172.011 211.838C170.168 198.84 168.326 185.841 166.483 172.843C155.155 175.954 143.158 174.975 131.453 173.972C127.986 173.675 123.58 172.508 123.249 169.044C122.418 160.336 121.587 151.629 120.756 142.921C120.648 141.786 119.99 140.257 118.907 140.614C116.246 141.493 114.664 137.702 114.446 134.908C113.763 126.145 113.08 117.382 112.396 108.619C112.307 107.47 112.283 106.144 113.14 105.373C113.74 104.833 114.605 104.734 115.408 104.661C121.142 104.137 126.876 103.612 132.61 103.088C135.884 102.789 139.603 102.634 141.986 104.9C143.667 106.499 144.232 108.924 144.587 111.217C145.241 115.444 145.457 119.738 145.232 124.009C144.778 119.834 144.323 115.659 143.869 111.484C143.664 109.606 143.415 107.614 142.228 106.144C140.203 103.634 136.434 103.676 133.22 103.941C127.479 104.413 121.737 104.886 115.996 105.358C115.223 105.422 114.384 105.513 113.822 106.048C113.091 106.744 113.112 107.895 113.185 108.902C113.8 117.371 114.415 125.839 115.03 134.308C115.147 135.906 115.305 137.615 116.315 138.859C117.326 140.103 119.518 140.493 120.462 139.198C119.169 136.355 120.958 132.873 123.606 131.216C126.255 129.558 129.505 129.267 132.619 129.018C137.99 128.59 143.361 128.161 148.732 127.733C148.364 116.616 147.165 105.527 145.149 94.5883C143.291 94.0687 141.6 92.9708 140.369 91.4856C139.448 93.8583 136.704 95.3662 134.208 94.8719C131.711 94.3776 129.749 91.9381 129.801 89.3935C129.505 92.3218 126.954 94.8618 124.024 95.145C121.095 95.4283 118.104 93.4241 117.253 90.6068C115.85 92.1715 114.029 93.5197 111.936 93.7102C109.843 93.9007 107.528 92.5791 107.188 90.5053C104.439 94.071 98.0517 93.7093 95.7233 89.856C93.3285 93.8083 86.5106 93.7112 84.2293 89.6922C83.2049 93.4077 77.4867 93.705 74.7419 90.9994C71.997 88.2938 71.4627 84.1258 71.0808 80.2907C66.5501 84.6561 65.7327 91.669 66.5926 97.9016C67.4525 104.134 69.6934 110.138 70.237 116.406C71.4783 116.718 72.8397 116.521 73.9415 115.87C72.7514 112.273 71.9687 107.441 75.1995 105.463C76.4955 104.669 78.0991 104.629 79.6186 104.611C86.8591 104.527 94.0997 104.444 101.34 104.36ZM173.067 164.888C182.565 164.416 192.363 165.654 201.389 162.661C202.785 162.197 204.216 161.587 205.116 160.423C202.811 159.363 200.362 157.536 200.419 154.999C200.456 153.333 201.61 151.893 202.911 150.851C204.276 149.757 205.866 148.945 207.552 148.48C207.689 148.062 206.955 147.972 206.591 148.218C206.228 148.465 205.676 148.77 205.434 148.404C205.369 148.305 205.356 148.182 205.344 148.065C204.438 138.846 203.096 129.669 201.323 120.577C200.79 117.843 199.998 114.798 197.588 113.401C196.287 112.646 194.728 112.52 193.228 112.416C181.933 111.635 170.618 111.156 159.298 110.981C156.623 110.939 153.63 111.039 151.755 112.947C150.332 114.395 149.924 116.544 149.774 118.569C149.307 124.836 150.649 131.075 151.523 137.299C152.568 144.754 152.945 152.285 153.635 159.782C153.727 160.78 153.838 161.819 154.378 162.664C155.303 164.111 157.181 164.565 158.882 164.803C161.395 165.155 163.936 165.304 166.472 165.248C168.674 165.199 170.868 164.997 173.067 164.888ZM95.1192 116.527C91.9039 115.113 88.2212 115.492 84.7325 115.897C79.4552 116.509 74.1779 117.122 68.9006 117.735C66.3642 118.029 63.8252 118.324 61.3159 118.797C60.711 118.911 60.104 119.037 59.5333 119.268C57.2967 120.172 55.9632 122.583 55.653 124.976C55.3427 127.368 55.8745 129.78 56.3842 132.138C57.9684 139.466 59.3735 146.862 59.7546 154.35C59.8301 155.832 59.868 157.334 60.2754 158.762C60.6828 160.189 61.5147 161.562 62.8154 162.277C63.8159 162.827 64.9914 162.941 66.1307 163.016C76.5733 163.702 87.0103 162.018 97.34 160.339C98.8097 160.101 100.356 159.828 101.502 158.877C103.271 157.408 103.535 154.824 103.523 152.525C103.499 148.278 102.985 144.034 101.994 139.904C100.834 135.074 99.0136 130.323 98.9654 125.356C98.9441 123.165 99.2317 120.805 98.0886 118.936C97.4132 117.831 96.3043 117.048 95.1192 116.527ZM45.4279 208.5C46.8317 218.586 47.3033 228.802 46.8348 238.975C46.8101 239.511 47.4617 239.784 47.9889 239.885C54.7418 241.176 61.6962 239.522 68.2488 237.441C71.9737 236.259 75.7016 234.911 78.9231 232.698C80.3968 231.686 81.888 230.161 81.6125 228.394C79.8421 217.045 78.8684 205.573 78.7008 194.088C72.7385 198.747 65.1724 200.723 57.8395 202.589C54.3639 203.473 50.8413 204.363 47.2552 204.333C46.3884 204.326 45.6686 205.088 45.4263 205.92C45.184 206.752 45.3084 207.641 45.4279 208.5ZM182.476 213.599C171.308 212.511 159.915 213.788 149.264 217.322C149.904 222.186 150.778 227.02 151.882 231.801C152.324 233.715 152.803 235.621 153.281 237.526C154.214 241.237 155.147 244.948 156.079 248.659C156.209 249.175 156.372 249.74 156.817 250.032C157.214 250.293 157.728 250.263 158.202 250.223C169.23 249.304 180.252 248.307 191.266 247.234C188.858 236.501 186.451 225.768 184.043 215.035C183.95 214.622 183.839 214.178 183.511 213.912C183.227 213.681 182.84 213.634 182.476 213.599ZM166.013 166.482C163.582 166.606 161.116 166.727 158.743 166.188C156.37 165.649 154.061 164.355 152.842 162.249C152.143 163.054 150.752 163.115 149.986 162.373C149.219 161.632 149.233 160.24 150.014 159.514C146.927 159.542 143.84 159.57 140.753 159.598C142.164 160.429 142.048 162.879 140.589 163.623C139.131 164.368 137.112 163.111 137.078 161.473C137.063 160.739 137.514 159.914 138.246 159.848C137.942 159.327 137.154 159.635 136.555 159.579C135.651 159.493 135.158 158.509 134.841 157.658C133.555 154.21 132.386 150.72 131.217 147.23C132.035 148.57 133.879 149.173 135.331 148.576C135.844 148.365 135.86 147.627 135.642 147.117C135.26 146.226 134.391 145.54 133.425 145.464C132.46 145.388 131.455 145.979 131.128 146.891C130.644 146.529 130.85 145.692 131.358 145.364C131.866 145.036 132.516 145.065 133.119 145.101C138.814 145.445 144.529 145.44 150.222 145.085C150.481 145.069 150.767 145.04 150.944 144.85C151.143 144.635 151.124 144.303 151.092 144.011C150.875 142.008 150.657 140.005 150.44 138.003C150.415 137.781 150.381 137.538 150.215 137.388C150.032 137.223 149.757 137.231 149.511 137.248C142.375 137.757 135.256 138.525 128.175 139.551C127.422 139.66 126.72 139.028 126.483 138.304C126.245 137.581 126.355 136.794 126.467 136.041C126.506 135.777 126.557 135.491 126.753 135.309C126.933 135.141 127.194 135.102 127.438 135.071C134.805 134.13 142.22 133.566 149.645 133.381C149.465 134.114 148.508 134.272 147.753 134.286C140.862 134.408 133.979 134.961 127.157 135.939C126.613 136.87 127.359 138.125 128.365 138.517C129.37 138.908 130.497 138.699 131.557 138.499C137.402 137.399 143.332 136.751 149.277 136.562C150.125 136.535 150.227 135.314 150.049 134.484C149.634 132.556 149.22 130.628 148.806 128.7C144.689 129.479 140.484 129.79 136.297 129.625C133.82 129.527 131.356 129.96 128.914 130.391C126.84 130.758 124.628 131.192 123.129 132.673C121.376 134.403 121.062 137.108 121.168 139.569C121.343 143.606 122.367 147.554 122.873 151.563C123.491 156.461 123.332 161.426 123.806 166.34C123.934 167.664 124.116 169.013 124.71 170.203C125.304 171.393 126.382 172.415 127.698 172.611C138.508 174.223 149.53 174.406 160.387 173.154C161.39 173.039 162.402 172.908 163.349 172.558C164.843 172.005 166.125 170.897 166.887 169.498C167.193 168.936 167.421 168.294 167.31 167.664C167.198 167.035 166.651 166.45 166.013 166.482ZM79.5917 194.098C80.723 206.544 81.8543 218.99 82.9856 231.437C83.1889 233.674 83.3846 235.984 82.6854 238.119C81.9862 240.254 80.1468 242.183 77.9017 242.257C79.2198 244.185 81.4947 245.287 83.795 245.691C86.0952 246.095 88.4537 245.881 90.7792 245.666C109.941 243.896 129.102 242.125 148.263 240.355C147.852 237.96 147.441 235.566 147.03 233.171C146.937 232.634 146.673 231.953 146.13 231.993C132.955 232.975 119.78 233.957 106.606 234.939C101.196 235.342 95.7594 235.745 90.3524 235.303C87.6164 235.079 84.2374 233.991 83.9675 231.26C81.8076 209.403 79.3071 187.579 76.4672 165.8C76.4235 165.465 76.3693 165.107 76.1402 164.858C75.8345 164.527 75.3284 164.501 74.8774 164.499C72.1834 164.485 69.4894 164.472 66.7954 164.458C67.5822 168.921 68.6036 173.343 69.8538 177.699C70.0848 178.504 70.4692 179.444 71.294 179.589C74.2563 180.109 76.5942 182.546 77.8129 185.296C79.0316 188.045 79.3195 191.102 79.5917 194.098ZM69.2412 116.625C66.9289 104.897 64.9724 93.0988 63.3755 81.2521C63.2852 80.5821 63.1978 79.8874 63.3949 79.2407C63.8013 77.9078 65.2592 77.2094 66.615 76.8877C69.2657 76.259 72.0337 76.4688 74.7506 76.6691C99.59 78.5006 124.51 79.2335 149.415 78.8649C148.424 76.8559 146.432 75.4856 144.314 74.759C142.195 74.0324 139.931 73.8711 137.696 73.7167C115.774 72.2016 93.8184 70.7819 71.8454 71.0465C69.1571 71.0789 66.4374 71.1408 63.8416 71.8408C61.2458 72.5408 58.7483 73.9507 57.2507 76.1835C54.8909 79.702 55.4617 84.3496 56.1921 88.5227C57.9026 98.2953 59.9836 108.003 62.4291 117.618C64.6998 117.287 66.9705 116.956 69.2412 116.625ZM122.725 93.7028C123.912 93.7152 125.146 93.6487 126.196 93.0956C128.046 92.1218 128.867 89.8783 128.99 87.7913C129.112 85.7043 128.7 83.6126 128.833 81.5262C128.863 81.0507 129.128 80.4205 129.59 80.5399C129.924 82.9416 130.258 85.3434 130.592 87.7452C130.777 89.0712 130.968 90.422 131.549 91.6281C132.13 92.8343 133.175 93.8944 134.489 94.147C135.244 94.2921 136.033 94.1621 136.753 93.8916C138.476 93.2438 139.92 91.5947 139.854 89.755C139.764 87.215 139.673 84.675 139.583 82.1349C139.547 81.13 139.174 79.791 138.17 79.8437C131.475 80.1945 124.76 80.1635 118.069 79.7509C117.581 79.7208 117.452 80.4122 117.504 80.8982C117.772 83.4176 118.04 85.937 118.307 88.4565C118.51 90.3586 118.941 92.5944 120.687 93.3772C121.319 93.6609 122.032 93.6955 122.725 93.7028ZM157.062 251.795C156.741 252.02 156.529 252.366 156.334 252.705C155.319 254.473 154.503 256.355 153.906 258.304C165.625 257.485 177.335 256.534 189.032 255.45C189.472 255.409 189.949 255.352 190.265 255.043C190.469 254.842 190.574 254.564 190.673 254.295C191.111 253.105 191.549 251.916 191.987 250.727C192.2 250.148 192.389 249.428 191.973 248.973C191.626 248.595 191.038 248.607 190.527 248.648C179.832 249.505 169.143 250.427 158.459 251.416C157.973 251.461 157.462 251.515 157.062 251.795ZM177.72 179.594C177.403 175.897 176.757 171.747 173.74 169.587C172.563 172.829 171.374 176.12 171.105 179.559C170.836 182.998 171.595 186.664 173.902 189.228C174.226 189.589 174.587 189.939 174.759 190.392C174.93 190.845 174.843 191.443 174.423 191.684C171.287 188.956 169.989 184.58 170.062 180.424C170.136 176.268 171.41 172.239 172.672 168.279C172.949 167.409 172.156 166.494 171.265 166.291C170.375 166.088 169.455 166.386 168.591 166.68C168.423 166.737 168.349 166.929 168.295 167.098C167.697 169.003 167.094 171.023 167.557 172.965C169.552 181.333 169.295 190.115 171.325 198.475C171.4 198.783 171.482 199.098 171.661 199.36C173.008 196.727 174.355 194.094 175.702 191.46C176.335 190.223 176.971 188.977 177.366 187.644C178.134 185.053 177.951 182.286 177.72 179.594ZM225.363 118.855C225.624 119.07 225.973 119.137 226.308 119.175C230.117 119.601 233.71 117.008 235.82 113.808C237.929 110.609 238.925 106.828 240.308 103.254C241.605 99.8995 243.265 96.6852 245.249 93.685C241.277 97.4116 236.388 100.021 232.242 103.553C228.097 107.085 224.569 112.039 224.861 117.478C224.888 117.98 224.975 118.534 225.363 118.855ZM72.8283 82.8161C73.3697 85.1893 73.1459 87.8266 74.4607 89.8751C75.7354 91.861 78.4242 92.8075 80.6617 92.0578C82.8993 91.3082 84.4752 88.933 84.2963 86.58C84.2556 86.0452 84.1349 85.5202 84.0146 84.9976C83.5431 82.9501 83.0717 80.9026 82.6003 78.8551C82.5534 78.6514 82.5009 78.4371 82.3565 78.286C82.1494 78.0694 81.8177 78.0442 81.5183 78.0327C78.6382 77.9224 75.7581 77.8122 72.878 77.7019C72.6009 77.6913 72.2968 77.6892 72.0815 77.8638C71.8089 78.0848 71.7933 78.4908 71.8287 78.8399C71.9669 80.2014 72.5239 81.4819 72.8283 82.8161ZM150.79 85.0298C150.859 88.3079 152.995 91.1585 155.247 93.5412C155.467 93.7739 155.693 94.0075 155.967 94.1718C156.412 94.4375 156.953 94.5004 157.469 94.456C159.209 94.3065 160.697 92.9907 161.431 91.4063C162.166 89.8218 162.249 88.0093 162.09 86.2701C161.932 84.5309 161.547 82.8182 161.392 81.0787C161.361 80.7299 161.233 80.2744 160.883 80.2757C157.803 80.2875 154.724 80.2993 151.645 80.3111C151.251 80.3126 150.834 80.3207 150.501 80.5315C150.169 80.7423 149.983 81.2347 150.23 81.5417C150.984 82.4795 150.765 83.8268 150.79 85.0298ZM197.614 186.431C189.178 186.283 181.444 191.284 175.544 197.314C174.549 198.331 173.578 199.397 172.916 200.656C172.799 200.879 172.707 201.189 172.898 201.352C173.001 201.438 173.147 201.443 173.281 201.443C178.189 201.426 182.909 199.352 186.896 196.491C190.884 193.63 194.243 189.999 197.614 186.431ZM93.2288 91.4625C94.4339 90.7688 95.2095 89.3874 95.1744 87.9974C95.1566 87.2923 94.9483 86.6083 94.7807 85.9232C94.3496 84.1605 94.182 82.3336 94.2852 80.5219C94.3072 80.136 94.3402 79.7396 94.2242 79.3709C94.1082 79.0023 93.8005 78.6632 93.4146 78.6421C90.2267 78.4681 87.0388 78.294 83.851 78.1199C83.7363 78.1136 83.6112 78.1103 83.5186 78.1782C83.3751 78.2835 83.3832 78.4969 83.4098 78.6729C83.8021 81.2671 85.0574 83.7106 85.1379 86.333C85.1676 87.2979 85.0386 88.2868 85.3088 89.2136C85.6548 90.4005 86.6433 91.3374 87.7901 91.7992C88.9369 92.2609 90.2237 92.2871 91.4404 92.0676C92.0629 91.9554 92.6807 91.7781 93.2288 91.4625ZM220.787 126.978C223.096 127.629 225.137 128.991 227.377 129.85C232.342 131.754 238.253 130.959 242.538 127.81C244.378 126.458 246.218 125.106 248.058 123.754C245.815 124.284 243.495 124.488 241.194 124.355C237.349 124.134 233.552 122.982 229.711 123.27C226.444 123.516 223.266 124.836 220.787 126.978ZM154.858 109.211C154.405 106.697 153.951 104.183 153.497 101.67C152.889 98.3006 152.281 94.9315 151.672 91.5623C151.629 91.3233 151.577 91.0669 151.4 90.9006C151.223 90.7344 150.877 90.734 150.781 90.9569C150.173 92.3589 148.93 93.4702 147.468 93.9166C146.582 94.1874 146.506 95.3972 146.609 96.3186C147.336 102.819 148.197 109.304 149.19 115.769C149.479 113.125 151.745 110.829 154.385 110.504C154.899 110.441 154.95 109.72 154.858 109.211ZM106.354 88.7647C106.072 86.0547 105.716 83.3525 105.287 80.6618C105.198 80.107 104.962 79.4153 104.401 79.3907C101.499 79.2634 98.5975 79.1361 95.696 79.0088C95.5925 79.0042 95.4833 79.0009 95.3918 79.0494C95.1576 79.1736 95.196 79.5152 95.2649 79.7711C95.9341 82.2555 96.2892 84.8243 96.3192 87.3971C96.3266 88.0302 96.3193 88.6876 96.5843 89.2626C96.9742 90.1089 97.862 90.5944 98.7057 90.9897C100.176 91.6786 101.784 92.2843 103.389 92.0341C104.993 91.784 106.522 90.3799 106.354 88.7647ZM107.608 88.7798C107.901 90.1977 108.437 91.8471 109.827 92.2547C110.999 92.5987 112.266 92.6936 113.442 92.3621C114.618 92.0307 115.691 91.2412 116.217 90.1385C116.591 89.3537 116.676 88.4653 116.725 87.5971C116.858 85.2184 116.766 82.8272 116.45 80.4658C116.434 80.3394 116.415 80.2095 116.351 80.0991C116.182 79.8059 115.783 79.7648 115.444 79.7574C112.49 79.693 109.535 79.6286 106.58 79.5643C106.339 79.559 106.002 79.8099 106.206 79.9388C106.537 82.9054 107.005 85.8566 107.608 88.7798ZM206.887 118.123C204.579 123.342 203.9 129.266 204.966 134.872C205.392 137.111 206.229 139.487 208.168 140.686C208.738 141.039 209.689 141.144 209.9 140.507C212.352 133.11 211.208 124.609 206.887 118.123ZM57.2859 183.639C58.265 184.311 59.3687 184.801 60.5239 185.076C61.9836 185.424 63.4996 185.428 64.9997 185.464C68.5051 185.549 72.006 185.817 75.4833 186.268C75.9684 186.331 76.3694 185.807 76.3566 185.317C76.3438 184.828 76.0463 184.397 75.738 184.017C73.8834 181.732 71.1751 180.158 68.2721 179.676C66.2157 179.335 64.113 179.526 62.0293 179.466C59.9456 179.406 57.7707 179.053 56.1091 177.795C56.0211 178.992 56.014 180.194 56.0881 181.392C56.118 181.877 56.167 182.38 56.4141 182.798C56.6212 183.149 56.9502 183.409 57.2859 183.639ZM141.622 90.6665C141.949 91.26 142.474 91.7173 143.012 92.1295C143.595 92.5762 144.225 92.9942 144.94 93.1582C146.703 93.562 148.505 92.2559 149.248 90.6072C149.991 88.9585 149.916 87.0686 149.744 85.2685C149.614 83.9074 149.437 82.5508 149.213 81.202C149.176 80.9771 149.133 80.742 148.991 80.5631C148.743 80.2494 148.289 80.213 147.889 80.2024C145.74 80.1452 143.591 80.0881 141.443 80.031C140.967 80.0184 140.291 80.246 140.432 80.7005C141.065 82.7351 141.34 84.8801 141.243 87.0085C141.186 88.2506 141.021 89.5777 141.622 90.6665M217.672 128.444C219.953 124.762 220.636 120.127 219.514 115.943C218.521 112.245 216.213 108.968 215.482 105.209C213.777 110.383 212.06 115.952 213.602 121.177C214.393 123.855 215.99 126.216 217.672 128.444ZM179.875 186.37C186.66 184.622 192.924 180.896 197.698 175.767C199.127 174.232 200.589 172.729 202.084 171.259C198.422 171.761 194.847 172.893 191.564 174.592C186.556 177.182 182.162 181.216 179.875 186.37ZM221.217 141.33C223.712 138.984 226.208 136.639 228.704 134.293C220.264 135.369 212.382 140.246 207.652 147.319C208.871 148.258 210.62 147.705 212.042 147.117C214.02 146.299 216.015 145.472 217.775 144.255C219.015 143.398 220.119 142.362 221.217 141.33ZM57.0703 192.591C57.0914 192.808 57.117 193.037 57.2483 193.211C57.5356 193.591 58.1212 193.497 58.5787 193.364C63.8159 191.833 68.9797 190.051 74.0461 188.026C74.4114 187.88 74.8375 187.649 74.8448 187.256C70.958 186.986 67.0713 186.717 63.1845 186.447C62.2339 186.381 61.2795 186.315 60.3475 186.116C58.9456 185.816 57.6088 185.216 56.4544 184.366C56.539 187.114 56.8048 189.854 57.0703 192.591ZM179.85 166.293C179.537 166.52 179.41 166.919 179.302 167.291C178.932 168.565 178.561 169.918 178.904 171.201C179.079 171.854 179.431 172.444 179.778 173.025C180.739 174.63 181.699 176.236 182.66 177.842C182.749 177.991 182.846 178.148 183 178.229C183.459 178.47 183.912 177.904 184.125 177.432C185.508 174.365 186.922 171.122 186.608 167.773C186.56 167.258 186.42 166.674 185.96 166.437C185.749 166.329 185.503 166.315 185.266 166.303C183.842 166.233 182.417 166.162 180.993 166.091C180.599 166.072 180.17 166.062 179.85 166.293ZM201.619 154.94C201.583 157.098 203.466 158.903 205.531 159.531C207.597 160.159 209.813 159.889 211.959 159.658C215.733 159.253 219.725 158.919 222.828 156.732C223.516 156.247 224.167 155.648 224.474 154.864C224.954 153.641 224.472 152.196 223.57 151.241C222.668 150.285 221.418 149.738 220.166 149.338C215.695 147.906 210.73 148.071 206.363 149.796C204.059 150.706 201.661 152.463 201.619 154.94ZM56.715 176.988C57.1215 177.368 57.9455 177.464 58.104 176.931C58.6471 175.105 59.8681 173.54 61.3064 172.291C62.7447 171.041 64.4031 170.077 66.0503 169.12C66.4946 168.862 66.4666 168.222 66.3808 167.715C66.2145 166.734 66.0481 165.752 65.8818 164.771C65.8397 164.522 65.7565 164.226 65.5132 164.159C65.3141 164.105 65.1173 164.24 64.9547 164.367C63.7729 165.289 62.5912 166.212 61.4095 167.135C59.0416 168.984 56.504 171.106 55.9905 174.066C55.8116 175.097 55.9497 176.274 56.715 176.988ZM65.9333 170.382C63.2793 172.04 60.47 173.875 59.2639 176.762C59.1888 176.942 59.1195 177.13 59.1254 177.325C59.137 177.709 59.4465 178.033 59.8014 178.181C60.1563 178.328 60.5516 178.335 60.9358 178.339C63.2078 178.366 65.4798 178.393 67.7518 178.42C67.8623 178.421 67.9822 178.419 68.0694 178.351C68.2072 178.244 68.1932 178.035 68.1658 177.862C67.8034 175.572 67.441 173.282 67.0786 170.991C67.027 170.665 66.9218 170.276 66.6039 170.187C66.3727 170.122 66.1369 170.255 65.9333 170.382ZM178.812 166.434C177.139 166.002 175.334 166.096 173.716 166.699C174.029 167.728 174.585 168.682 175.325 169.463C177.819 172.092 178.556 175.91 178.839 179.523C178.99 181.452 179.044 183.39 178.999 185.325C180.094 183.635 181.19 181.945 182.285 180.255C182.394 180.087 182.507 179.909 182.519 179.709C182.53 179.509 182.44 179.319 182.348 179.141C181.266 177.053 179.678 175.253 178.675 173.127C177.672 171.001 177.364 168.286 178.812 166.434ZM66.7371 77.9701C65.8144 78.1165 64.7623 78.3509 64.3241 79.1759C64.0211 79.7463 64.1105 80.4365 64.2078 81.075C64.6088 83.7045 65.0098 86.3341 65.4109 88.9637C67.4629 85.2737 69.3844 81.5128 71.3054 77.7529C70.9499 77.3509 70.3198 77.4017 69.7898 77.4858C68.7722 77.6472 67.7546 77.8087 66.7371 77.9701ZM193.045 167.257C193.329 167.633 194.071 167.216 193.896 166.778C196.637 167.564 199.625 167.004 202.213 165.809C204.802 164.613 207.062 162.822 209.287 161.038C208.352 160.907 207.418 160.777 206.484 160.646C206.294 160.62 206.046 160.623 205.973 160.801C205.47 162.033 204.388 162.955 203.192 163.538C201.996 164.12 200.68 164.402 199.379 164.679C198.476 164.872 197.573 165.064 196.67 165.256C195.272 165.554 193.695 165.983 193.045 167.257ZM143.463 148.188C143.638 148.144 143.826 148.091 143.939 147.949C144.113 147.728 144.026 147.411 143.98 147.134C143.935 146.857 144.005 146.488 144.282 146.439C144.534 146.49 144.65 146.789 144.657 147.046C144.663 147.304 144.606 147.572 144.699 147.812C144.906 148.346 145.644 148.367 146.212 148.295C146.548 148.252 146.885 148.209 147.221 148.166C147.326 148.153 147.439 148.136 147.517 148.064C147.766 147.836 147.42 147.464 147.343 147.136C147.283 146.882 147.402 146.608 147.324 146.359C147.192 145.935 146.628 145.87 146.184 145.885C142.79 145.998 139.395 146.11 136.001 146.223C136.059 146.865 136.235 147.497 136.517 148.077C136.577 148.202 136.649 148.331 136.77 148.4C136.892 148.47 137.042 148.466 137.183 148.459C138.026 148.42 138.87 148.381 139.714 148.341C139.786 148.338 139.861 148.333 139.921 148.294C140.075 148.192 140.022 147.957 139.951 147.787C139.829 147.493 139.707 147.2 139.586 146.906C139.48 146.651 139.942 146.5 140.136 146.696C140.331 146.892 140.338 147.2 140.43 147.461C140.62 148.002 141.196 148.333 141.765 148.402C142.335 148.472 142.906 148.329 143.463 148.188ZM192.76 166.157C192.945 165.96 192.537 165.755 192.269 165.788C190.74 165.975 189.212 166.162 187.683 166.35C187.479 166.375 187.209 166.487 187.258 166.687C187.76 168.744 187.572 170.963 186.73 172.905C186.57 173.275 186.464 173.84 186.848 173.964C188.442 171.103 190.438 168.467 192.76 166.157ZM140.68 149.739C140.632 149.573 140.578 149.399 140.451 149.281C140.308 149.147 140.1 149.113 139.905 149.092C138.904 148.982 137.883 149.051 136.905 149.294C137.211 150.286 137.517 151.278 137.823 152.27C137.881 152.458 137.959 152.669 138.141 152.743C138.235 152.781 138.339 152.774 138.44 152.767C139.428 152.698 140.417 152.628 141.406 152.559C141.191 151.612 140.949 150.672 140.68 149.739ZM134.242 153.208C134.352 153.269 134.486 153.25 134.61 153.23C135.505 153.084 136.4 152.938 137.296 152.792C136.972 151.757 136.649 150.722 136.326 149.687C136.279 149.535 136.22 149.368 136.08 149.293C135.969 149.233 135.835 149.245 135.71 149.26C134.912 149.353 134.114 149.446 133.316 149.538C133.165 149.556 132.988 149.593 132.932 149.734C132.894 149.829 132.93 149.936 132.966 150.033C133.317 150.981 133.669 151.93 134.02 152.879C134.067 153.006 134.123 153.144 134.242 153.208ZM144.3 149.073C144.11 148.908 143.83 148.92 143.58 148.94C142.792 149.005 142.004 149.07 141.215 149.135C141.451 150.145 141.748 151.141 142.103 152.116C142.15 152.243 142.203 152.378 142.311 152.46C142.447 152.562 142.632 152.557 142.802 152.546C143.34 152.514 143.878 152.481 144.416 152.449C144.664 152.434 144.966 152.381 145.049 152.147C145.089 152.035 145.063 151.911 145.037 151.794C144.873 151.065 144.709 150.336 144.546 149.607C144.502 149.412 144.45 149.204 144.3 149.073ZM139.597 156.331C139.519 156.343 139.436 156.358 139.379 156.413C139.268 156.519 139.319 156.703 139.377 156.845C139.584 157.352 139.791 157.859 139.998 158.366C140.075 158.554 140.162 158.754 140.333 158.862C140.492 158.963 140.691 158.965 140.879 158.964C141.594 158.96 142.31 158.955 143.025 158.951C143.13 158.95 143.244 158.947 143.324 158.88C143.47 158.759 143.416 158.527 143.349 158.349C143.073 157.624 142.798 156.898 142.523 156.173C142.435 155.94 142.111 155.937 141.865 155.975C141.109 156.094 140.353 156.212 139.597 156.331ZM145.615 148.929C145.465 148.93 145.296 148.938 145.195 149.049C145.072 149.184 145.111 149.393 145.157 149.569C145.361 150.338 145.564 151.106 145.768 151.875C145.803 152.011 145.845 152.155 145.953 152.243C146.097 152.361 146.306 152.339 146.49 152.311C147.168 152.207 147.846 152.104 148.524 152C148.451 151.213 148.326 150.431 148.15 149.66C148.095 149.42 148.019 149.157 147.81 149.024C147.654 148.925 147.458 148.923 147.273 148.923C146.72 148.925 146.168 148.927 145.615 148.929ZM146.996 158.861C146.776 158.063 146.556 157.264 146.336 156.466C146.253 156.161 146.134 155.816 145.839 155.701C145.694 155.644 145.532 155.657 145.377 155.671C144.653 155.734 143.929 155.796 143.206 155.859C143.397 156.574 143.622 157.28 143.882 157.972C144.013 158.321 144.212 158.716 144.58 158.776C145.377 158.905 146.191 158.934 146.996 158.861ZM148.256 158.805C148.911 158.859 149.631 158.895 150.162 158.505C149.932 157.611 149.702 156.717 149.472 155.823C149.42 155.622 149.351 155.398 149.167 155.302C149.031 155.232 148.868 155.251 148.717 155.272C148.067 155.362 147.417 155.453 146.767 155.543C146.922 156.49 147.184 157.419 147.548 158.306C147.603 158.442 147.666 158.583 147.783 158.673C147.914 158.775 148.09 158.792 148.256 158.805ZM206.709 146.078C207.21 145.05 207.711 144.022 208.212 142.993C208.265 142.885 208.319 142.768 208.3 142.65C208.281 142.534 208.197 142.442 208.117 142.357C207.404 141.603 206.69 140.849 205.977 140.095C205.681 140.499 205.715 141.049 205.762 141.549C205.917 143.188 206.073 144.828 206.228 146.467C206.446 146.516 206.611 146.279 206.709 146.078ZM148.976 148.811C148.883 148.804 148.776 148.802 148.71 148.87C148.637 148.945 148.653 149.067 148.675 149.17C148.816 149.851 148.957 150.532 149.098 151.212C149.15 151.464 149.212 151.734 149.403 151.908C150.019 152.47 151.205 151.503 151.778 152.109C151.879 151.143 151.806 150.158 151.565 149.217C151.548 149.151 151.528 149.081 151.477 149.035C151.419 148.983 151.334 148.975 151.255 148.969C150.495 148.916 149.736 148.863 148.976 148.811ZM134.805 153.859C134.723 153.87 134.637 153.883 134.569 153.93C134.42 154.037 134.425 154.257 134.447 154.44C134.504 154.927 134.567 155.43 134.822 155.849C135.077 156.268 135.58 156.578 136.053 156.451C136.732 156.27 137.41 156.088 138.088 155.906C138.059 155.257 137.928 154.614 137.701 154.006C137.644 153.854 137.573 153.694 137.434 153.612C137.289 153.527 137.108 153.546 136.941 153.569C136.229 153.666 135.517 153.762 134.805 153.859ZM150.627 148.17C150.832 148.139 151.049 148.102 151.201 147.962C151.653 147.544 151.136 146.696 151.502 146.202C151.645 146.009 151.295 145.836 151.055 145.846C149.984 145.891 148.912 145.937 147.841 145.982C147.882 146.425 147.959 146.865 148.071 147.296C148.195 147.777 148.664 148.105 149.148 148.212C149.633 148.318 150.137 148.244 150.627 148.17ZM141.966 153.942C141.828 153.279 140.941 153.124 140.275 153.248C139.61 153.372 138.866 153.612 138.3 153.24C138.336 153.94 138.5 154.633 138.78 155.276C138.839 155.41 138.911 155.551 139.039 155.623C139.183 155.705 139.362 155.679 139.526 155.651C140.182 155.538 140.838 155.424 141.494 155.311C141.82 155.255 142.248 154.997 142.077 154.715C141.941 154.49 142.02 154.199 141.966 153.942M137.913 156.663C137.377 156.754 136.84 156.845 136.304 156.935C136.014 156.985 135.656 157.101 135.625 157.394C135.547 158.134 136.284 158.731 137.014 158.878C137.743 159.026 138.501 158.881 139.241 158.954C139.211 158.325 139.079 157.701 138.853 157.113C138.799 156.973 138.735 156.829 138.616 156.738C138.424 156.589 138.152 156.622 137.913 156.663ZM152.041 155.227C151.33 155.152 150.607 155.19 149.907 155.339C150.294 156.26 150.568 157.227 150.723 158.214C150.794 158.667 151.44 158.675 151.884 158.562C152.049 158.52 152.23 158.468 152.324 158.325C152.406 158.203 152.402 158.044 152.395 157.897C152.357 157.085 152.319 156.272 152.281 155.46C152.278 155.408 152.275 155.354 152.245 155.312C152.202 155.25 152.117 155.235 152.041 155.227ZM140.424 162.507C141.095 161.838 140.751 160.486 139.842 160.218C138.933 159.951 137.911 160.901 138.113 161.827C138.321 162.785 139.731 163.2 140.424 162.507ZM145.697 154.658C146.124 154.101 145.485 153.279 144.794 153.158C144.103 153.037 143.402 153.302 142.7 153.291C142.442 153.287 142.431 153.676 142.515 153.921C142.624 154.237 142.732 154.553 142.841 154.87C142.886 154.999 142.966 155.154 143.103 155.146C143.603 155.115 144.103 155.083 144.604 155.052C145.003 155.027 145.454 154.976 145.697 154.658ZM152.613 160.036C152.561 159.896 152.485 159.76 152.364 159.672C152.256 159.593 152.121 159.56 151.988 159.544C150.938 159.417 149.919 160.464 150.074 161.511C150.521 162.042 151.362 162.189 151.963 161.84C152.563 161.491 152.853 160.687 152.613 160.036ZM146.131 153.711C146.108 154.171 146.512 154.564 146.956 154.688C147.4 154.812 147.872 154.732 148.325 154.651C148.557 154.609 148.818 154.55 148.939 154.347C149.198 153.916 148.684 153.126 149.159 152.961C148.84 152.917 148.521 152.873 148.203 152.829C147.782 152.772 147.346 152.715 146.938 152.831C146.529 152.948 146.152 153.286 146.131 153.711ZM149.941 154.299C150.424 154.719 151.233 154.661 151.682 154.205C152.131 153.749 152.189 152.976 151.851 152.432C151.005 152.589 150.16 152.746 149.314 152.903C149.421 153.412 149.549 153.958 149.941 154.299ZM215.262 146.22C214.604 146.464 213.946 146.707 213.287 146.951C212.96 147.072 212.629 147.196 212.346 147.399C213.422 147.819 214.78 147.27 215.262 146.22ZM154.077 93.9748C154.06 93.6841 153.752 93.4465 153.467 93.5032C153.485 93.7991 153.78 94.0479 154.075 94.016L154.077 93.9748Z" fill="#00160A"/>
</svg>
