<svg width="284" height="284" viewBox="0 0 284 284" fill="none" xmlns="http://www.w3.org/2000/svg">
<rect width="284" height="284" fill="#101114"/>
<path fill-rule="evenodd" clip-rule="evenodd" d="M74.7567 49.4753C74.762 49.0676 75.0599 48.7227 75.4627 48.6581C77.5136 48.0399 79.4436 47.1019 81.4726 46.4177C82.5656 46.057 83.6275 45.6079 84.6477 45.0748C85.3876 44.6813 86.2312 44.5654 87.004 44.2289L87.2129 44.1313C88.1043 43.6856 89.1057 43.4979 90.0349 43.1116C90.8188 42.7857 91.7015 42.7505 92.5159 42.442C93.7059 42.0073 94.9171 41.6329 96.1448 41.3201C96.9072 41.0243 97.7173 40.8701 98.5351 40.8654C98.7546 40.8867 98.886 40.7561 99.0584 40.7101C99.7936 40.489 100.542 40.313 101.298 40.183C102.907 39.9528 104.493 39.5682 106.103 39.3628C107.272 39.2146 108.425 38.997 109.586 38.8139C110.704 38.6386 111.825 38.4853 112.949 38.354C115.58 38.037 118.228 37.8743 120.878 37.8666C122.952 37.8863 125.024 38.0232 127.083 38.2766C128.76 38.4141 130.426 38.6631 132.07 39.0221C133.372 39.3516 134.731 39.4939 135.98 39.9341C137.159 40.3496 138.367 40.7034 139.548 41.0864C142.282 41.9732 144.972 42.9663 147.618 44.0656C149.177 44.7111 150.732 45.3941 152.295 46.0128C154.13 46.7385 155.868 47.6669 157.699 48.3978C158.771 48.8269 159.824 49.4126 160.884 49.917C161.91 50.4051 162.862 51.0338 163.919 51.4575C164.958 51.9167 165.973 52.4284 166.96 52.9905C167.894 53.4825 169.007 53.7912 169.739 54.6583C170.67 54.5969 171.214 55.3782 171.949 55.7331C172.683 56.088 173.401 56.4963 174.142 56.7999C174.905 57.1124 175.674 57.4523 176.42 57.783C177.934 58.4542 179.504 58.9768 181.011 59.641C181.931 60.0455 182.905 60.1445 183.835 60.4594C185.618 61.0526 187.455 61.467 189.321 61.6965C190.071 61.774 190.806 61.9651 191.499 62.2632C192.02 62.5025 192.506 62.1815 193.027 62.3236C193.872 62.5537 194.754 62.6414 195.616 62.8056C195.881 62.9053 196.18 62.8542 196.397 62.6719L196.891 63.2362C197.2 63.2934 196.968 63.0089 197.131 62.9239C197.491 62.9581 197.889 62.9026 198.239 63.1754C198.567 63.4326 198.921 63.0986 199.301 63.2182C200.13 63.4749 201.106 62.992 201.864 63.6945C202.69 63.4601 203.513 63.7197 204.339 63.724C204.738 63.7043 205.13 63.8267 205.447 64.0678L205.519 64.1255C205.809 64.3921 206.252 63.7683 206.515 64.2802C207.944 64.001 209.208 64.7326 210.499 65.0681C212.571 65.6071 214.695 65.9911 216.689 66.8857C217.687 67.3329 218.854 67.5084 219.879 67.945C222.183 68.9259 224.558 69.7511 226.745 71.0088C227.648 71.5287 228.667 71.8475 229.566 72.3763L230.605 72.9878C232.162 73.9074 233.709 74.8438 235.195 75.878C235.573 76.063 235.893 76.3504 236.116 76.7075C236.329 77.1602 236.893 76.9748 237.265 77.2534C237.708 77.582 237.947 78.0925 238.486 78.3651C238.782 78.5153 239.108 78.9245 239.451 79.0995C240.568 79.6691 241.222 80.8092 242.351 81.3521C242.734 81.6217 243.052 81.9734 243.281 82.3813C244.178 83.502 245.518 84.1729 246.313 85.3649L246.418 85.5308C246.808 86.1626 247.34 86.6944 247.97 87.0851L248.216 87.2325C248.397 87.3428 248.566 87.4591 248.602 87.6289C248.751 88.339 249.363 88.7012 249.762 89.2071C250.189 89.7487 250.799 90.1361 251.177 90.7519C251.494 91.4136 251.926 92.0137 252.452 92.5243C253.446 93.2791 253.996 94.3361 254.682 95.2985C255.025 95.7791 255.606 96.1593 255.501 96.917C255.447 97.3024 256.271 97.0207 256.2 97.5771L256.189 97.64C256.104 98.0194 256.344 98.215 256.682 98.3914C256.992 98.5528 256.771 99.1471 257.141 99.2532C257.511 99.3593 257.936 99.6396 257.852 99.8286C257.642 100.303 258.376 100.29 258.175 100.665C258.165 100.71 258.175 100.757 258.204 100.793C259.075 101.767 259.309 103.1 260.135 104.122C260.607 104.757 260.954 105.475 261.159 106.238C261.396 106.931 261.69 107.604 262.038 108.248C262.591 109.369 262.781 110.606 263.341 111.71C263.492 112.009 262.874 112.54 263.626 112.664C263.434 113.126 263.893 113.346 263.994 113.692C264.026 114.002 264.009 114.314 263.946 114.619C264.34 115.208 264.59 115.882 264.675 116.586C265.017 117.99 265.27 119.413 265.432 120.849L265.563 122.031C265.734 123.61 265.864 125.196 265.538 126.778C265.454 127.185 265.859 127.33 265.822 127.694C265.617 129.81 265.629 131.94 265.04 134.026C264.793 134.9 264.856 135.895 264.61 136.793C264.143 138.495 263.897 140.244 263.227 141.91L263.105 142.204C262.652 143.241 262.347 144.39 261.91 145.464C261.634 146.204 243.482 233.191 181.833 211.008C152.597 200.488 126.12 256.339 85.9049 244.468C-27.9464 210.863 26.1962 71.2104 72.0569 50.3577C72.4085 50.267 72.7468 50.1313 73.0636 49.9539C73.5349 49.5624 74.1501 49.3885 74.7567 49.4753Z" fill="#64FCD9"/>
<path fill-rule="evenodd" clip-rule="evenodd" d="M114.168 209.334C112.574 194.585 113.711 176.029 119.419 162.336C118.373 164.296 133.419 167.501 133.26 168.341C132.214 173.85 131.544 180.059 130.643 186.909C129.62 194.689 130.317 203.02 131.18 209.225C133.222 223.905 115.762 224.069 114.168 209.334Z" fill="white"/>
<path fill-rule="evenodd" clip-rule="evenodd" d="M115.91 162.967C119.472 152.177 127.946 143.117 138.475 138.843C143.826 136.67 150.046 135.676 146.893 136.386C146.265 140.257 150.231 143.675 154.148 143.86C158.066 144.045 161.708 141.945 164.9 139.666C162.804 135.926 164.915 137.767 167.961 142C168.066 142.234 152.995 145.654 143.581 152.509C135.352 158.501 132.375 168.032 135.41 168.341C133.949 169.004 132.26 169.151 130.707 168.752C130.707 168.752 120.093 165.713 115.91 162.967Z" fill="white"/>
<path fill-rule="evenodd" clip-rule="evenodd" d="M115.91 162.967C119.472 152.177 127.946 143.117 138.475 138.843C140.417 138.055 145.415 136.29 148.159 134.815C152.981 132.221 151.845 129.96 151.845 128.319C151.845 126.49 160.009 124.245 161.707 125.521C162.895 126.413 162.274 129.731 162.963 132.503C164.045 136.853 166.189 140.971 167.049 140.356C169.629 143.989 180.761 146.808 190.003 156.899C193.98 161.241 195.065 166.259 196.485 170.09C197.726 173.436 200.097 175.729 200.73 176.61C200.778 176.717 185.782 183.826 185.782 183.826C185.782 183.826 189.61 205.491 184.483 209.225C176.253 215.217 131.031 232.084 134.066 232.393C133.216 232.779 129.561 202.318 130.18 187.877C130.623 177.512 133.909 168.508 133.26 168.341C133.26 168.341 120.093 165.713 115.91 162.967Z" fill="white"/>
<path fill-rule="evenodd" clip-rule="evenodd" d="M189.601 202.235C197.088 199.539 197.834 179.774 198.019 179.604C199.158 184.771 199.985 190.007 200.494 195.274C200.718 197.59 200.879 199.937 200.517 202.235C200.136 204.65 199.185 206.945 198.005 209.085C195.388 213.83 191.591 217.918 187.053 220.88C186.318 221.359 185.543 221.818 184.679 221.971C182.769 222.309 180.945 221.1 179.493 219.814C172.158 213.317 168.48 203.721 165.427 194.41C164.41 191.309 158.163 174.458 159.254 173.946C157.461 173.347 155.443 173.447 153.719 174.221C152.676 174.689 151.837 172.939 152.494 172.004C153.151 171.068 154.4 170.828 155.486 170.471C156.571 170.114 157.754 169.31 157.675 168.17C155.777 168.46 153.905 168.919 152.088 169.539C151.226 169.834 150.343 168.997 150.125 168.113C149.541 165.742 151.933 163.715 154.185 162.774C156.529 161.794 159.054 161.25 161.593 161.177C162.109 161.162 170.155 162.277 168.527 168.687C168.507 168.763 168.287 169.458 168.269 169.539C166.565 177.541 180.79 205.408 189.601 202.235Z" fill="white"/>
<path fill-rule="evenodd" clip-rule="evenodd" d="M155.734 161.622C154.914 161.194 155.332 159.96 155.802 159.164C157.32 156.591 158.287 153.695 158.619 150.727C160.889 150.425 163.269 151.062 165.085 152.457C165.38 152.684 165.673 152.948 165.791 153.301C165.942 153.757 165.768 154.251 165.597 154.699C164.75 156.912 163.902 159.125 163.055 161.338C164.505 161.339 157.451 162.604 155.734 161.622Z" fill="white"/>
<path fill-rule="evenodd" clip-rule="evenodd" d="M132.399 106.883C129.648 82.1484 126.706 83.5296 123.459 78.368C118.661 70.739 119.917 60.72 123.171 52.3154C125.21 47.0503 127.991 42.0179 131.817 37.8666C132.509 38.0821 132.747 38.9961 132.529 39.6876C132.312 40.3791 131.787 40.9218 131.366 41.5116C130.11 43.2688 129.744 45.63 130.409 47.6849C131.359 50.6177 134.201 52.619 137.181 53.4065C140.161 54.1941 143.303 53.9696 146.377 53.7394C149.397 53.5132 152.417 53.287 155.437 53.0608C158.455 52.8348 161.62 52.6328 164.38 53.8749C167.14 55.117 169.272 58.3189 168.248 61.1672C167.933 62.0448 168.435 63.0353 169.152 63.6314C169.869 64.2276 170.771 64.5433 171.601 64.967C175.102 66.7525 177.28 70.4849 178.136 74.3201C178.992 78.1554 178.707 82.1416 178.418 86.0605C178.217 88.7935 178.015 91.5265 177.814 94.2595C177.674 96.149 177.579 98.2086 178.666 99.76C179.976 101.629 178.538 104.205 176.841 105.73C175.144 107.256 173.003 108.679 172.615 110.928C172.105 113.881 162.963 127.247 154.133 128.319C145.583 129.356 133.634 117.982 132.399 106.883Z" fill="white"/>
<path fill-rule="evenodd" clip-rule="evenodd" d="M136.008 110.226C138.491 110.392 140.986 110.386 143.468 110.207C144.4 110.139 145.502 109.931 145.874 109.073C146.322 108.041 147.402 107.316 148.526 107.293C149.651 107.269 150.76 107.948 151.251 108.96C151.778 110.047 153.327 109.991 154.508 109.735C157.643 109.056 160.729 108.145 163.731 107.011C165.09 106.498 165.881 105.007 165.998 103.559C166.115 102.11 165.687 100.679 165.263 99.289C161.484 100.156 157.588 100.35 153.715 100.54C145.91 100.924 138.105 101.307 130.3 101.691C130.793 103.863 131.285 106.035 131.778 108.207C131.886 108.683 132.007 109.184 132.346 109.535C132.685 109.886 133.319 110.002 133.647 109.641C132.625 107.239 131.581 104.648 132.111 102.092C132.768 104.298 133.425 106.504 134.082 108.71C134.204 109.119 134.34 109.55 134.662 109.83C135.022 110.141 135.532 110.194 136.008 110.226ZM165.123 98.5799C165.423 98.2224 165.194 97.4974 164.734 97.5767C153.656 99.4871 142.308 98.7039 131.091 99.4359C130.478 99.4759 129.668 99.7337 129.721 100.346C131.461 100.934 133.348 100.832 135.181 100.723C144.733 100.155 154.285 99.587 163.837 99.0189C164.303 98.9912 164.823 98.9373 165.123 98.5799Z" fill="#E7EAEE"/>
<path fill-rule="evenodd" clip-rule="evenodd" d="M158.145 172.563C158.145 174.86 162.644 187.486 161.707 184.361C161.813 185.583 162.579 187.784 161.525 188.41C160.852 188.809 160.004 188.683 159.236 188.535C153.108 187.358 147.082 185.651 141.247 183.44C140.221 183.051 139.098 182.549 138.685 181.533C138.037 179.937 139.511 178.332 140.84 177.236C143.755 174.833 146.671 172.431 149.586 170.028C149.801 169.85 150.047 169.662 150.326 169.682C150.604 169.702 150.841 170.07 150.644 170.268C147.515 172.831 158.145 170.267 158.145 172.563Z" fill="white"/>
<path fill-rule="evenodd" clip-rule="evenodd" d="M161.525 188.41C160.852 188.809 160.004 188.683 159.236 188.535C153.108 187.358 147.082 185.651 141.247 183.44C140.221 183.051 139.098 182.549 138.685 181.533C138.037 179.937 140.266 177.973 142 177.026C145.012 175.382 148.167 178.969 152.382 181.533C156.848 184.25 162.291 185.996 162.161 185.63" fill="#FFB61D"/>
<path fill-rule="evenodd" clip-rule="evenodd" d="M175.767 119.198C175.525 119.234 175.604 119.605 175.745 119.804C177.22 121.88 178.694 123.955 180.169 126.031C180.42 126.384 180.661 126.901 180.352 127.204C176.064 125.302 172.591 121.635 170.924 117.251C171.225 116.911 171.736 117.371 171.95 117.772C173.414 120.509 175.408 122.963 177.788 124.956C178.032 125.161 178.399 125.362 178.639 125.153C176.347 122.499 174.506 119.457 173.216 116.197C173.162 116.06 173.108 115.912 173.144 115.769C173.214 115.491 173.601 115.405 173.857 115.536C174.113 115.667 174.268 115.931 174.416 116.177C175.709 118.314 177.621 120.071 179.861 121.177C180.08 120.753 179.698 120.28 179.358 119.944C176.779 117.401 174.891 114.163 173.948 110.666C173.758 109.963 173.842 108.912 174.569 108.881C174.752 110.541 175.218 112.168 175.941 113.673C176.841 115.547 178.122 117.206 179.394 118.85C180.421 120.177 181.447 121.504 182.473 122.831C182.276 123.09 181.874 123.013 181.568 122.902C179.395 122.112 177.399 120.837 175.767 119.198Z" fill="#00160A"/>
<path fill-rule="evenodd" clip-rule="evenodd" d="M151.656 114.357C154.688 114.357 157.147 116.137 157.147 118.333C157.147 120.529 155.288 122.539 152.256 122.539C149.224 122.539 146.165 120.529 146.165 118.333C146.165 116.137 148.624 114.357 151.656 114.357ZM151.656 115.493C149.187 115.493 146.937 116.858 146.937 118.333C146.937 119.808 149.237 121.71 151.706 121.71C154.176 121.71 156.011 119.808 156.011 118.333C156.011 116.858 154.125 115.493 151.656 115.493Z" fill="#00160A"/>
<path fill-rule="evenodd" clip-rule="evenodd" d="M96.6886 162.366C96.6146 162.519 96.5746 162.688 96.5722 162.857C96.2481 162.694 95.9239 162.53 95.5998 162.366C96.7704 165.257 97.9409 168.148 99.1115 171.04C99.2912 171.484 99.478 171.939 99.8075 172.286C99.7792 171.414 99.5207 170.567 99.2643 169.732C98.5209 167.313 97.7776 164.894 97.0343 162.474C96.9768 162.351 96.8061 162.297 96.6886 162.366Z" fill="#FFB61D"/>
<path fill-rule="evenodd" clip-rule="evenodd" d="M101.893 153.2C102.264 153.77 102.295 154.489 102.479 155.144C102.873 156.546 103.96 157.633 104.655 158.913C105.35 160.193 105.525 162.034 104.355 162.901C103.791 163.319 103.897 164.169 103.974 164.866C104.052 165.563 103.869 166.486 103.175 166.583C102.78 166.638 102.401 166.361 102.206 166.014C102.011 165.667 101.96 165.26 101.906 164.866C101.545 162.232 100.858 159.644 99.8686 157.177C99.621 156.559 99.3794 155.78 99.8327 155.294C100.406 154.678 99.6531 153.534 100.176 152.874C100.598 152.341 101.521 152.63 101.893 153.2Z" fill="#FFB61D"/>
<path fill-rule="evenodd" clip-rule="evenodd" d="M147.384 151.516C147.646 150.911 147.909 150.305 148.172 149.699C148.494 148.958 149.085 148.073 149.868 148.272C150.102 148.331 150.303 148.488 150.459 148.673C151.258 149.619 150.891 151.106 150.145 152.095C149.633 152.772 148.967 153.332 148.212 153.718C147.751 153.954 147.177 153.518 147.072 153.011C146.967 152.504 147.178 151.991 147.384 151.516ZM149.42 151.532C149.658 151.237 149.902 150.932 150.007 150.569C150.112 150.205 150.045 149.764 149.746 149.532C148.764 150.447 148.049 151.646 147.711 152.946C147.952 153.167 148.321 152.894 148.527 152.638C148.825 152.27 149.123 151.901 149.42 151.532Z" fill="#FFB61D"/>
<path fill-rule="evenodd" clip-rule="evenodd" d="M131.844 152.964C133.035 152.037 135.023 152.602 135.653 153.974C136.282 155.347 135.522 157.141 134.143 157.756C133.781 157.917 133.388 158.008 132.992 158.021C132.265 158.046 131.498 157.778 131.061 157.196C130.605 156.589 130.576 155.758 130.72 155.013C130.871 154.232 131.215 153.453 131.844 152.964Z" fill="#FFB61D"/>
<path fill-rule="evenodd" clip-rule="evenodd" d="M159.782 95.6834C158.812 96.6215 157.237 96.3326 155.934 95.9805C155.315 95.8131 154.696 95.6457 154.077 95.4784C153.461 95.3116 152.702 95.1815 152.267 95.6497C151.863 96.0853 151.057 95.4865 151.175 94.9038C151.292 94.3212 151.934 93.9928 152.525 93.931C154.609 93.7131 156.492 95.6954 158.559 95.3569C159.027 95.2803 159.705 95.216 159.782 95.6834L159.782 95.6834Z" fill="#00160A"/>
<path fill-rule="evenodd" clip-rule="evenodd" d="M129.858 149.84C130.358 149.426 131.075 149.234 131.675 149.479C132.275 149.724 132.663 150.472 132.403 151.066C132.224 151.473 131.812 151.723 131.412 151.916C130.863 152.182 130.18 152.383 129.672 152.046C128.957 151.571 129.198 150.387 129.858 149.84M130.318 150.923C130.099 151.032 130.152 151.428 130.391 151.476C130.92 151.321 131.424 151.081 131.878 150.768C131.45 150.365 130.667 150.453 130.339 150.94L130.318 150.923Z" fill="#FFB61D"/>
<path fill-rule="evenodd" clip-rule="evenodd" d="M158.239 125.944C157.391 126.129 156.449 125.746 155.969 125.024C159.935 125.355 164.016 123.947 166.934 121.241C169.852 118.535 171.562 114.571 171.53 110.592C171.304 110.655 171.087 110.752 170.888 110.877C170.439 110.686 170.735 110.006 171.08 109.66L177.817 102.896C178.983 101.726 177.541 99.5219 175.89 99.529C174.238 99.5361 172.914 100.896 172.044 102.301C171.05 103.908 170.371 105.711 170.059 107.575L166.586 99.9964C166.177 100.78 166.413 101.648 166.653 102.535C166.806 103.098 166.961 103.669 166.954 104.23C166.924 106.657 164.111 107.917 161.778 108.586L155.431 110.407C153.751 110.889 151.434 111.094 150.75 109.486C150.08 107.91 147.398 107.866 146.677 109.419C145.994 110.889 144.037 111.13 142.416 111.124C139.331 111.112 136.245 110.949 133.176 110.636C132.705 110.588 132.2 110.521 131.85 110.203C131.536 109.916 131.41 109.483 131.298 109.073L129.282 101.693C129.062 100.888 128.847 100.005 129.19 99.2446C129.533 98.4843 130.706 98.0944 131.209 98.7605C130.223 94.7885 130.056 90.6156 130.719 86.5774L131.975 98.6639L162.577 97.3776C163.243 97.3496 164.018 97.26 164.363 96.69C164.665 96.1903 164.49 95.5505 164.304 94.997C163.555 92.7711 162.761 90.5605 161.922 88.367C161.663 87.6893 161.379 86.9835 160.824 86.5159C159.645 85.5225 157.876 86.0146 156.41 86.4915C150.612 88.378 144.366 89.223 138.382 88.0501C132.399 86.8771 126.706 83.5296 123.459 78.368C118.661 70.739 119.917 60.72 123.171 52.3154C125.21 47.0503 127.991 42.0179 131.817 37.8666C132.509 38.0821 132.747 38.9961 132.529 39.6876C132.365 40.2076 132.028 40.6435 131.692 41.0786L131.692 41.0787C131.581 41.2221 131.47 41.3654 131.366 41.5116C130.11 43.2688 129.744 45.63 130.409 47.6849C131.359 50.6177 134.201 52.619 137.181 53.4065C140.161 54.1941 143.303 53.9696 146.377 53.7394L155.437 53.0608C158.455 52.8348 161.62 52.6328 164.38 53.8749C167.14 55.117 169.272 58.3189 168.248 61.1672C167.933 62.0448 168.435 63.0353 169.152 63.6314C169.67 64.0619 170.284 64.3461 170.898 64.6303C171.134 64.7397 171.371 64.8492 171.601 64.967C175.102 66.7525 177.28 70.4849 178.136 74.3201C178.992 78.1554 178.707 82.1416 178.418 86.0605L177.814 94.2595C177.674 96.149 177.579 98.2086 178.666 99.76C179.976 101.629 178.538 104.205 176.841 105.73C176.55 105.992 176.246 106.25 175.94 106.511C174.462 107.768 172.937 109.065 172.615 110.928C171.69 116.284 169.393 122.038 164.436 124.268C163.759 124.572 163.052 124.8 162.345 125.028C161.662 125.249 160.978 125.469 160.322 125.758C159.701 126.032 159.107 126.367 158.514 126.701L158.514 126.701C157.655 127.185 156.797 127.668 155.86 127.965C152.957 128.886 149.789 127.877 147.093 126.461C140.888 123.202 135.899 117.689 133.275 111.191C134.288 111.186 134.892 112.28 135.327 113.196C137.943 118.713 142.48 123.296 147.97 125.967C151.237 127.557 155.509 128.342 158.239 125.944ZM168.603 65.2957C168.302 65.1693 167.973 65.0513 167.654 65.1214C167.239 65.2124 166.987 65.569 166.732 65.9293C166.613 66.0966 166.494 66.2646 166.358 66.4073C165.93 66.8575 164.869 66.748 165.014 66.1432C165.821 64.536 166.64 62.8916 166.883 61.1095C167.126 59.3274 166.692 57.3506 165.335 56.1697C164.397 55.3533 163.143 55.0081 161.919 54.7919C157.992 54.0984 153.988 54.4875 150.003 54.8749L150.003 54.8749C149.157 54.9572 148.311 55.0393 147.468 55.111C142.651 55.5204 137.586 55.5401 133.254 53.3949C130.31 51.937 128.557 48.4002 129.179 45.1743C124 51.4805 121.67 59.9103 122.274 68.0485C122.448 70.3886 122.856 72.7279 123.714 74.9122C125.834 80.3135 130.667 84.4159 136.152 86.3105C141.636 88.2051 147.697 88.033 153.303 86.5354C158.909 85.0379 164.105 82.2723 168.945 79.0718C169.26 78.8634 169.669 79.3191 169.571 79.6841C169.473 80.0491 169.111 80.2685 168.78 80.4505L160.384 85.0648C162.062 85.9459 162.969 87.7903 163.681 89.5463C164.59 91.7836 165.363 94.0756 165.997 96.4057L174.996 89.1772C175.309 88.9263 175.943 88.8025 175.956 89.2029L167.372 96.3418C166.938 96.7021 166.46 97.181 166.572 97.7333L174.736 91.0093C175.608 90.2912 176.54 89.4728 176.718 88.3573C177.515 83.3575 178.287 78.0783 176.456 73.3581C175.062 69.7645 172.159 66.7842 168.603 65.2957ZM134.662 109.83C135.022 110.141 135.532 110.194 136.008 110.226C138.491 110.392 140.986 110.386 143.468 110.207C144.4 110.139 145.502 109.931 145.874 109.073C146.322 108.041 147.402 107.317 148.526 107.293C149.651 107.269 150.76 107.948 151.251 108.96C151.778 110.047 153.327 109.991 154.508 109.735C157.643 109.056 160.729 108.145 163.731 107.011C165.09 106.498 165.881 105.007 165.998 103.559C166.115 102.11 165.687 100.679 165.263 99.289C161.484 100.156 157.588 100.35 153.715 100.54L130.3 101.691L131.778 108.207C131.886 108.683 132.007 109.184 132.346 109.535C132.685 109.886 133.319 110.002 133.647 109.641C132.625 107.239 131.581 104.648 132.111 102.092L134.082 108.71C134.204 109.119 134.34 109.55 134.662 109.83ZM163.837 99.0189C164.303 98.9912 164.823 98.9373 165.123 98.5799C165.423 98.2224 165.194 97.4974 164.734 97.5767C157.644 98.7994 150.443 98.9187 143.236 99.0381H143.236H143.236C139.183 99.1052 135.129 99.1724 131.091 99.4359C130.478 99.4759 129.668 99.7337 129.721 100.346C131.461 100.934 133.347 100.832 135.181 100.723L163.837 99.0189ZM175.944 93.5638C176.379 93.1566 176.481 92.5156 176.559 91.9247L176.771 90.3038L167.433 98.055C167.293 98.1712 167.145 98.3003 167.104 98.4777C167.062 98.6646 167.151 98.8537 167.237 99.0248L170.126 104.751C170.726 100.509 172.815 96.4913 175.944 93.5638ZM176.5 95.3953C176.526 94.9568 176.536 94.4684 176.247 94.1379C174.8 95.8316 173.53 97.6752 172.461 99.6296C172.33 99.8701 172.217 100.208 172.426 100.385C173.445 99.5324 174.628 98.8761 175.89 98.4616C176.266 98.338 176.354 97.8543 176.377 97.4588L176.5 95.3953ZM138.475 138.843C127.946 143.117 119.472 152.177 115.91 162.967C120.093 165.713 130.707 168.752 130.707 168.752C132.26 169.151 133.949 169.004 135.41 168.341C128.903 167.678 122.546 165.582 116.921 162.245C121.831 150.004 132.83 140.384 145.615 137.148C146.692 139.393 147.808 141.693 149.624 143.396C151.44 145.099 154.14 146.096 156.473 145.224C159.818 143.974 163.009 142.311 165.951 140.286C167.119 142.611 167.349 145.388 166.603 147.879L166.381 148.537C166.463 148.32 166.537 148.1 166.603 147.879L168.017 143.698L182.208 152.419C185.03 154.154 187.904 155.932 190.043 158.462C192.239 161.061 193.506 164.262 194.772 167.461C196.066 170.731 197.359 173.999 199.644 176.622C195.421 179.706 190.812 182.26 185.959 184.207L182.007 170.293L187.044 200.695C187.27 195.481 186.93 190.243 186.032 185.102C191.469 183.176 196.542 180.227 200.904 176.453C198.117 173.905 196.773 170.345 195.418 166.755C194.445 164.18 193.467 161.589 191.946 159.346C187.553 152.869 174.968 145.834 169.936 143.022C168.653 142.304 167.861 141.862 167.821 141.773C164.775 137.54 162.935 132.449 162.571 127.247C161.973 131.492 162.804 135.926 164.9 139.666C161.708 141.945 158.066 144.045 154.148 143.86C150.231 143.675 146.265 140.257 146.893 136.386C150.046 135.676 152.369 132.341 151.94 129.137C150.747 134.071 145.384 136.151 140.47 138.057L140.468 138.058L140.467 138.058C139.791 138.321 139.122 138.58 138.475 138.843ZM114.242 210C111.702 210.585 108.653 211.801 106.597 214.243C105.159 215.95 104.176 217.275 103.348 218.391C101.978 220.237 101.032 221.511 99.1566 222.998C100.225 222.345 101.46 223.766 101.523 225.017C101.545 225.451 101.505 225.894 101.465 226.335C101.39 227.166 101.316 227.99 101.657 228.733C102.55 228.18 103.466 227.605 104.083 226.754C104.699 225.904 104.95 224.699 104.411 223.798C104.227 223.489 104.497 223.115 104.755 222.865C106.344 221.32 108.154 220.003 110.112 218.966C110.39 219.791 110.305 220.731 109.885 221.494L110.842 222.61L108.634 228.138L114.159 222.525C115.259 221.408 116.767 220.195 118.22 220.784C118.958 221.084 119.424 221.768 119.881 222.44C119.983 222.589 120.084 222.737 120.187 222.88C121.302 224.425 122.953 225.576 124.788 226.087C124.816 225.592 125.074 225.115 125.473 224.822C126.019 225.714 126.915 226.386 127.925 226.659L126.558 220.815C126.486 220.506 126.418 220.165 126.568 219.886C126.946 219.184 128.033 219.676 128.54 220.29C129.048 220.905 129.8 221.673 130.489 221.273L129.94 219.382C129.755 218.744 130.064 217.677 130.634 218.017C130.821 218.129 130.889 218.362 130.943 218.573L131.986 222.708C133.311 221.198 133.169 218.814 132.193 217.058C132.045 216.793 131.922 216.51 131.792 216.213C131.063 214.544 130.126 212.397 123.49 210.019C122.515 209.67 121.42 209.636 120.325 209.602C119.778 209.585 119.23 209.568 118.698 209.512C118.289 209.469 116.943 209.489 115.226 209.798C117.178 223.965 115.795 223.975 114.242 210ZM115.063 208.593C115.605 208.52 116.159 208.483 116.724 208.486C116.637 208.486 134.494 207.634 134.494 220.939C134.494 222.227 133.731 223.811 132.451 223.765C135.157 230.655 138.311 237.368 141.886 243.849C138.491 244.956 134.858 245.329 131.309 244.935C126.579 249.519 118.94 250.784 112.985 247.969C113.776 249.309 111.355 250.127 109.83 249.823L93.6338 246.596C92.3606 246.342 90.7753 245.727 90.7963 244.429C90.812 243.464 91.7521 242.816 92.5636 242.293C97.6448 239.019 101.617 234.056 103.699 228.382C102.981 230.143 99.6836 229.395 99.7956 227.496C95.3031 225.8 90.7896 229.674 87.5401 233.21L69.0725 253.304L136.055 256.676C139.819 256.866 142.836 253.758 145.297 250.903L162.634 230.787L135.07 228.366C145.107 228.372 155.145 228.965 165.113 230.139C157.575 239.188 149.746 247.994 141.642 256.54C140.419 257.829 138.425 257.904 136.648 257.887C114.011 257.665 91.3815 256.67 68.8124 254.906C67.6962 254.411 68.3943 252.721 69.2192 251.821L86.1094 233.385C89.9184 229.227 95.1667 224.669 100.478 226.562C101.107 226.144 100.58 225.595 99.9732 224.964C99.5666 224.541 99.1245 224.081 98.9713 223.599C98.77 222.966 99.1546 222.31 99.5225 221.757C103.213 216.208 107.878 210.11 114.107 208.76C112.566 194.185 112.313 178.988 117.947 165.472C114.172 179.471 113.187 194.216 115.063 208.593ZM167.624 174.393C167.615 173.278 167.792 172.136 167.966 171.009C168.337 168.605 168.698 166.269 167.227 164.399C165.933 162.756 163.664 162.244 161.573 162.192C157.81 162.099 153.802 163.041 151.145 165.707C150.828 166.025 150.704 166.877 151.051 166.8C151.849 166.624 152.507 166.259 153.155 165.899C153.73 165.58 154.296 165.266 154.943 165.094C156.318 164.727 157.894 164.83 159.016 165.707C156.208 165.196 150.798 166.801 151.145 168.17C151.399 169.174 152.975 168.571 154.368 168.038C154.875 167.844 155.358 167.66 155.743 167.566C156.992 167.261 158.865 167.396 158.884 168.682C158.895 169.459 158.119 169.982 157.437 170.355C156.916 170.64 156.194 170.917 155.472 171.195C154.027 171.751 152.583 172.307 152.749 172.916C152.982 173.77 154.094 173.415 155.34 173.018C156.312 172.707 157.365 172.371 158.145 172.563C159.874 172.989 160.622 174.982 161.098 176.698L161.346 177.591L161.346 177.592C163.835 186.578 166.334 195.596 170.056 204.144C172.632 210.06 175.933 215.898 181.072 219.802C181.674 220.259 182.333 220.701 183.085 220.787C183.816 220.87 184.538 220.605 185.211 220.31C190.523 217.981 194.701 213.487 197.389 208.348C198.464 206.292 199.328 204.1 199.651 201.803C199.941 199.744 199.79 197.65 199.586 195.58C199.158 191.223 198.502 186.888 197.619 182.599C197.406 181.565 197.242 180.32 198.019 179.604C199.158 184.771 199.985 190.007 200.494 195.274C200.718 197.59 200.879 199.937 200.517 202.235C200.136 204.65 199.185 206.945 198.005 209.085C195.388 213.83 191.591 219.054 187.053 222.016C186.318 222.495 185.543 222.954 184.679 223.107C182.769 223.445 180.945 222.236 179.493 220.95C172.158 214.453 168.48 203.721 165.427 194.409C164.41 191.309 163.433 188.196 162.497 185.07C162.603 186.292 162.579 187.784 161.525 188.41C160.852 188.809 160.004 188.683 159.236 188.535C153.108 187.358 147.082 185.651 141.247 183.44C140.221 183.051 139.098 182.549 138.685 181.533C138.037 179.937 139.511 178.332 140.84 177.236L149.586 170.028C149.801 169.85 150.047 169.662 150.326 169.682C150.604 169.702 150.841 170.07 150.644 170.268L141.259 177.956C140.195 178.828 139.023 180.217 139.728 181.397C140.039 181.918 140.633 182.187 141.194 182.418C146.776 184.714 152.656 186.206 158.561 187.456C159.3 187.612 160.081 187.763 160.796 187.521C161.511 187.279 162.099 186.492 161.846 185.781L158.795 177.193C158.392 176.057 158.163 174.458 159.254 173.946C157.461 173.347 155.443 173.447 153.719 174.221C152.676 174.689 151.837 172.939 152.494 172.004C153.046 171.218 154.015 170.923 154.955 170.637C155.134 170.582 155.312 170.528 155.486 170.471C156.571 170.114 157.754 169.31 157.675 168.17C155.777 168.46 153.905 168.919 152.088 169.539C151.226 169.834 150.343 168.997 150.125 168.113C149.541 165.742 151.933 163.715 154.185 162.774C156.529 161.794 159.054 161.25 161.593 161.177C162.109 161.162 162.408 160.601 162.598 160.121L165.077 153.861L159.611 152.322L155.734 161.622C154.914 161.194 155.332 159.96 155.802 159.164C157.32 156.591 158.287 153.695 158.619 150.726C160.889 150.425 163.269 151.062 165.085 152.457C165.38 152.684 165.673 152.948 165.791 153.301C165.942 153.757 165.768 154.251 165.597 154.699L163.055 161.338C165.328 161.34 167.536 162.777 168.457 164.855C169.258 166.661 169.098 168.663 168.937 170.668C168.872 171.488 168.806 172.309 168.806 173.117C168.806 178.37 171.618 183.159 174.343 187.651L177.221 192.394C178.151 193.927 179.087 195.468 180.249 196.834C182.46 199.431 185.479 201.331 188.778 202.199C185.882 202.397 183.067 200.961 180.965 198.96C178.864 196.958 177.361 194.424 175.885 191.925L171.307 184.171C169.553 181.2 167.652 177.843 167.624 174.393ZM159.692 175.342C159.625 175.149 159.537 174.936 159.348 174.86C159.031 175.357 159.167 176.006 159.328 176.573C159.959 178.791 160.815 180.945 161.878 182.992C161.462 180.369 160.575 177.847 159.692 175.342ZM159.466 151.426C160.851 152.13 162.395 152.52 163.948 152.556C162.613 151.739 161.028 151.34 159.466 151.426ZM162.131 184.23C162.056 184.442 162.224 184.701 162.447 184.72C162.382 184.154 162.205 183.6 161.928 183.102C161.818 183.465 161.882 183.877 162.098 184.189L162.131 184.23ZM182.793 230.324C182.493 230.213 182.498 229.793 182.558 229.479L183.479 224.668C183.537 224.366 183.668 223.994 183.975 223.972C184.362 223.944 184.498 224.474 184.481 224.861C184.412 226.518 184.084 228.165 183.513 229.723C183.393 230.05 183.121 230.444 182.793 230.324ZM99.2711 245.873C96.7439 246.209 93.9002 246.464 91.9099 244.871C91.7861 244.772 91.6633 244.661 91.6026 244.514C91.3468 243.897 92.2518 243.504 92.9023 243.349C95.1608 242.812 96.839 240.954 98.2472 239.109C101.43 234.937 104.028 230.32 105.942 225.434C105.98 225.336 106.018 225.238 106.057 225.139C106.753 223.352 107.487 221.467 109.053 220.383C109.678 223.123 109.028 226.126 107.326 228.362C107.594 228.872 108.298 229.013 108.843 228.827C109.388 228.64 109.81 228.212 110.21 227.798L114.631 223.227C115.669 222.154 117.313 221.018 118.487 221.94C118.87 222.242 119.076 222.692 119.283 223.143C119.361 223.315 119.44 223.487 119.529 223.65C120.545 225.529 122.659 226.148 124.801 226.775C125.803 227.069 126.811 227.364 127.715 227.791C128.027 227.938 128.475 228.07 128.655 227.776C128.717 227.677 128.723 227.554 128.726 227.438C128.785 225.13 128.264 222.81 127.222 220.749C129.11 221.67 131.169 222.776 131.863 224.759C134.12 231.217 136.876 237.501 140.097 243.536C136.225 244.244 132.206 244.14 128.376 243.231C128.298 244.182 129.089 245.119 130.039 245.201C128.147 245.773 126.265 246.38 124.394 247.021L125.816 248.194C120.954 248.511 116.047 248.124 111.296 247.048C111.383 247.823 111.541 248.59 111.768 249.337C108.251 248.725 104.783 247.831 101.408 246.666L101.971 245.514L99.2711 245.873Z" fill="#00160A"/>
<path fill-rule="evenodd" clip-rule="evenodd" d="M131.298 148.007C130.932 148.162 130.46 148.173 130.18 147.89C129.834 147.54 129.95 146.95 130.166 146.508C130.357 146.115 130.624 145.737 131.014 145.542C131.404 145.347 131.938 145.391 132.207 145.734C132.373 145.944 132.416 146.229 132.394 146.496C132.339 147.147 131.9 147.752 131.298 148.007Z" fill="#FFB61D"/>
<path fill-rule="evenodd" clip-rule="evenodd" d="M141.092 95.8254C140.528 96.0728 140.023 95.3751 139.442 95.1716C138.835 94.9592 138.19 95.3131 137.64 95.646C136.482 96.3468 135.303 97.012 134.104 97.6405C133.858 97.7694 133.591 97.9007 133.316 97.8647C133.04 97.8287 132.783 97.5436 132.884 97.2849C132.94 97.1397 133.085 97.0515 133.22 96.9739C134.229 96.3948 135.238 95.8156 136.247 95.2365C137.55 94.4886 139.052 93.715 140.486 94.1627C140.853 94.2771 141.214 94.4897 141.381 94.8353C141.549 95.1809 141.444 95.6711 141.092 95.8254V95.8254Z" fill="#00160A"/>
<path fill-rule="evenodd" clip-rule="evenodd" d="M143.584 117.249C143.241 118.081 142.719 119.048 141.819 119.09C141.015 119.129 140.386 118.35 140.196 117.567C139.933 116.477 140.348 115.176 141.349 114.67C142.35 114.164 143.82 114.813 143.902 115.932C143.935 116.387 143.758 116.827 143.584 117.249H143.584Z" fill="#FFB61D"/>
<path fill-rule="evenodd" clip-rule="evenodd" d="M161.194 116.545L161.203 116.721C161.255 117.582 161.445 118.554 162.223 118.879C162.965 119.19 163.823 118.674 164.268 118.003C164.889 117.069 164.944 115.705 164.176 114.887C163.409 114.069 161.805 114.176 161.346 115.199C161.16 115.615 161.175 116.09 161.194 116.545Z" fill="#FFB61D"/>
<path fill-rule="evenodd" clip-rule="evenodd" d="M162.746 100.689C162.981 100.627 163.273 100.625 163.419 100.818C163.516 100.948 163.515 101.124 163.506 101.285C163.468 101.993 163.164 102.883 162.455 102.899C161.91 102.911 161.502 102.285 161.613 101.751C161.724 101.217 162.219 100.828 162.746 100.689V100.689Z" fill="#FFB61D"/>
<path fill-rule="evenodd" clip-rule="evenodd" d="M161.55 106.503C161.203 105.889 161.905 105.225 162.515 104.872C163.022 104.579 163.82 104.37 164.064 104.902C164.233 105.268 163.954 105.673 163.691 105.978C163.408 106.307 163.107 106.647 162.703 106.807C162.3 106.967 161.763 106.881 161.55 106.503L161.55 106.503Z" fill="#FFB61D"/>
<path fill-rule="evenodd" clip-rule="evenodd" d="M156.709 103.624C156.617 103.863 156.516 104.111 156.322 104.279C156.054 104.512 155.656 104.542 155.313 104.448C154.62 104.259 154.092 103.558 154.135 102.84C154.179 102.122 154.818 101.48 155.537 101.466C156.256 101.452 156.931 102.101 156.912 102.82C156.905 103.098 156.808 103.364 156.709 103.624Z" fill="#00160A"/>
<path fill-rule="evenodd" clip-rule="evenodd" d="M139.361 104.7C138.564 104.618 137.97 103.702 138.22 102.94C138.47 102.179 139.492 101.794 140.182 102.2C140.873 102.606 141.032 103.686 140.488 104.275C140.206 104.58 139.775 104.743 139.361 104.7H139.361Z" fill="#00160A"/>
<path fill-rule="evenodd" clip-rule="evenodd" d="M148.749 115.757L150.328 115.463L150.347 115.71C150.467 117.438 150.186 118.248 149.504 118.141C148.81 118.032 148.553 117.278 148.732 115.879L148.749 115.757ZM149.975 115.907L149.27 116.104C149.176 117.093 149.288 117.625 149.607 117.7C149.925 117.775 150.048 117.177 149.975 115.907Z" fill="#00160A"/>
<path fill-rule="evenodd" clip-rule="evenodd" d="M151.942 115.405L154.056 115.115L154.081 115.353C154.242 117.061 153.866 117.862 152.952 117.756C152.021 117.648 151.677 116.902 151.921 115.516L151.942 115.405ZM152.289 115.587C152.148 116.419 152.3 117.318 152.777 117.381C153.255 117.445 153.602 116.869 153.492 115.799L153.314 115.752C153.176 115.717 153.065 115.691 152.981 115.677L152.869 115.658C152.725 115.637 152.531 115.613 152.289 115.587Z" fill="#00160A"/>
<path fill-rule="evenodd" clip-rule="evenodd" d="M128.069 185.8C127.566 186.546 127.062 187.293 126.559 188.039C126.253 188.034 126.234 187.582 126.321 187.288C126.791 185.705 127.261 184.123 127.731 182.54C127.4 182.392 127.094 182.784 126.941 183.112C125.39 186.43 123.833 189.762 122.779 193.27C121.725 196.777 121.185 200.493 121.713 204.117C122.057 203.314 122.4 202.512 122.744 201.709C123.29 200.434 123.838 199.154 124.545 197.96C125.314 196.66 126.266 195.473 127.002 194.154C127.739 192.835 128.262 191.326 128.064 189.829C127.766 190.242 127.469 190.656 127.172 191.069C126.331 189.433 128.597 187.562 128.069 185.8Z" fill="#FFB61D"/>
<path fill-rule="evenodd" clip-rule="evenodd" d="M106.358 184.031C107.121 184.041 106.462 182.448 107.149 182.115C107.584 181.903 107.985 182.457 108.148 182.912C109.248 185.982 109.893 189.215 110.055 192.472C110.238 196.159 112.767 199.741 111.739 203.287C111.666 203.538 111.569 203.795 111.374 203.969C110.675 204.594 109.659 203.683 109.215 202.858C107.69 200.024 106.651 196.929 106.158 193.749C106.049 193.049 105.96 192.325 105.619 191.704C105.333 191.182 104.885 190.765 104.571 190.259C103.953 189.26 103.911 188.022 103.888 186.848C103.845 184.703 103.802 182.558 103.76 180.413C103.744 179.633 103.931 178.605 104.706 178.515C105.538 180.253 106.098 182.121 106.358 184.031Z" fill="#FFB61D"/>
<path fill-rule="evenodd" clip-rule="evenodd" d="M91.9099 244.871C93.9002 246.464 96.7439 246.209 99.2711 245.873C100.171 245.753 101.071 245.633 101.971 245.514C101.783 245.898 101.596 246.282 101.408 246.666C104.783 247.831 108.251 248.725 111.768 249.337C111.541 248.59 111.383 247.823 111.296 247.048C116.047 248.124 120.954 248.511 125.816 248.194C125.342 247.803 124.868 247.412 124.394 247.021C126.265 246.38 128.147 245.773 130.04 245.201C129.089 245.119 128.298 244.182 128.376 243.231C132.206 244.14 136.225 244.244 140.098 243.536C136.876 237.501 134.12 231.217 131.863 224.759C131.169 222.776 129.11 221.67 127.222 220.749C128.264 222.81 128.785 225.13 128.726 227.438C128.723 227.554 128.717 227.677 128.655 227.776C128.475 228.07 128.027 227.938 127.715 227.791C124.88 226.452 121.02 226.408 119.529 223.65C119.208 223.058 119.016 222.357 118.487 221.94C117.313 221.018 115.669 222.154 114.631 223.227C113.157 224.751 111.684 226.275 110.21 227.798C109.81 228.212 109.388 228.64 108.843 228.827C108.298 229.013 107.594 228.872 107.326 228.362C109.028 226.126 109.678 223.123 109.053 220.383C107.401 221.527 106.674 223.563 105.942 225.434C104.028 230.32 101.43 234.937 98.2472 239.109C96.839 240.954 95.1608 242.812 92.9024 243.349C92.2518 243.504 91.3468 243.897 91.6027 244.514C91.6633 244.661 91.7861 244.772 91.9099 244.871Z" fill="white"/>
<path fill-rule="evenodd" clip-rule="evenodd" d="M130.83 208.955C129.235 194.206 128.9 178.786 134.608 165.093C130.753 179.39 129.808 194.464 131.848 209.13C133.89 223.81 132.423 223.69 130.83 208.955Z" fill="#00160A"/>
<path fill-rule="evenodd" clip-rule="evenodd" d="M113.335 169.813C113.426 168.827 113.556 167.846 113.724 166.87C113.812 166.354 114.574 166.224 114.991 166.542C115.408 166.859 115.555 167.411 115.668 167.923C117.416 175.796 117.505 184.034 115.925 191.943C115.776 192.69 115.387 193.618 114.627 193.574C113.962 193.536 113.63 192.77 113.448 192.13C112.003 187.031 110.714 181.887 109.583 176.709C109.291 175.372 109.008 174.009 109.126 172.645C109.244 171.281 109.823 169.894 110.944 169.108C111.377 168.805 111.911 168.597 112.43 168.698C112.948 168.799 113.407 169.29 113.335 169.813" fill="#FFB61D"/>
<path fill-rule="evenodd" clip-rule="evenodd" d="M128.454 220.548C129.016 221.517 130.89 221.858 130.631 221.255C130.373 220.652 130.292 220.145 130.034 219.542C129.772 218.932 129.948 217.834 130.556 218.103C130.755 218.191 130.851 218.414 130.93 218.617C131.443 219.943 131.473 221.382 131.986 222.708C133.897 221.049 132.706 217.021 131.523 215.397C130.34 213.773 129.93 211.369 121.827 209.542C120.312 209.2 118.56 209.21 116.954 209.236C115.898 209.254 108.863 210.448 105.511 214.863C102.159 219.279 101.852 220.264 99.1566 222.998C100.163 222.708 101.259 223.599 101.474 224.832C101.689 226.066 100.816 227.76 101.474 228.825C105.174 227.96 104.572 224.854 104.797 224.575C106.187 222.848 107.341 220.125 109.64 220.052C110.016 220.837 109.863 221.73 109.723 222.589C110.085 222.919 108.991 226.439 108.485 228.358C110.085 226.276 112.49 225.173 114.09 223.092C115.046 221.849 116.395 220.46 117.909 220.869C118.848 221.122 119.402 222.378 120.064 223.092C121.359 224.489 122.904 225.803 124.788 226.087C124.755 225.593 125.229 225.404 125.59 225.063C126.24 225.883 127.056 226.655 128.092 226.803C127.403 224.925 127.47 222.927 126.781 221.049C126.671 220.751 126.562 220.42 126.677 220.125C126.967 219.383 127.893 219.579 128.454 220.548Z" fill="#FFB61D"/>
<path fill-rule="evenodd" clip-rule="evenodd" d="M203.373 108.264C204.323 108.241 205.048 108.428 206.418 108.975C206.418 108.975 208.914 110.156 208.824 110.456C208.734 110.757 207.316 110.568 206.805 110.361L206.162 110.097C204.967 109.613 204.328 109.422 203.645 109.4L203.558 109.398L203.553 109.437L203.55 109.482C203.535 109.714 203.585 110.02 203.66 110.196C203.799 110.523 203.965 110.845 204.153 111.16L204.275 111.359L204.417 111.375C206.249 111.606 208.02 112.316 209.172 113.336L209.275 113.43C210.561 114.629 211.12 115.491 210.829 116.163C210.507 116.905 209.6 116.846 208.438 116.363C206.756 115.665 204.987 114.28 203.737 112.583L203.637 112.444L203.605 112.443C203.389 112.431 203.173 112.428 202.959 112.432L202.798 112.437C200.499 112.533 198.878 113.533 198.428 115.328C198.277 115.93 198.369 116.555 198.653 117.165L198.709 117.279L198.73 117.28C200.841 117.366 202.834 117.985 203.938 118.987L204.024 119.067C204.619 119.643 204.994 120.127 205.156 120.541C205.375 121.101 205.213 121.63 204.691 121.862C204.069 122.137 202.969 121.903 201.744 121.334C200.194 120.614 198.888 119.609 198.083 118.46L198.047 118.408L197.933 118.41C197.829 118.413 197.725 118.417 197.621 118.423L197.465 118.432C194.966 118.604 193.137 119.575 192.669 121.109C192.494 121.681 192.635 122.466 193.007 123.285L193.027 123.327L193.132 123.325C194.347 123.31 195.576 123.709 196.666 124.58L196.845 124.725C196.979 124.831 197.226 125.02 197.203 125.002L197.359 125.127C198.06 125.703 198.346 126.175 198.018 126.828C197.184 128.487 195.29 127.92 193.61 126.151C193.166 125.683 192.773 125.174 192.449 124.65L192.383 124.541L192.293 124.559C191.424 124.745 190.589 125.197 189.872 125.882L189.783 125.969C188.32 127.429 187.956 129.31 188.928 130.789L188.995 130.888L189.054 130.915C189.392 131.071 189.761 131.265 190.2 131.513L190.649 131.77L191.181 132.077C191.237 132.109 191.284 132.139 191.328 132.174C191.465 132.284 191.553 132.394 191.563 132.619C191.582 133.019 191.321 133.187 191.051 133.223C190.981 133.232 190.919 133.23 190.851 133.221C190.705 133.204 190.487 133.148 190.237 133.067C189.638 132.874 189.089 132.627 188.811 132.377C188.619 132.203 188.445 132.023 188.29 131.835L188.272 131.814L188.267 131.812C187.982 131.697 187.719 131.615 187.441 131.552L187.357 131.533C186.448 131.342 185.478 131.4 184.034 131.662C181.755 132.075 180.671 134.241 181.064 136.037L181.074 136.079L181.109 136.092C181.492 136.234 181.884 136.455 182.418 136.801L182.888 137.107C183.407 137.44 183.757 137.77 183.958 138.216C184.206 138.767 183.774 139.69 183.035 139.481C181.609 139.079 180.683 138.191 180.213 137.122L180.173 137.026L180.152 137.023C177.873 136.699 174.829 137.857 172.966 139.669L172.858 139.776C172.113 140.529 171.668 141.271 171.547 141.973L171.542 142.005L171.662 141.996C172.182 141.962 172.651 141.973 173.032 142.033L173.144 142.053C174.881 142.389 175.952 142.767 176.469 143.229C177.134 143.824 176.967 144.561 176.283 145.064C175.466 145.665 173.529 146.186 173.017 145.921C171.662 145.221 170.847 144.332 170.529 143.356L170.507 143.284L170.484 143.288C169.757 143.421 168.981 143.625 168.256 143.889L168.101 143.947C166.057 144.727 164.957 145.861 164.666 147.063C164.314 148.513 167.628 151.454 167.372 151.635C167.116 151.816 166.038 150.851 165.509 150.35L165.419 150.265C163.924 148.854 163.422 148.143 163.535 146.956C163.703 145.185 165.291 143.803 167.696 142.886C168.545 142.562 169.465 142.315 170.334 142.161L170.383 142.152L170.388 142.099C170.474 141.097 171.014 140.054 171.967 139.062L172.05 138.977C173.997 137.008 177.135 135.705 179.74 135.843L179.875 135.852L179.867 135.771C179.656 133.557 181.03 131.129 183.69 130.572L183.831 130.544L184.216 130.477C185.466 130.27 186.409 130.22 187.319 130.371L187.476 130.399L187.453 130.333C186.909 128.644 187.454 126.745 188.89 125.258L188.981 125.165C189.806 124.342 190.781 123.776 191.808 123.506L191.858 123.493L191.83 123.423C191.476 122.521 191.357 121.631 191.553 120.879L191.582 120.777C192.206 118.733 194.39 117.542 197.232 117.311L197.388 117.299L197.464 117.294L197.442 117.232C197.207 116.564 197.146 115.866 197.3 115.163L197.326 115.052C197.915 112.7 199.996 111.416 202.751 111.302L202.927 111.297L202.906 111.258C202.827 111.105 202.752 110.951 202.683 110.796L202.614 110.64C202.469 110.299 202.39 109.815 202.416 109.408C202.457 108.775 202.747 108.279 203.373 108.264ZM172.928 143.168C172.634 143.111 172.246 143.098 171.8 143.124L171.662 143.133L171.679 143.174C171.929 143.765 172.464 144.31 173.304 144.785L173.455 144.868L173.517 144.863L173.603 144.853C173.785 144.829 174.018 144.78 174.26 144.715C174.821 144.564 175.332 144.353 175.61 144.149L175.645 144.122L175.706 144.071L175.678 144.048C175.344 143.78 174.484 143.479 173.081 143.198L172.928 143.168ZM193.713 124.495L193.728 124.517C193.94 124.811 194.176 125.097 194.434 125.369C195.627 126.625 196.634 126.947 196.98 126.36L196.986 126.348C196.983 126.348 196.98 126.347 196.976 126.343L196.956 126.318C196.887 126.222 196.767 126.107 196.578 125.956L196.47 125.871L196.17 125.641L196.046 125.541C195.367 124.974 194.622 124.639 193.863 124.516L193.713 124.495ZM199.594 118.49L199.63 118.528C200.298 119.21 201.193 119.825 202.222 120.304C202.964 120.648 203.643 120.832 204.008 120.848L204.048 120.849L204.027 120.812C203.904 120.601 203.67 120.315 203.323 119.971L203.234 119.884C202.542 119.214 201.254 118.722 199.78 118.515L199.594 118.49ZM205.285 112.686L205.394 112.805C206.424 113.92 207.683 114.82 208.874 115.314C209.149 115.428 209.395 115.506 209.592 115.546L209.652 115.556L209.614 115.495C209.409 115.178 209.037 114.761 208.5 114.261C207.751 113.562 206.616 113.013 205.367 112.705L205.285 112.686Z" fill="#FFB61D"/>
<path fill-rule="evenodd" clip-rule="evenodd" d="M167.654 65.1214C167.046 65.2547 166.787 65.9573 166.358 66.4074C165.93 66.8575 164.869 66.748 165.014 66.1433C165.821 64.536 166.64 62.8916 166.883 61.1095C167.126 59.3274 166.692 57.3506 165.335 56.1698C164.397 55.3533 163.143 55.0082 161.919 54.7919C157.159 53.9511 152.284 54.7017 147.468 55.111C142.651 55.5204 137.586 55.5401 133.254 53.395C130.31 51.937 128.557 48.4002 129.179 45.1743C124 51.4805 121.67 59.9103 122.274 68.0485C122.448 70.3886 122.856 72.7279 123.714 74.9122C125.834 80.3135 130.667 84.4159 136.152 86.3105C141.636 88.2051 147.697 88.033 153.303 86.5355C158.909 85.0379 164.105 82.2723 168.945 79.0718C169.26 78.8634 169.669 79.3191 169.571 79.6841C169.473 80.0491 169.111 80.2685 168.78 80.4505C165.981 81.9886 163.183 83.5267 160.384 85.0648C162.062 85.946 162.969 87.7903 163.681 89.5463C164.59 91.7836 165.363 94.0756 165.997 96.4057C168.996 93.9962 171.996 91.5867 174.996 89.1772C175.309 88.9263 175.943 88.8025 175.956 89.203C173.095 91.5826 170.233 93.9622 167.372 96.3418C166.938 96.7021 166.46 97.1811 166.572 97.7333C169.293 95.492 172.015 93.2507 174.736 91.0093C175.608 90.2912 176.54 89.4728 176.718 88.3573C177.515 83.3575 178.287 78.0783 176.456 73.3581C175.062 69.7645 172.159 66.7842 168.603 65.2957C168.302 65.1694 167.973 65.0513 167.654 65.1214Z" fill="white"/>
<path fill-rule="evenodd" clip-rule="evenodd" d="M148.176 108.714C148.437 108.728 148.637 108.951 148.624 109.212L148.606 109.514C148.529 110.787 148.41 111.602 148.227 112.019C148.043 112.435 148.457 112.43 148.596 112.396C148.736 112.363 150.293 110.712 150.475 110.899C150.657 111.087 150.653 111.387 150.465 111.569L150.268 111.759C149.467 112.522 148.948 112.922 148.596 113.006C148.286 113.081 147.709 113.261 147.635 112.855C147.495 112.079 148.026 111.237 148.159 110.191C148.244 109.513 148.033 108.719 148.128 108.714L148.176 108.714Z" fill="#00160A"/>
</svg>
