<svg width="255" height="225" xmlns="http://www.w3.org/2000/svg" fill="none">

 <g>
  <title>Layer 1</title>
  <path id="svg_1" fill="#64FCD9" d="m149.41748,223.46264c58.146,0 66.389,-25.869 75.206,-30.622c8.816,-4.754 3.335,-14.293 9.117,-21.489c9.236,-11.493 14.834,-5.57 17.891,-20.48c3.056,-14.909 -2.501,-19.127 -2.501,-32.439c0,-26.67 12.776,-39.295 -3.539,-53.249c-16.315,-13.954 -43.561,-12.308 -70.507,-12.308c-50.015,0 -79.979,-68.5629 -146.6869,-47.9932c-22.9891,7.0887 -20.4483,16.7491 -15.3969,50.8882c2.1935,14.825 -14.3686,33.674 -11.495,50.521c5.2483,30.769 19.1093,26.595 45.2618,47.369c4.3875,3.486 10.7866,3.45 15.5697,7.024c8.0189,5.993 8.5346,15.311 23.5263,21.596c24.173,10.135 22.123,41.182 63.554,41.182z" clip-rule="evenodd" fill-rule="evenodd"/>
  <ellipse id="svg_2" fill="white" ry="13.824" rx="14.7009" cy="144.40801" cx="38.62865"/>
  <path id="svg_3" fill="white" d="m32.49298,94.74864c-2.5061,-6.258 -0.3169,-10.008 1.0863,-14.904c1.1721,-4.089 10.3384,-10.731 14.5571,-3.805c1.2411,2.038 0.7432,3.964 3.4557,5.754c6.5663,4.335 2.9842,-4.658 3.2283,-6.932c0.1191,-1.109 -0.8179,-3.666 -0.469,-4.737c0.366,-1.123 2.3169,-2.718 2.3169,-5.046c0,-2.328 -3.9684,-3.225 -5.0762,-3.797c-9.8443,-5.082 -16.1051,-13.572 -12.9851,-17.88c4.347,-6.0032 21.3833,3.442 26.5022,4.308c0.0663,0.011 0.9805,-4.761 1.7272,-5.8539c1.4939,-2.1864 3.145,-4.3087 5.1147,-6.0786c0.8823,-0.7928 2.0783,-1.2822 3.2534,-1.4408c3.518,-0.4747 7.117,-0.8639 10.641,-0.434c1.245,0.1519 8.66,-8.4301 11.552,-11.1984c22.183,-21.2392 66.652,4.643 42.412,39.8127c-4.455,6.464 -10.152,8.52 -10.888,10.805c-1.634,5.074 8.654,4.407 13.012,4.949c7.446,0.926 11.115,4.751 6.493,11.306c-2.879,4.084 -19.77,3.875 -27.169,0.922c-2.746,-1.096 -6.14,-5.888 -8.736,-1.957c-1.788,2.709 -8.761,8.456 -16.24,11.706c-3.377,1.468 -7.222,0.583 -10.103,1.894c-4.055,1.844 -16.0272,9.589 -21.0693,9.587c-5.078,-0.002 -11.6492,-6.113 -12.4093,-6.514c-1.1587,-0.611 -10.1225,-2.362 -14.5507,-9.195c-1.3391,-2.067 -4.7388,1.021 -5.6562,-1.271z" clip-rule="evenodd" fill-rule="evenodd"/>
  <ellipse id="svg_4" fill="#FFB61D" ry="1.53502" rx="1.55729" cy="58.83601" cx="119.08285"/>
  <circle id="svg_5" fill="#FFB61D" r="1.512" cy="55.63201" cx="107.68085"/>
  <circle id="svg_6" fill="white" r="20.52" cy="54.33601" cx="217.84085"/>
  <ellipse id="svg_7" fill="white" ry="50.9634" rx="59.6268" cy="170.37664" cx="153.30748"/>
  <path id="svg_8" fill="#00160A" d="m102.75748,198.16564l0.67,0.484c-1.511,1.355 -3.783,-0.33 -5.057,-1.909c-2.048,-2.54 -4.127,-5.24 -4.751,-8.443c-0.354,-1.822 -0.212,-3.7 -0.069,-5.551l0.578,-7.464c0.256,-3.308 0.513,-6.621 1.085,-9.889c1.55,-8.844 5.45,-17.264 11.194,-24.165l0.058,-0.07c1.014,-1.218 2.122,-2.548 2.102,-4.127c-0.041,-3.341 1.883,-6.464 4.409,-8.651c2.527,-2.187 5.62,-3.591 8.666,-4.965c1.38,-0.622 3.182,-1.18 4.252,-0.108c2.199,2.203 5.871,0.8 8.776,-0.32c3.568,-1.374 7.378,-2.114 11.201,-2.176c0.111,-0.002 0.223,-0.003 0.336,-0.005l0,0c2.295,-0.033 4.878,-0.07 6.278,-1.848c0.892,-1.132 2.596,-1.066 4.027,-0.895l9.841,1.177c0.752,0.09 1.653,0.295 1.89,1.015c0.636,1.928 2.878,2.715 4.822,3.301c6.912,2.084 13.668,4.914 19.536,9.119c5.868,4.205 10.827,9.862 13.459,16.584c-4.279,-5.848 -8.668,-11.806 -14.606,-15.959c-1.7,-1.189 -3.507,-2.215 -5.342,-3.182c-4.329,-2.283 -8.836,-4.25 -13.517,-5.679c-21.732,-6.633 -46.871,-0.481 -63.084,15.438c-2.351,2.308 -4.555,4.851 -5.888,7.864l1.761,0.546c-2.792,1.248 -4.865,3.981 -5.314,7.005c1.124,-1.924 2.725,-3.566 4.619,-4.739c-0.542,1.812 -1.952,3.267 -3.335,4.694c-1.762,1.819 -3.479,3.591 -3.296,5.993c0.836,-2.195 2.944,-3.852 5.274,-4.148c-3.697,3.613 -7.664,7.852 -7.546,13.019c1.348,-2.984 3.638,-5.534 6.461,-7.194l-4.063,5.459c-1.537,2.065 -3.155,4.425 -2.804,6.974c1.337,-2.399 3.248,-4.475 5.528,-6.005c-1.098,2.497 -2.665,4.786 -4.596,6.713c1.836,-0.222 3.604,-0.982 5.028,-2.163c-0.597,0.833 -1.135,1.774 -1.155,2.798c-0.02,1.025 0.644,2.125 1.658,2.272c0.307,-0.686 1.27,-0.976 1.905,-0.573c-1.925,1.873 -1.945,5.343 -0.041,7.237c0.169,-0.89 0.92,-1.641 1.811,-1.809c-1.42,2.482 -1.675,5.599 -0.678,8.28c0.301,-1.519 1.144,-2.924 2.341,-3.906c-0.69,3.602 -2.216,7.042 -4.424,9.971zm-0.84,-1.148c1.201,-0.012 1.949,-1.357 2.074,-2.552c0.15,-1.43 -0.205,-2.86 -0.557,-4.254l-2.091,-8.27c-0.394,0.125 -0.439,0.553 -0.487,1.002c-0.041,0.382 -0.084,0.78 -0.345,1.016c-0.53,-0.658 -0.59,-1.655 -0.143,-2.372c0.45,-0.724 0.155,-1.737 -0.484,-2.302c-0.639,-0.564 -1.528,-0.755 -2.38,-0.783c-0.461,-0.016 -0.951,0.02 -1.328,0.285c-0.376,0.265 -0.575,0.829 -0.307,1.204c0.797,1.116 1.396,2.373 1.762,3.695c0.028,0.099 0.054,0.199 0.081,0.3c0.182,0.686 0.369,1.392 0.871,1.881c0.388,0.378 0.487,0.955 0.566,1.492l0.639,4.345c0.116,0.791 0.232,1.597 0.099,2.386c-0.133,0.788 -0.559,1.569 -1.274,1.927l2.283,0.777c0.332,0.113 0.671,0.227 1.021,0.223zm24.885,-71.223c-0.45,0.095 -0.828,-0.3 -1.15,-0.638l-0.037,-0.038c-0.33,-0.345 -0.897,-0.646 -1.245,-0.319c-4.052,3.812 -8.663,7.029 -13.64,9.515c-0.903,0.452 -1.025,1.668 -1.025,2.678c0,0.337 0.323,0.811 0.533,0.547c1.026,-1.286 2.361,-2.284 3.68,-3.267c3.711,-2.767 7.466,-5.56 11.721,-7.384c0.516,-0.221 1.12,-0.534 1.163,-1.094zm40.726,-4.287c-0.23,-0.539 -0.883,-0.734 -1.459,-0.842c-1.568,-0.296 -3.164,-0.429 -4.759,-0.563c-2.19,-0.184 -4.377,-0.367 -6.485,-0.969c-0.675,-0.192 -1.253,0.492 -1.623,1.089c1.111,-0.116 2.229,-0.164 3.345,-0.143c1.943,0.035 3.876,0.277 5.805,0.519c0.98,0.123 1.967,0.247 2.907,0.551c0.109,0.036 0.22,0.074 0.331,0.112c0.641,0.22 1.304,0.448 1.938,0.246zm-20.746,8.283c0.444,0.101 0.867,0.433 0.934,0.884c0.066,0.449 -0.241,0.887 -0.634,1.116c-0.392,0.229 -0.856,0.293 -1.307,0.353l-1.356,0.18c-0.136,0.018 -0.276,0.037 -0.394,0.107c-0.341,0.202 -0.317,0.749 -0.038,1.03c0.278,0.282 0.706,0.352 1.102,0.351c1.845,-0.004 3.591,-1.331 4.154,-3.088c0.134,-0.417 0.205,-0.881 0.039,-1.286c-0.084,-0.206 -0.224,-0.384 -0.38,-0.543c-0.726,-0.735 -1.807,-1.059 -2.837,-0.986c-1.031,0.073 -2.011,0.512 -2.849,1.115c-0.402,0.289 -0.785,0.628 -1.013,1.067c-0.229,0.439 -0.278,0.997 -0.022,1.421c0.097,0.162 0.248,0.305 0.434,0.336c0.187,0.03 0.402,-0.09 0.425,-0.278c0.064,-0.521 0.444,-0.961 0.898,-1.226c0.453,-0.264 0.975,-0.381 1.49,-0.484c0.447,-0.089 0.91,-0.171 1.354,-0.069zm-36.354,25.768c0.507,-2.998 2.928,-5.436 5.752,-6.565c1.555,-0.623 3.335,-0.896 4.9,-0.296c0.386,0.148 0.76,0.352 1.038,0.658c0.262,0.287 0.426,0.65 0.55,1.018c0.795,2.358 -0.012,5.084 -1.72,6.894c-1.707,1.809 -4.194,2.758 -6.675,2.936c-0.795,0.057 -1.649,0.025 -2.306,-0.427c-0.656,-0.451 -0.982,-1.455 -0.476,-2.072c0.238,0.012 0.367,0.225 0.499,0.444c0.066,0.108 0.132,0.217 0.212,0.304c0.276,0.297 0.732,0.318 1.136,0.301c1.76,-0.074 3.546,-0.51 4.978,-1.535c1.433,-1.025 2.462,-2.699 2.432,-4.46c-0.01,-0.568 -0.133,-1.148 -0.455,-1.616c-0.528,-0.767 -1.525,-1.114 -2.455,-1.052c-0.929,0.061 -1.801,0.473 -2.592,0.964c-1.041,0.647 -2.004,1.459 -2.657,2.497c-0.652,1.037 -0.971,2.319 -0.695,3.514c-0.244,0.44 -0.97,0.352 -1.269,-0.052c-0.3,-0.405 -0.281,-0.959 -0.197,-1.455zm16.205,24.71c-1.287,0.829 -2.355,2.125 -2.553,3.643c-0.161,1.228 0.251,2.451 0.657,3.622c0.316,0.913 0.643,1.846 1.246,2.601c1.089,1.365 2.893,1.93 4.616,2.207c0.47,0.075 1.182,-0.137 1.014,-0.582c-1.819,-0.033 -3.609,-0.877 -4.794,-2.259c-1.184,-1.382 -1.743,-3.28 -1.498,-5.083c0.052,-0.38 0.138,-0.758 0.298,-1.106c0.322,-0.704 0.923,-1.246 1.574,-1.666c1.4,-0.905 3.105,-1.329 4.767,-1.186c1.601,0.138 3.202,0.841 4.179,2.117c0.978,1.276 1.211,3.159 0.348,4.515c-0.14,0.221 -0.242,0.611 0.015,0.657c1.389,-0.749 2.16,-2.399 2.082,-3.975c-0.078,-1.576 -0.91,-3.05 -2.053,-4.138c-0.633,-0.601 -1.382,-1.109 -2.23,-1.314c-1.119,-0.269 -2.289,0.009 -3.401,0.302c-1.481,0.389 -2.979,0.817 -4.267,1.645zm63.227,1.958c-4.655,-1.738 -9.714,-2.386 -14.657,-1.877c-2.073,0.213 -4.152,0.636 -6.015,1.569c-3.516,1.759 -6.03,5.382 -6.449,9.291c-0.418,3.91 1.273,7.982 4.337,10.445c1.162,0.935 2.481,1.634 3.801,2.335c0.902,0.478 1.804,0.956 2.658,1.51c0.244,0.233 -0.305,0.466 -0.626,0.363c-2.986,-0.964 -5.885,-2.43 -8.015,-4.734c-2.591,-2.803 -3.855,-6.784 -3.355,-10.568c0.499,-3.784 2.753,-7.3 5.983,-9.334c2.555,-1.609 5.61,-2.287 8.627,-2.396c3.017,-0.109 6.026,0.322 9.009,0.785c1.864,0.289 4.049,0.842 4.702,2.611zm-48.984,5.833c-0.212,-0.484 -1.062,-0.611 -1.217,-0.105c-0.988,3.213 -4.123,5.643 -7.482,5.797c-0.759,0.035 -1.519,-0.036 -2.275,-0.109c-1.629,-0.157 -3.309,-0.344 -4.736,-1.146c-2.051,-1.153 -3.286,-3.522 -3.3,-5.875c-0.015,-2.354 1.101,-4.641 2.796,-6.274c-0.235,-0.658 -1.245,-0.34 -1.747,0.148c-2.78,2.702 -3.257,7.366 -1.306,10.716c1.951,3.35 6.039,5.228 9.892,4.802c3.854,-0.425 7.333,-3.006 9.124,-6.444c0.244,-0.468 0.462,-1.026 0.251,-1.51zm-24.131,16.273c-0.628,2.408 -0.687,4.961 -0.173,7.395c0.231,1.092 0.256,1.693 0.261,1.806c0.001,0.013 0.001,0.019 0.001,0.019c0,0 0.001,-0.006 0.001,-0.019c0.005,-0.113 0.033,-0.717 0.269,-1.81c0.526,-2.439 0.401,-5.015 -0.359,-7.391zm3.335,1.456c-0.892,1.87 -0.782,4.183 0.284,5.958c0.24,0.399 0.421,0.723 0.555,0.962l0.001,0.001l0,0c0.18,0.322 0.274,0.49 0.307,0.478c0.035,-0.012 -0.003,-0.237 -0.082,-0.709c-0.032,-0.189 -0.07,-0.418 -0.113,-0.689l-0.952,-6.001zm2.511,2.387c-0.379,1.194 -0.1,2.574 0.711,3.527c0.829,0.974 1.1,1.286 0.847,0.032c-0.257,-1.279 -0.793,-2.502 -1.558,-3.559zm72.665,-13.575c-1.138,4.571 -4.775,8.034 -8.302,11.157c0.162,0.348 0.682,0.223 1.016,0.035c3.572,-2.01 6.462,-5.286 7.781,-9.167c1.319,-3.881 0.991,-8.34 -1.091,-11.871c-0.174,-0.296 -0.397,-0.612 -0.735,-0.678c-0.337,-0.066 -0.726,0.326 -0.528,0.607c2.001,2.834 2.698,6.551 1.859,9.917zm-51.353,-41.271c-0.009,-0.723 0.001,-1.506 0.438,-2.082c0.601,-0.794 1.742,-0.877 2.737,-0.891c0.445,-0.007 0.894,-0.012 1.327,0.091c0.92,0.219 1.653,0.898 2.307,1.582c0.145,0.152 0.299,0.339 0.263,0.545c-0.045,0.256 -0.365,0.374 -0.62,0.321c-0.169,-0.034 -0.321,-0.118 -0.473,-0.203l0,0l0,0l0,0l0,0l-0.001,0c-0.076,-0.042 -0.153,-0.085 -0.232,-0.121c-0.915,-0.42 -1.991,0.04 -2.813,0.622c-0.13,0.091 -0.269,0.209 -0.272,0.367c-0.003,0.159 0.133,0.282 0.261,0.376c1.111,0.814 2.534,1.191 3.902,1.034c0.327,-0.038 0.711,-0.158 0.796,-0.476c0.033,-0.124 0.021,-0.27 0.008,-0.412l0,0c-0.021,-0.236 -0.04,-0.459 0.158,-0.541c0.104,-0.042 0.221,-0.012 0.329,0.02c0.74,0.215 1.606,0.561 1.75,1.319c0.041,0.219 0.012,0.447 -0.058,0.659c-0.204,0.619 -0.772,1.103 -1.417,1.206c-0.286,0.045 -0.578,0.02 -0.866,-0.004c-0.754,-0.065 -1.508,-0.13 -2.255,-0.25c-1.371,-0.221 -2.712,-0.63 -3.974,-1.211c-0.438,-0.202 -0.893,-0.45 -1.114,-0.878c-0.169,-0.325 -0.177,-0.707 -0.181,-1.073zm28.166,-17.831c-0.441,-1.192 -1.506,-2.132 -2.743,-2.421c-0.383,-0.09 -0.815,-0.112 -1.139,0.11c-0.325,0.222 -0.436,0.762 -0.127,1.005c0.3,0.235 0.119,0.787 -0.248,0.892c-0.366,0.104 -0.761,-0.144 -0.944,-0.479c-0.183,-0.334 -0.202,-0.731 -0.204,-1.112c-0.003,-0.509 0.043,-1.076 0.419,-1.419c0.143,-0.131 0.321,-0.215 0.498,-0.294c0.732,-0.327 1.542,-0.605 2.324,-0.429c0.745,0.167 1.34,0.718 1.859,1.278c0.427,0.459 0.83,0.939 1.208,1.439c0.333,0.44 0.653,0.91 0.778,1.447c0.125,0.538 0.017,1.162 -0.398,1.526c-0.407,0.355 -1.032,0.386 -1.526,0.166c-0.436,-0.194 -0.808,-0.622 -0.775,-1.098c0.032,-0.476 0.617,-0.871 1.018,-0.611zm3.933,33.492c1.093,-0.031 2.112,-0.873 2.348,-1.941c0.144,-0.649 -0.034,-1.421 -0.6,-1.771c-0.413,-0.255 -0.933,-0.236 -1.418,-0.205c-0.671,0.043 -1.368,0.102 -1.951,0.437c-0.583,0.335 -1.017,1.029 -0.834,1.677c0.297,1.052 1.362,1.835 2.455,1.803zm0.14,-1.577c-0.211,0.057 -0.512,0.002 -0.531,-0.216c-0.008,-0.09 0.041,-0.176 0.096,-0.248c0.311,-0.402 0.903,-0.558 1.371,-0.362c-0.162,0.399 -0.519,0.714 -0.936,0.826zm0.565,-16.177c-0.178,-0.411 0.167,-0.89 0.586,-1.047c0.336,-0.126 0.7,-0.113 1.062,-0.1c0.09,0.003 0.18,0.007 0.269,0.008c0.448,0.005 0.943,-0.069 1.233,-0.41c0.103,-0.12 0.172,-0.297 0.094,-0.434c-0.081,-0.144 -0.274,-0.169 -0.439,-0.177c-1.141,-0.059 -2.489,-0.024 -3.147,0.91c-0.141,0.201 -0.487,0.133 -0.62,-0.074c-0.132,-0.207 -0.102,-0.478 -0.026,-0.712c0.269,-0.838 1.043,-1.447 1.888,-1.691c0.845,-0.244 1.753,-0.167 2.61,0.027c0.29,0.066 0.59,0.152 0.801,0.36c0.168,0.165 0.262,0.391 0.323,0.618c0.292,1.087 -0.139,2.331 -1.042,3.004c-0.902,0.672 -2.217,0.73 -3.175,0.139c-0.171,-0.105 -0.337,-0.237 -0.417,-0.421zm-3.912,19.198c0.53,0.635 1.158,1.212 1.919,1.536c1.539,0.653 3.507,0.05 4.415,-1.355c0.33,-0.511 0.478,-1.291 -0.011,-1.654c-0.783,1.646 -3.054,2.373 -4.647,1.487c-0.306,-0.169 -0.583,-0.386 -0.835,-0.628c-1.146,-1.097 -1.744,-2.888 -1.071,-4.325c0.219,-0.468 0.555,-0.873 0.923,-1.236c0.803,-0.792 1.951,-1.441 3.022,-1.089c0.045,0.015 0.089,0.031 0.134,0.048c0.15,0.055 0.3,0.11 0.458,0.101c0.205,-0.012 0.418,-0.195 0.366,-0.393c-0.016,-0.058 -0.052,-0.109 -0.09,-0.157c-0.662,-0.843 -1.962,-1.104 -2.898,-0.581c-1.114,0.623 -2.247,1.356 -2.839,2.486c-0.965,1.84 -0.177,4.165 1.154,5.76zm17.748,-28.383c-0.049,0.07 -0.037,0.168 -0.025,0.262c0.014,0.111 0.027,0.216 -0.064,0.261c-0.333,0.164 -0.733,0.148 -1.088,0.038c-0.971,-0.297 -1.621,-1.188 -2.17,-2.042c-0.322,-0.499 -0.641,-1.029 -0.693,-1.621c-0.052,-0.591 0.25,-1.257 0.82,-1.424c0.635,-0.187 1.258,0.285 1.752,0.726c0.558,0.496 1.128,1.008 1.473,1.67c0.345,0.662 0.422,1.518 -0.005,2.13zm-1.823,-1.725l0,0c0.074,0.176 0.147,0.352 0.281,0.485c0.168,0.168 0.424,0.244 0.657,0.194c-0.436,-0.676 -0.942,-1.306 -1.506,-1.879c-0.151,0.046 -0.164,0.27 -0.073,0.398c0.055,0.079 0.132,0.136 0.21,0.194c0.05,0.037 0.1,0.074 0.144,0.118c0.137,0.133 0.212,0.311 0.287,0.49zm-83.365,60.522c-0.054,0.887 0.014,1.913 0.723,2.447c0.237,-0.131 0.221,-0.469 0.191,-0.739c-0.183,-1.656 0.331,-3.253 0.848,-4.86c0.37,-1.15 0.743,-2.306 0.862,-3.493c0.035,-0.345 -0.057,-0.816 -0.403,-0.829c-0.259,-0.01 -0.427,0.263 -0.531,0.5c-0.969,2.201 -1.544,4.574 -1.69,6.974zm68.803,-31.963c0.801,0.355 1.688,0.715 2.525,0.461c0.334,-0.101 0.63,-0.293 0.922,-0.483c-0.002,0.489 -0.422,0.9 -0.892,1.04c-0.469,0.14 -0.973,0.065 -1.452,-0.038c-0.531,-0.115 -1.181,-0.442 -1.103,-0.98zm-63.304,40.853c0.204,-0.364 0.239,-0.795 0.269,-1.211l0.242,-3.313c0.118,-1.627 0.237,-3.259 0.131,-4.886c-0.014,-0.205 -0.035,-0.421 -0.154,-0.588c-0.12,-0.167 -0.373,-0.257 -0.537,-0.133c-0.12,0.092 -0.151,0.257 -0.172,0.407c-0.262,1.881 -0.402,3.779 -0.419,5.679c-0.012,1.377 0.05,2.8 0.64,4.045zm-3.622,-2.848c-0.212,0.18 -0.565,0.022 -0.682,-0.23c-0.117,-0.252 -0.07,-0.546 -0.02,-0.819c0.525,-2.86 1.119,-5.707 1.784,-8.537c0.017,-0.071 0.034,-0.145 0.08,-0.201c0.175,-0.216 0.529,0.001 0.653,0.25c0.305,0.611 0.159,1.339 0.006,2.004l-1.638,7.144c-0.032,0.142 -0.071,0.295 -0.183,0.389zm5.673,0.127c-0.091,1.073 0.07,2.149 0.23,3.214c0.057,0.379 0.33,0.882 0.672,0.71l0.668,-7.136c0.027,-0.291 0.045,-0.613 -0.135,-0.842c-0.18,-0.229 -0.636,-0.22 -0.693,0.066l-0.492,2.447c-0.103,0.511 -0.206,1.023 -0.25,1.541zm68.911,-21.871c-1.9,-0.978 -4.212,-1.364 -6.186,-0.544c-1.474,0.612 -5.64,3.256 -6.194,6.644c-0.372,2.269 -0.368,4.587 0.426,6.777l0.128,0.344c0.236,0.62 0.99,1.333 1.411,0.82c-1.23,-2.223 -1.46,-4.976 -0.615,-7.373c0.844,-2.396 2.748,-4.397 5.1,-5.359c0.495,-0.202 1.012,-0.361 1.544,-0.412c1.076,-0.101 2.151,0.247 3.113,0.74c2.071,1.062 4.638,2.827 5.624,4.936c0.951,2.032 1.651,4.457 0.791,6.53c-0.861,2.072 -6.512,3.572 -6.512,3.572l0.625,1.141c0,0 3.164,-0.624 5.096,-2.031c8.112,-5.908 -2.533,-14.849 -4.351,-15.785z" clip-rule="evenodd" fill-rule="evenodd"/>
  <path id="svg_9" fill="#00160A" d="m38.79885,156.34701c-2.8688,0.308 -5.9073,-0.356 -8.1471,-2.174c-1.5864,-1.288 -2.7011,-3.08 -3.4832,-4.968c-0.8492,-2.049 -1.3374,-4.248 -1.4356,-6.464c-0.0369,-0.835 -0.0171,-1.685 0.2281,-2.483c0.4036,-1.314 1.3754,-2.369 2.3675,-3.32c2.1106,-2.024 4.5915,-3.871 7.4847,-4.297c1.9715,-0.29 3.977,0.105 5.9069,0.602c1.5156,0.39 3.0293,0.85 4.3926,1.619c3.0125,1.698 5.1,4.938 5.402,8.383c0.302,3.445 -0.0696,5.727 -4.7187,10.008c-2.4159,1.577 -5.1285,2.786 -7.9972,3.094zm5.059,-10.814c-0.4653,0.146 -0.9291,0.406 -1.4094,0.322c-0.9813,-0.173 -1.1569,-1.519 -0.939,-2.492c0.6237,-2.783 2.5638,-5.241 5.1259,-6.494c-0.58,-1.052 -2.1207,-1.13 -3.2105,-0.624c-1.0897,0.506 -1.9415,1.417 -2.9953,1.994c-0.5245,0.287 -1.146,0.49 -1.7165,0.311c-0.9387,-0.294 -1.2971,-1.523 -0.9897,-2.458c0.3073,-0.934 1.0743,-1.632 1.8108,-2.284c-2.6687,0.094 -5.3095,0.895 -7.5805,2.299c-1.7779,1.1 -3.4643,2.903 -3.2284,4.98c1.47,-1.183 3.1959,-2.046 5.0241,-2.514c0.3878,-0.099 0.8746,-0.149 1.1172,0.17c0.1838,0.241 0.131,0.588 0.0133,0.867c-0.5844,1.386 -2.303,1.851 -3.3689,2.912c-0.1399,0.139 -0.2742,0.3 -0.3081,0.495c-0.0664,0.381 0.2971,0.729 0.6788,0.793c0.3818,0.063 0.7651,-0.076 1.1272,-0.212c0.7521,-0.284 1.5042,-0.568 2.2563,-0.852c0.5445,-0.205 1.1909,-0.401 1.6751,-0.078c0.5009,0.334 0.5481,1.093 0.265,1.624c-0.2831,0.532 -0.8027,0.888 -1.3028,1.223c-1.2054,0.808 -2.4107,1.616 -3.6161,2.424c-1.0092,0.676 -2.1398,1.588 -2.0439,2.799c0.0903,1.14 1.3444,1.915 2.4856,1.842c1.1413,-0.074 2.1456,-0.771 2.9878,-1.545c0.8423,-0.773 1.6026,-1.657 2.5807,-2.249c0.6382,-0.387 1.5489,-0.601 2.0674,-0.065c0.4006,0.415 0.3619,1.081 0.2116,1.638c-0.4333,1.604 -1.6048,2.993 -3.1131,3.69c1.2271,0.283 2.5069,0.337 3.7534,0.157c0.7109,-0.103 1.4468,-0.3 1.9609,-0.802c0.5141,-0.501 0.7132,-1.384 0.2672,-1.947c-0.6652,-0.84 -0.6387,-2.069 -0.2137,-3.052c0.4249,-0.984 1.184,-1.778 1.9276,-2.549c-0.2128,-0.439 -0.8348,-0.469 -1.3,-0.323zm5.6813,1.906c0.6683,-1.544 0.6926,-3.291 0.5234,-4.966c-0.1872,-1.852 -0.8328,-3.969 -2.5774,-4.618c-2.5566,1.061 -4.5295,3.428 -5.1124,6.134c-0.049,0.228 -0.0873,0.472 0.0021,0.687c0.0894,0.215 0.3553,0.371 0.5613,0.263c0.7069,-0.37 1.5761,-0.58 2.2947,-0.233c0.7186,0.347 1.0685,1.43 0.4866,1.976c-0.6428,0.603 -1.3031,1.231 -1.6499,2.042c-0.3468,0.81 -0.2968,1.859 0.3561,2.452c0.4907,0.445 0.492,1.319 0.0026,1.766c1.3915,-0.407 2.383,-1.603 3.2853,-2.738c0.6898,-0.867 1.3876,-1.748 1.8276,-2.765zm-16.0187,-7.988c-1.4475,0.601 -2.8526,1.303 -4.2012,2.101c-0.3207,0.19 -0.6448,0.391 -0.8794,0.681c-0.3166,0.391 -0.4369,0.901 -0.5348,1.395c-0.3161,1.594 -0.4791,3.311 0.1906,4.793c0.2137,0.473 0.5059,0.905 0.7966,1.335c0.0858,0.127 0.1833,0.262 0.3304,0.305c0.147,0.043 0.3413,-0.076 0.3068,-0.225c-0.1065,-0.46 0.2418,-0.892 0.5854,-1.216c2.013,-1.895 4.7248,-2.982 6.535,-5.072c-0.2746,-0.325 -0.7955,-0.172 -1.187,-0.005c-0.9326,0.398 -1.8941,0.728 -2.8745,0.987c-0.5058,0.133 -1.0694,0.242 -1.531,-0.004c-0.6755,-0.36 -0.7855,-1.346 -0.4287,-2.023c0.3569,-0.677 1.0352,-1.114 1.6894,-1.512c0.6542,-0.398 1.3405,-0.813 1.733,-1.47c-0.0714,-0.187 -0.3457,-0.146 -0.5306,-0.07zm4.9538,12.693c0.6397,-0.514 1.3308,-1.12 1.4006,-1.938c0.0365,-0.427 -0.2377,-0.95 -0.6649,-0.909c-0.1312,0.012 -0.2511,0.077 -0.3643,0.145c-1.8602,1.111 -3.0844,3.284 -5.1828,3.824c0.593,0.266 1.2113,0.475 1.8437,0.623c0.1883,0.044 0.3845,0.083 0.5739,0.044c0.2204,-0.045 0.4049,-0.191 0.5803,-0.332c0.6045,-0.485 1.209,-0.971 1.8135,-1.457zm1.7299,-17.764c-0.4139,0.458 -0.8278,0.915 -1.2418,1.373c-0.3278,0.363 -0.6796,0.841 -0.4971,1.295c0.1345,0.334 0.5315,0.503 0.8906,0.475c0.3591,-0.028 0.6862,-0.212 0.9873,-0.409c1.0731,-0.704 2.0393,-1.663 3.2915,-1.945c-0.8682,-0.316 -1.7365,-0.632 -2.6048,-0.949c-0.1808,-0.066 -0.3824,-0.132 -0.5603,-0.058c-0.1068,0.044 -0.1879,0.132 -0.2654,0.218z" clip-rule="evenodd" fill-rule="evenodd"/>
  <path id="svg_10" fill="#00160A" d="m55.99178,79.32264c-0.1083,2.17 -1.782,4.519 -3.9389,4.262c-0.9735,-1.126 -1.7354,-2.523 -2.4884,-3.904c-1.4462,-2.653 -2.8595,-5.245 -5.6752,-5.737c-2.7655,-0.483 -5.341,1.551 -7.0634,3.768c-2.4946,3.211 -4.1067,7.101 -4.6148,11.135c-0.2988,2.371 0.6738,5.661 3.05,5.4c2.7142,-0.299 4.6444,1.836 6.6077,4.008c1.817,2.01 3.6624,4.051 6.1837,4.223c3.0021,0.205 5.4543,2.004 7.9366,3.824c1.6579,1.216 3.3292,2.442 5.1866,3.209c3.4943,1.444 7.5238,1.165 11.0906,-0.089c3.5672,-1.254 6.7412,-3.413 9.7452,-5.709l0.158,-0.12c1.64,-1.254 3.356,-2.567 5.396,-2.843c10.427,-1.413 20.126,-7.529 25.894,-16.33c8.179,6.537 19.613,8.772 29.65,5.794c1.703,-0.506 3.417,-1.183 4.68,-2.432c1.263,-1.25 1.98,-3.19 1.359,-4.854c-0.679,-1.82 -2.708,-2.795 -4.637,-3.029c-1.057,-0.129 -2.122,-0.091 -3.188,-0.053c-0.879,0.032 -1.759,0.063 -2.634,0.001c-5.302,-0.375 -9.717,-4.032 -13.732,-7.515c5.817,-1.785 10.533,-6.266 13.647,-11.493c3.114,-5.227 4.783,-11.181 6.051,-17.132c0.667,-3.1316 1.163,-6.6593 -0.626,-9.3146c-0.801,-1.1885 -1.975,-2.0574 -3.145,-2.9233c-1.317,-0.975 -2.63,-1.9461 -3.398,-3.3654c-1.477,-2.7299 -4.357,-4.3487 -7.088,-5.8234c-7.148,-3.8592 -15.358,-7.8311 -23.062,-5.2538c-3,1.0039 -5.592,2.9276 -8.12,4.8315c-4.196,3.1616 -8.692,6.8702 -9.491,12.0635c-6.867,-3.0722 -15.7512,-0.6186 -20.0681,5.5423c-0.9874,1.4092 -1.7454,2.9632 -2.5027,4.5152l0,0c-0.8915,1.828 -1.782,3.654 -3.0444,5.238c-5.0704,-2.31 -10.2367,-4.41 -15.481,-6.293c-2.3252,-0.8342 -5.1027,-1.5718 -7.1064,-0.127c-1.6067,1.159 -2.0996,3.432 -1.6279,5.356c0.4716,1.924 1.7306,3.555 3.0808,5.004c2.9291,3.144 6.4476,5.738 10.3179,7.605c0.1241,0.06 0.249,0.119 0.3744,0.179l0.0018,0.001l0.0005,0l0.0001,0c1.2118,0.578 2.4575,1.171 3.2645,2.231c0.8909,1.17 0.9462,3.127 -0.3028,3.904c-1.8449,1.146 -2.1845,3.719 -1.8064,5.858c0.1292,0.731 0.3189,1.455 0.5083,2.178c0.365,1.393 0.729,2.782 0.6577,4.21zm50.0857,11.438c-4.649,4.881 -11.19,7.737 -17.879,8.572c-6.689,0.835 -13.519,-0.251 -19.9079,-2.398c1.7187,-0.001 2.9615,-2.251 2.0472,-3.707c-3.5213,4.105 -8.8897,6.028 -14.0051,7.783c-4.6215,1.586 -10.1454,0.434 -13.54,-3.08c-3.3947,-3.514 -4.3133,-9.28 -1.9261,-13.543c1.0377,-1.853 2.7977,-3.466 4.9138,-3.648c2.116,-0.182 4.3945,1.573 4.1982,3.688c-1.1775,-0.205 -2.4166,0.795 -2.4651,1.989c4.5552,-0.491 8.8377,-3.101 11.3613,-6.925c0.871,-1.32 1.5329,-2.757 2.1954,-4.196l0,0c0.4448,-0.966 0.8899,-1.933 1.3987,-2.865c1.2665,-2.32 3.085,-4.531 5.6051,-5.328c2.0225,-0.64 4.2089,-0.285 6.2994,0.076l9.2871,1.601c0.695,-0.6 -0.431,-1.562 -1.33,-1.75c-2.902,-0.606 -5.845,-0.98 -8.7884,-1.354c-2.7293,-0.346 -5.4588,-0.693 -8.1565,-1.225c-5.6068,-1.106 -11.242,-3.13 -15.323,-7.13c2.7682,-1.593 4.8743,-4.299 5.7384,-7.373c0.1749,-0.622 -0.2417,-1.644 -0.7468,-1.241c-0.577,1.996 -1.2025,4.077 -2.6484,5.569c-1.4459,1.492 -3.9838,2.148 -5.6203,0.868c-2.1244,-1.662 -4.358,-3.474 -5.1982,-6.037c-0.8401,-2.563 0.4889,-6.005 3.1676,-6.319c1.2024,-0.141 2.3777,0.355 3.4865,0.841l11.1858,4.904c3.3291,1.459 6.7079,2.933 10.3041,3.463c2.525,0.371 5.0932,0.267 7.6432,0.162l7.229,-0.298c0.296,-0.013 0.599,-0.026 0.871,-0.142c0.726,-0.31 0.973,-1.197 1.133,-1.971c1.94,-9.361 4.546,-19.2401 11.598,-25.6957c3.155,-2.8887 7.086,-4.9225 11.266,-5.8298c4.121,-0.8944 8.668,-0.6315 12.216,1.6477c-5.952,0.438 -11.731,2.9477 -16.114,6.9977c-1.841,-1.9658 -5.269,-0.359 -6.737,1.8989c-2.277,3.5001 -2.236,8.3623 0.1,11.8232c1.966,2.913 2.696,6.389 3.427,9.873l0,0c0.671,3.202 1.344,6.411 2.981,9.196c2.588,4.406 7.408,7.234 12.443,8.111c5.034,0.876 10.253,-0.039 15.037,-1.834c-5.355,5.342 -13.909,7.189 -20.991,4.534c-0.516,-0.194 -1.03,-0.41 -1.544,-0.627c-1.627,-0.685 -3.26,-1.372 -5.006,-1.352c1.023,1.083 2.329,1.896 3.752,2.335c-1.641,2.756 -3.362,5.464 -5.162,8.12c-0.23,0.339 -0.492,0.701 -0.886,0.816c-0.439,0.128 -0.897,-0.09 -1.297,-0.312c-3.308,-1.828 -6.273,-4.275 -8.697,-7.175l-4.847,5.897c2.487,3.041 5.396,5.737 8.616,7.988c-4.286,5.295 -10.78,8.744 -17.567,9.33c7.026,0.358 14.138,-2.938 18.408,-8.529c2.703,1.518 5.543,2.792 8.474,3.801zm22.219,-51.8525c1.552,-1.6928 2.127,-4.1108 1.995,-6.4039c-0.133,-2.2932 -0.904,-4.4985 -1.758,-6.631c2.224,-0.2636 4.483,0.5754 6.255,1.9454c1.771,1.3701 3.102,3.2343 4.193,5.1898c1.323,2.3704 2.338,4.9336 2.778,7.6124c1.036,6.3078 -1.177,12.7388 -4.326,18.3008c-0.612,1.08 -1.27,2.152 -2.163,3.015c-0.899,0.868 -2.005,1.492 -3.138,2.019c-4.677,2.173 -10.057,2.8 -15.108,1.761c3.225,-2.685 5.502,-6.384 6.952,-10.321c1.451,-3.937 2.114,-8.122 2.497,-12.301l0.002,-0.023c0.096,-1.0536 0.197,-2.161 0.798,-3.0311c0.199,-0.288 0.445,-0.5378 0.691,-0.7876l0,-0.0001l0,-0.0002c0.112,-0.1136 0.224,-0.2272 0.332,-0.3445zm-5.836,17.4035c-1.391,3.255 -3.547,6.243 -6.469,8.241c-0.343,0.234 -0.71,0.459 -1.122,0.507c-0.363,0.043 -0.727,-0.057 -1.076,-0.167c-2.485,-0.785 -4.833,-2.175 -6.427,-4.236c-0.578,-0.748 -1.05,-1.573 -1.471,-2.419c-3.068,-6.165 -3.369,-13.644 -0.805,-20.0351c0.122,-0.3053 0.297,-0.648 0.62,-0.7121c0.417,-0.0828 0.737,0.3441 0.972,0.6991c1.915,2.9018 5.495,4.3711 8.969,4.5231c3.473,0.152 6.89,-0.8352 10.183,-1.9484c-0.6,1.4678 -0.753,3.0664 -0.904,4.6504c-0.019,0.2 -0.038,0.399 -0.058,0.598c-0.353,3.522 -1.02,7.044 -2.412,10.299zm-0.707,-30.2366c1.777,-0.404 3.851,-0.5152 5.209,0.7005c0.439,0.3927 0.765,0.8963 1.033,1.4204c1.682,3.2871 1.023,7.6163 -1.561,10.2542c-2.987,3.0496 -7.714,3.5523 -11.967,3.1903c-1.526,-0.1298 -3.096,-0.3647 -4.399,-1.17c-1.685,-1.0421 -2.684,-2.8782 -3.607,-4.6319c4.098,-4.5794 9.299,-8.4012 15.292,-9.7635zm14.374,55.2816c-0.557,1.408 -1.12,2.835 -1.303,4.339c-0.182,1.503 0.055,3.116 0.97,4.323c-7.588,0.42 -15.298,-1.919 -21.372,-6.485c1.959,-2.772 3.506,-5.834 4.574,-9.056c0.422,-1.273 2.034,-1.804 3.342,-1.509c1.204,0.271 2.215,1.044 3.201,1.797c0.085,0.065 0.17,0.13 0.255,0.194c3.229,2.452 6.788,4.429 10.333,6.397zm-53.017,19.227c-1.196,1.347 -2.626,2.465 -4.087,3.52c-3.049,2.202 -6.3744,4.203 -10.0805,4.843c-5.4313,0.937 -11.2991,-1.406 -14.5916,-5.826l11.8464,-4.419c0.2836,-0.106 0.5774,-0.213 0.8796,-0.196c0.1708,0.01 0.335,0.059 0.4996,0.108l0.0001,0l0,0l0.0001,0l0.0001,0c0.1095,0.032 0.2191,0.065 0.3309,0.086c0.3803,0.072 0.764,0.009 1.1493,-0.054c0.2398,-0.04 0.4802,-0.079 0.7209,-0.087c0.8867,-0.026 1.7016,0.379 2.5079,0.78c0.2047,0.102 0.4089,0.203 0.6135,0.297c3.1417,1.445 6.7637,1.211 10.2107,0.948zm-17.1047,-50.686c-0.0835,-0.187 0.0046,-0.402 0.0927,-0.586c2.426,-5.081 5.6354,-9.7871 9.48,-13.9007c2.704,3.7547 4.504,8.1557 5.205,12.7297c0.14,0.914 -0.011,2.179 -0.929,2.293c-4.399,0.548 -8.8758,0.474 -13.2544,-0.22c-0.2315,-0.037 -0.4986,-0.102 -0.5943,-0.316zm16.5697,-0.313c-0.906,-4.98 -2.787,-9.781 -5.504,-14.0512c2.3,-1.211 5.019,-1.2308 7.618,-1.2226c1.642,0.0051 3.434,0.0629 4.685,1.1259l-3.245,9.5759c-0.551,1.625 -1.109,3.296 -1.039,5.011l-2.052,0.033c-0.073,0.001 -0.148,0.002 -0.216,-0.026c-0.164,-0.069 -0.215,-0.271 -0.247,-0.446zm26.394,24.504c0.545,-0.927 1.064,-1.917 1.119,-2.991c2.455,1.104 5.158,1.651 7.848,1.588c0.422,-0.01 0.407,0.642 0.234,1.027c-0.524,1.166 -1.048,2.333 -1.654,3.458c-0.623,1.155 -1.329,2.263 -2.035,3.369l-1.691,2.651c-0.232,0.363 -0.47,0.734 -0.815,0.993c-0.923,0.694 -2.241,0.36 -3.294,-0.114c-1.748,-0.785 -3.357,-1.878 -4.73,-3.214c1.907,-2.069 3.593,-4.341 5.018,-6.767zm-63.4674,2.291c0.8132,0.82 1.3446,1.871 1.8628,2.903l-2.4396,0.348c-0.8129,0.116 -1.6463,0.238 -2.3647,0.636c-0.699,0.386 -1.2381,1.006 -1.7125,1.649c-1.9841,2.688 -3.0838,6.018 -3.0907,9.359c-0.0025,1.207 -1.4288,2.067 -2.596,1.761c-1.1673,-0.305 -1.9603,-1.465 -2.1621,-2.655c-0.2018,-1.189 0.0824,-2.406 0.4388,-3.559c1.2542,-4.057 3.4977,-7.888 6.8171,-10.537c0.6342,-0.506 1.335,-0.98 2.1362,-1.108c1.1403,-0.182 2.2975,0.383 3.1107,1.203zm102.4454,6.791c0.283,0.363 0.492,0.805 0.479,1.264c-0.017,0.593 -0.393,1.114 -0.798,1.548c-2.355,2.523 -5.974,3.383 -9.402,3.788c-0.226,0.026 -0.463,0.05 -0.675,-0.032c-0.174,-0.069 -0.314,-0.203 -0.438,-0.342c-0.827,-0.931 -1.155,-2.231 -1.088,-3.473c0.068,-1.243 0.497,-2.44 1.031,-3.564c0.112,-0.237 0.242,-0.486 0.472,-0.613c0.183,-0.101 0.401,-0.109 0.61,-0.115l4.149,-0.108c1.021,-0.027 2.054,-0.053 3.054,0.158c0.999,0.21 1.979,0.683 2.606,1.489zm-46.235,-39.199c-1.691,-3.1319 -2.956,-6.4935 -3.749,-9.9632l0.683,-1.8241c0.845,-1.6357 1.91,-3.1575 3.158,-4.5115c0.508,-0.5514 1.388,-0.6124 2.089,-0.3467c0.702,0.2657 1.266,0.794 1.81,1.3097l2.449,2.3205c0.073,0.069 0.149,0.1435 0.173,0.2408c0.046,0.1833 -0.105,0.3511 -0.242,0.4812c-1.147,1.0905 -2.166,2.3201 -2.983,3.6755c-1.236,2.0486 -1.99,4.3444 -2.734,6.6179l-0.654,1.9999zm6.26,-17.5914c4.987,-2.6709 10.441,-5.1843 16.067,-4.5833c2.94,0.3143 5.754,1.4843 8.203,3.1416c-7.017,-1.8038 -14.839,-0.14 -20.515,4.3639c-0.877,0.6961 -2.193,1.4521 -2.974,0.6496c-0.201,-0.2061 -0.332,-0.4948 -0.46,-0.7761c-0.205,-0.4505 -0.4,-0.8821 -0.859,-0.9243c-0.437,-0.0402 -0.632,-0.6336 -0.446,-1.0317c0.185,-0.3981 0.596,-0.6323 0.984,-0.8397zm-13.701,48.8534c0.985,0.946 2.069,1.781 3.15,2.614l4.37,3.365c-1.346,1.185 -2.662,2.404 -3.948,3.654c-3.061,-1.814 -5.794,-4.181 -8.026,-6.953c1.222,-1.272 2.395,-2.592 3.515,-3.954c0.176,0.503 0.555,0.905 0.939,1.274zm-28.0919,-9.102c-2.3006,1.797 -4.679,3.689 -5.9445,6.32c-0.2472,0.514 -0.4515,1.055 -0.6554,1.595c-0.4335,1.148 -0.8656,2.293 -1.7062,3.167c-0.3725,-0.11 -0.5191,-0.549 -0.6098,-0.927l-0.8755,-3.641c-0.1181,-0.491 -0.237,-0.996 -0.1699,-1.497c0.0668,-0.498 0.3126,-0.952 0.554,-1.394l2.5685,-4.694c0.0573,-0.104 0.1167,-0.212 0.2085,-0.288c0.2272,-0.189 0.5634,-0.128 0.8503,-0.058l5.78,1.417zm37.3739,16.124c1.569,1.614 3.518,2.854 5.645,3.59c0.397,-0.374 1.166,-0.168 1.322,0.355c-0.731,0.95 -1.534,1.844 -2.4,2.672c-0.387,0.371 -1.006,0.292 -1.528,0.173c-2.548,-0.585 -5.002,-1.576 -7.242,-2.925c-0.15,-0.09 -0.318,-0.218 -0.303,-0.392c0.009,-0.118 0.102,-0.209 0.188,-0.289l3.145,-2.896c0.33,-0.303 0.86,-0.609 1.173,-0.288zm40.147,-40.4565c-0.029,0.3549 -0.079,0.7505 -0.357,0.9745c-0.002,-2.7879 -0.693,-5.5724 -1.995,-8.0374c-0.236,-0.4471 -0.492,-0.8841 -0.777,-1.3019l-0.023,-0.0343l-0.035,-0.0513l-0.053,-0.0758c-0.287,-0.4146 -0.581,-0.8389 -0.651,-1.334l3.37,3.5199c0.31,0.3239 0.629,0.6618 0.775,1.0855c0.142,0.4086 0.108,0.8542 0.072,1.2851l-0.326,3.9697zm-3.871,-4.4732l-0.763,-0.9617c-0.84,-1.0582 -1.87,-2.2136 -3.221,-2.2151c-0.784,-0.0009 -1.505,0.4005 -2.185,0.7905l-1.056,0.6059c-0.289,0.1655 -0.585,0.3376 -0.789,0.6009c-0.586,0.7591 -0.158,1.8683 0.396,2.6512c0.384,0.5418 0.844,1.062 1.455,1.3228c0.79,0.3373 1.698,0.1881 2.526,-0.0402c1.134,-0.3127 2.229,-0.7638 3.254,-1.3401c0.328,-0.1843 0.69,-0.4542 0.674,-0.8299c-0.01,-0.2212 -0.154,-0.4108 -0.291,-0.5843zm-6.667,0.7424c-0.131,-0.209 -0.267,-0.4324 -0.269,-0.6792c-0.004,-0.4827 0.478,-0.8067 0.901,-1.0378l1.506,-0.8215c0.228,-0.1242 0.465,-0.2512 0.724,-0.2687c0.259,-0.0174 0.547,0.1072 0.634,0.3516c0.256,0.7212 0.889,1.2964 1.632,1.4835c0.24,0.0606 0.317,0.3933 0.204,0.6135c-0.114,0.2203 -0.346,0.349 -0.569,0.4592c-0.793,0.3939 -1.623,0.7151 -2.475,0.9582c-0.342,0.0975 -0.704,0.1828 -1.049,0.1006c-0.565,-0.1344 -0.93,-0.6675 -1.239,-1.1594zm-10.713,7.4353c-1.494,0.174 -1.778,2.867 -1.084,4.303c0.142,0.296 0.366,0.6 0.691,0.641c0.557,0.071 0.864,-0.616 0.988,-1.163l0.002,-0.013c0.163,-0.721 0.888,-3.941 -0.597,-3.768zm-7.703,3.533c0.298,-0.697 0.398,-1.478 0.284,-2.227c-0.053,-0.348 -0.158,-0.702 -0.391,-0.966c-0.232,-0.265 -0.617,-0.418 -0.948,-0.299c-0.3,0.108 -0.489,0.401 -0.631,0.686c-0.501,1.008 -0.701,2.163 -0.567,3.28c0.062,0.52 0.717,0.804 1.214,0.64c0.497,-0.165 0.832,-0.633 1.039,-1.114zm4.403,-1.595c0.232,-0.192 0.524,0.157 0.618,0.443c0.309,0.94 0.565,1.898 0.767,2.867c0.127,0.612 0.232,1.248 0.096,1.859c-0.191,0.861 -0.845,1.561 -1.604,2.01c-0.759,0.448 -1.624,0.68 -2.476,0.907c-0.225,0.06 -0.508,0.103 -0.653,-0.079c-0.123,-0.154 -0.062,-0.396 0.078,-0.535c0.138,-0.137 0.33,-0.2 0.514,-0.26l0.011,-0.004c1.328,-0.436 2.748,-1.224 3.057,-2.587c0.17,-0.75 -0.037,-1.503 -0.245,-2.259c-0.189,-0.689 -0.379,-1.381 -0.285,-2.074c0.014,-0.106 0.04,-0.22 0.122,-0.288zm-9.276,-3.067c-0.35,-0.484 -0.07,-1.22 0.438,-1.536c0.507,-0.316 1.148,-0.312 1.741,-0.235c0.707,0.091 1.403,0.271 2.066,0.534c0.141,0.056 0.293,0.127 0.355,0.266c0.115,0.256 -0.182,0.537 -0.464,0.537c-0.226,0 -0.431,-0.109 -0.634,-0.217c-0.049,-0.026 -0.098,-0.052 -0.147,-0.076c-1.107,-0.549 -2.575,-0.231 -3.355,0.727zm12.758,-0.166c0.526,-0.088 1.084,0.034 1.526,0.332c0.184,0.124 0.449,-0.085 0.45,-0.308c0.001,-0.223 -0.165,-0.41 -0.34,-0.548c-0.378,-0.297 -0.847,-0.475 -1.327,-0.502c-0.309,-0.017 -0.651,0.042 -0.851,0.28c-0.199,0.237 -0.139,0.682 0.16,0.765c0.106,0.029 0.218,0.01 0.328,-0.01l0.022,-0.004l0.032,-0.005zm-6.529,13.667c0.148,-0.084 0.344,0.062 0.366,0.231c0.022,0.168 -0.074,0.33 -0.184,0.459c-0.552,0.651 -1.502,0.852 -2.342,0.699c-0.839,-0.152 -1.591,-0.604 -2.299,-1.08c-0.333,-0.224 -0.661,-0.455 -0.984,-0.693c-0.334,-0.247 -0.691,-0.55 -0.731,-0.963c-0.04,-0.414 0.49,-0.832 0.793,-0.546c0.744,0.7 1.505,1.413 2.431,1.846c0.925,0.434 2.06,0.549 2.95,0.047zm-15.933,3.318c-3.1,-6.739 -4.394,-14.299 -3.71,-21.6853c0.011,-0.1262 0.027,-0.2614 0.111,-0.3568c0.117,-0.1347 0.359,-0.1291 0.47,0.0109c-0.04,4.0632 -0.078,8.1512 0.586,12.1602c0.663,4.009 2.071,7.975 4.643,11.121c0.076,0.093 0.154,0.186 0.231,0.28l0.001,0l0,0.001l0.001,0c0.442,0.531 0.888,1.066 1.139,1.705c-1.672,-0.032 -2.773,-1.716 -3.472,-3.236zm3.041,-30.4308c-0.058,-0.062 -0.124,-0.1167 -0.202,-0.1501c-0.223,-0.0966 -0.486,0.0024 -0.681,0.1473c-0.781,0.5776 -0.784,1.9284 -0.006,2.5096c0.379,-0.3233 0.769,-0.6591 0.991,-1.1052c0.222,-0.4461 0.236,-1.0355 -0.102,-1.4016zm6.728,7.1166c0.841,0.6827 1.8,1.2204 2.821,1.5825c3.295,1.1683 6.997,0.4348 10.176,-1.0185c0.486,-0.222 1.106,-0.105 1.477,0.2789c-2.041,1.4548 -4.542,2.2544 -7.049,2.2538c-0.553,-0.0001 -1.105,-0.038 -1.655,-0.0861c-1.127,-0.0985 -2.263,-0.2428 -3.323,-0.6375c-1.06,-0.3946 -2.049,-1.0622 -2.649,-2.021l0.202,-0.3521zm35.878,44.4042c-0.032,0.112 0.058,0.22 0.141,0.302l1.252,1.242c0.136,-0.357 -0.017,-0.773 -0.28,-1.051c-0.262,-0.278 -0.617,-0.447 -0.963,-0.61c-0.068,0.003 -0.131,0.052 -0.15,0.117z" clip-rule="evenodd" fill-rule="evenodd"/>
  <path id="svg_11" fill="#00160A" d="m228.40185,34.33081c1.534,0.5315 2.979,-0.8516 4.3,-1.7939c2.045,-1.458 4.713,-2.0093 7.168,-1.4813c0.408,0.0876 0.834,0.2191 1.103,0.5379c0.245,0.2915 0.315,0.6891 0.354,1.068c0.242,2.3195 -0.338,4.7163 -1.614,6.6686c-0.62,0.9498 -1.397,1.7955 -1.952,2.785c-0.555,0.9899 -0.872,2.1989 -0.477,3.2619c2.35,6.322 1.372,13.78 -2.529,19.282c-3.902,5.502 -10.615,8.893 -17.359,8.766c-3.449,-0.064 -6.828,-0.985 -10.078,-2.142c-1.417,-0.505 -2.976,-1.059 -4.383,-0.526c-2.568,0.973 -5.272,1.588 -8.009,1.82c-0.679,0.058 -1.388,0.087 -2.015,-0.181c-0.938,-0.401 -1.504,-1.418 -1.611,-2.432c-0.108,-1.015 0.172,-2.03 0.527,-2.987c1.068,-2.886 4.386,-7.394 6.394,-8.432c-0.163,-3.504 -0.145,-7.05 0.613,-10.475c0.757,-3.425 2.303,-6.7489 4.84,-9.1725c1.047,-1.001 2.246,-1.8342 3.502,-2.5572c6.351,-3.6568 14.302,-4.4095 21.226,-2.0095zm-9.672,-0.2845c-4.857,0.1136 -9.584,2.0646 -13.381,5.0956c-1.115,0.89 -2.163,1.8786 -2.999,3.0339c-0.66,0.9102 -1.181,1.9152 -1.617,2.9522c-2.586,6.15 -1.996,13.54 1.534,19.202c0.077,0.123 0.165,0.254 0.302,0.302c0.17,0.059 0.352,-0.027 0.511,-0.111c11.085,-5.908 20.953,-14.09 28.811,-23.8906c0.187,-0.2334 0.384,-0.5045 0.343,-0.8009c-0.03,-0.2224 -0.189,-0.403 -0.344,-0.5654c-3.353,-3.5155 -8.303,-5.3315 -13.16,-5.2178zm6.79,36.7167c5.266,-2.472 9.265,-7.357 10.975,-12.917c0.388,-1.259 0.666,-2.56 0.693,-3.877c0.023,-1.108 -0.131,-2.21 -0.285,-3.307c-0.224,-1.59 -0.447,-3.181 -0.671,-4.771c-0.059,-0.422 -0.465,-0.978 -0.762,-0.673c-8.239,8.479 -17.235,16.22 -26.846,23.104c-0.32,0.229 -0.672,0.512 -0.689,0.905c-0.02,0.455 0.414,0.785 0.808,1.012c5.039,2.906 11.512,2.996 16.777,0.524zm-32.478,-0.648c0.383,0.615 1.213,0.741 1.937,0.761c3.797,0.105 7.553,-1.008 10.951,-2.707c3.397,-1.7 6.471,-3.973 9.46,-6.318c3.985,-3.128 7.851,-6.406 11.619,-9.793c4.667,-4.194 9.252,-8.643 12.316,-14.1182c0.593,-1.0592 1.14,-2.2205 1.047,-3.4307c-0.093,-1.2101 -1.058,-2.4319 -2.271,-2.3846c-2.573,0.1004 -5.104,1.0899 -7.063,2.762c-0.389,0.3325 -0.114,1.0403 0.366,1.2203c0.479,0.18 1.013,0.0012 1.482,-0.2056c0.469,-0.2069 0.957,-0.4488 1.466,-0.3922c0.777,0.0865 1.33,0.8827 1.376,1.6638c0.046,0.7811 -0.299,1.5319 -0.706,2.2002c-0.753,1.2368 -1.737,2.3149 -2.731,3.368c-8.836,9.361 -19.029,17.439 -30.16,23.903c-1.003,0.583 -2.017,1.154 -3.096,1.578c-0.566,0.222 -1.215,0.401 -1.767,0.147c-0.905,-0.418 -0.978,-1.689 -0.706,-2.648c0.408,-1.441 1.289,-2.743 2.475,-3.657c-0.225,-0.632 -0.449,-1.265 -0.674,-1.898c-2.927,1.87 -4.981,5.05 -5.482,8.487c-0.072,0.495 -0.105,1.037 0.161,1.462zm8.322,-4.342c0.021,-0.065 -0.017,-0.133 -0.054,-0.191c-0.378,-0.601 -0.756,-1.202 -1.134,-1.803c-0.171,-0.271 -0.502,-0.579 -0.759,-0.386c-0.924,0.696 -1.586,1.733 -1.828,2.864c-0.047,0.224 -0.075,0.473 0.046,0.666c0.227,0.36 0.767,0.28 1.167,0.136c0.852,-0.305 1.674,-0.698 2.446,-1.17c0.048,-0.029 0.099,-0.063 0.116,-0.116zm32.893,-28.5984c-0.038,-0.1561 -0.224,-0.2239 -0.384,-0.2308c-0.488,-0.0213 -0.997,0.3792 -0.966,0.8659c0.031,0.4867 0.754,0.7931 1.057,0.4104c0.091,-0.1155 0.13,-0.2628 0.166,-0.4054c0.036,-0.1414 0.072,-0.2827 0.108,-0.424c0.018,-0.0708 0.036,-0.1451 0.019,-0.2161z" clip-rule="evenodd" fill-rule="evenodd"/>
 </g>
</svg>